SplineFontDB: 3.2
FontName: HelveticaNeue
FullName: Helvetica Neue
FamilyName: Helvetica Neue
Weight: Book
Copyright: Copyright (c) 1981, 1982, 1983, 1989 and 1993, Linotype Library GmbH or its affiliated Linotype-Hell companies. All rights reserved.\n\nThe digitally encoded machine readable software for producing the Typefaces licensed to you is now the property of Heidelberger Druckmaschinen AG and its licensors, and may not be reproduced, used, displayed, modified, disclosed or transferred without the express written approval of Heidelberger Druckmaschinen AG.\n\nCopyright (c) 1988, 1990, 1993 Adobe Systems Incorporated. All Rights Reserved.
Version: 6.1d8e1
ItalicAngle: 0
UnderlinePosition: -125
UnderlineWidth: 50
Ascent: 800
Descent: 200
InvalidEm: 0
sfntRevision: 0x00010000
LayerCount: 2
Layer: 0 1 "Back" 1
Layer: 1 1 "Fore" 0
XUID: [1021 924 -552422354 17420]
StyleMap: 0x0000
FSType: 0
OS2Version: 1
OS2_WeightWidthSlopeOnly: 0
OS2_UseTypoMetrics: 0
CreationTime: 975024000
ModificationTime: 1617962352
PfmFamily: 17
TTFWeight: 400
TTFWidth: 5
LineGap: 28
VLineGap: 0
Panose: 2 0 5 3 0 0 0 2 0 4
OS2TypoAscent: 952
OS2TypoAOffset: 0
OS2TypoDescent: -215
OS2TypoDOffset: 0
OS2TypoLinegap: 55
OS2WinAscent: 952
OS2WinAOffset: 0
OS2WinDescent: 213
OS2WinDOffset: 0
HheadAscent: 952
HheadAOffset: 0
HheadDescent: -213
HheadDOffset: 0
OS2SubXSize: 204
OS2SubYSize: 204
OS2SubXOff: 0
OS2SubYOff: 286
OS2SupXSize: 204
OS2SupYSize: 204
OS2SupXOff: 0
OS2SupYOff: 286
OS2StrikeYSize: 50
OS2StrikeYPos: 250
OS2Vendor: 'LINO'
OS2CodePages: 00000000.00000000
OS2UnicodeRanges: 80000067.00000000.00000000.00000000
Lookup: 4 0 0 "<27,0> Canonical Decomposition lookup 0" { "<27,0> Canonical Decomposition lookup 0 subtable"  } [<27,0> ('cyrl' <'dflt' > 'latn' <'dflt' > ) ]
Lookup: 4 0 1 "<1,2> Common Ligatures in Latin lookup 1" { "<1,2> Common Ligatures in Latin lookup 1 subtable"  } [<1,2> ('latn' <'dflt' > ) 'liga' ('latn' <'dflt' > ) ]

StartChar: .notdef
Encoding: 65536 -1 0
Width: 540
VWidth: 1040
Flags: W
LayerCount: 2
Fore
SplineSet
482 48 m 1,0,-1
 98 48 l 1,1,-1
 98 544 l 1,2,-1
 482 544 l 1,3,-1
 482 48 l 1,0,-1
90 552 m 1,4,-1
 90 40 l 1,5,-1
 490 40 l 1,6,-1
 490 552 l 1,7,-1
 90 552 l 1,4,-1
EndSplineSet
EndChar

StartChar: exclam
Encoding: 33 33 8
Width: 299
VWidth: 1040
Flags: W
LayerCount: 2
Fore
SplineSet
114 151 m 1,0,-1
 114 40 l 1,1,-1
 225 40 l 1,2,-1
 225 151 l 1,3,-1
 114 151 l 1,0,-1
217 534 m 1,4,-1
 217 754 l 1,5,-1
 122 754 l 1,6,-1
 122 534 l 1,7,-1
 147 223 l 1,8,-1
 192 223 l 1,9,-1
 217 534 l 1,4,-1
EndSplineSet
EndChar

StartChar: quotedbl
Encoding: 34 34 9
Width: 466
VWidth: 1040
Flags: W
LayerCount: 2
Fore
SplineSet
289 754 m 1,0,-1
 289 496 l 1,1,-1
 357 496 l 1,2,-1
 357 754 l 1,3,-1
 289 754 l 1,0,-1
149 754 m 1,4,-1
 149 496 l 1,5,-1
 217 496 l 1,6,-1
 217 754 l 1,7,-1
 149 754 l 1,4,-1
EndSplineSet
EndChar

StartChar: numbersign
Encoding: 35 35 10
Width: 596
VWidth: 1040
Flags: W
LayerCount: 2
Fore
SplineSet
271 464 m 1,0,-1
 395 464 l 1,1,-1
 374 314 l 1,2,-1
 250 314 l 1,3,-1
 271 464 l 1,0,-1
171 246 m 1,4,-1
 142 40 l 1,5,-1
 211 40 l 1,6,-1
 240 246 l 1,7,-1
 364 246 l 1,8,-1
 335 40 l 1,9,-1
 404 40 l 1,10,-1
 433 246 l 1,11,-1
 534 246 l 1,12,-1
 534 314 l 1,13,-1
 443 314 l 1,14,-1
 464 464 l 1,15,-1
 562 464 l 1,16,-1
 562 532 l 1,17,-1
 473 532 l 1,18,-1
 502 737 l 1,19,-1
 433 737 l 1,20,-1
 404 532 l 1,21,-1
 280 532 l 1,22,-1
 309 737 l 1,23,-1
 240 737 l 1,24,-1
 211 532 l 1,25,-1
 100 532 l 1,26,-1
 100 464 l 1,27,-1
 202 464 l 1,28,-1
 181 314 l 1,29,-1
 74 314 l 1,30,-1
 74 246 l 1,31,-1
 171 246 l 1,4,-1
EndSplineSet
EndChar

StartChar: dollar
Encoding: 36 36 11
Width: 596
VWidth: 1040
Flags: W
LayerCount: 2
Fore
SplineSet
150 258 m 1,0,-1
 65 258 l 1,1,2
 73 153 73 153 132 93.5 c 128,-1,3
 191 34 191 34 291 24 c 1,4,-1
 291 -58 l 1,5,-1
 346 -58 l 1,6,-1
 346 24 l 1,7,8
 394 28 394 28 434 44 c 128,-1,9
 474 60 474 60 503 87.5 c 128,-1,10
 532 115 532 115 548.5 153 c 128,-1,11
 565 191 565 191 565 240 c 0,12,13
 565 286 565 286 547.5 319 c 128,-1,14
 530 352 530 352 505 374 c 128,-1,15
 480 396 480 396 453 408.5 c 128,-1,16
 426 421 426 421 406 426 c 2,17,-1
 346 442 l 1,18,-1
 346 688 l 1,19,20
 438 671 438 671 458 572 c 1,21,-1
 543 572 l 1,22,23
 523 660 523 660 475 710 c 128,-1,24
 427 760 427 760 346 770 c 1,25,-1
 346 837 l 1,26,-1
 291 837 l 1,27,-1
 291 771 l 1,28,29
 248 768 248 768 210.5 752 c 128,-1,30
 173 736 173 736 145.5 708.5 c 128,-1,31
 118 681 118 681 102 643.5 c 128,-1,32
 86 606 86 606 86 561 c 0,33,34
 86 517 86 517 98 486 c 128,-1,35
 110 455 110 455 135.5 433.5 c 128,-1,36
 161 412 161 412 199.5 396.5 c 128,-1,37
 238 381 238 381 291 368 c 1,38,-1
 291 103 l 1,39,40
 231 113 231 113 191.5 152 c 128,-1,41
 152 191 152 191 150 258 c 1,0,-1
346 103 m 1,42,-1
 346 354 l 1,43,44
 373 346 373 346 397 336.5 c 128,-1,45
 421 327 421 327 438 313 c 128,-1,46
 455 299 455 299 465 279.5 c 128,-1,47
 475 260 475 260 475 231 c 0,48,49
 475 199 475 199 465.5 175.5 c 128,-1,50
 456 152 456 152 438.5 136.5 c 128,-1,51
 421 121 421 121 397.5 113 c 128,-1,52
 374 105 374 105 346 103 c 1,42,-1
291 691 m 1,53,-1
 291 457 l 1,54,55
 266 464 266 464 245 473 c 128,-1,56
 224 482 224 482 208.5 494.5 c 128,-1,57
 193 507 193 507 184.5 525.5 c 128,-1,58
 176 544 176 544 176 570 c 0,59,60
 176 627 176 627 209.5 656.5 c 128,-1,61
 243 686 243 686 291 691 c 1,53,-1
EndSplineSet
EndChar

StartChar: percent
Encoding: 37 37 12
Width: 1040
VWidth: 1040
Flags: W
LayerCount: 2
Fore
SplineSet
207 548 m 0,0,1
 207 571 207 571 210 596.5 c 128,-1,2
 213 622 213 622 222.5 643.5 c 128,-1,3
 232 665 232 665 249 679.5 c 128,-1,4
 266 694 266 694 294 694 c 0,5,6
 323 694 323 694 339.5 679.5 c 128,-1,7
 356 665 356 665 365 643.5 c 128,-1,8
 374 622 374 622 376.5 596.5 c 128,-1,9
 379 571 379 571 379 549 c 0,10,11
 379 526 379 526 376 500 c 128,-1,12
 373 474 373 474 363.5 452.5 c 128,-1,13
 354 431 354 431 337 417 c 128,-1,14
 320 403 320 403 291 403 c 0,15,16
 263 403 263 403 246.5 417.5 c 128,-1,17
 230 432 230 432 221 453.5 c 128,-1,18
 212 475 212 475 209.5 500.5 c 128,-1,19
 207 526 207 526 207 548 c 0,0,1
132 546 m 256,20,21
 132 505 132 505 140.5 469 c 128,-1,22
 149 433 149 433 168 406 c 128,-1,23
 187 379 187 379 218 363.5 c 128,-1,24
 249 348 249 348 294 348 c 0,25,26
 338 348 338 348 368 365 c 128,-1,27
 398 382 398 382 417.5 409.5 c 128,-1,28
 437 437 437 437 445.5 473.5 c 128,-1,29
 454 510 454 510 454 549 c 0,30,31
 454 590 454 590 446.5 626.5 c 128,-1,32
 439 663 439 663 420.5 690 c 128,-1,33
 402 717 402 717 371.5 733 c 128,-1,34
 341 749 341 749 294 749 c 0,35,36
 248 749 248 749 217 732.5 c 128,-1,37
 186 716 186 716 167 688 c 128,-1,38
 148 660 148 660 140 623.5 c 128,-1,39
 132 587 132 587 132 546 c 256,20,21
701 228 m 0,40,41
 701 251 701 251 704 276.5 c 128,-1,42
 707 302 707 302 716.5 323.5 c 128,-1,43
 726 345 726 345 743 359.5 c 128,-1,44
 760 374 760 374 788 374 c 0,45,46
 817 374 817 374 833.5 359.5 c 128,-1,47
 850 345 850 345 859 323.5 c 128,-1,48
 868 302 868 302 870.5 276.5 c 128,-1,49
 873 251 873 251 873 229 c 0,50,51
 873 206 873 206 870 180 c 128,-1,52
 867 154 867 154 857.5 132.5 c 128,-1,53
 848 111 848 111 831 97 c 128,-1,54
 814 83 814 83 785 83 c 0,55,56
 757 83 757 83 740.5 97.5 c 128,-1,57
 724 112 724 112 715 133.5 c 128,-1,58
 706 155 706 155 703.5 180.5 c 128,-1,59
 701 206 701 206 701 228 c 0,40,41
626 226 m 256,60,61
 626 185 626 185 634.5 149 c 128,-1,62
 643 113 643 113 662 86.5 c 128,-1,63
 681 60 681 60 712 44.5 c 128,-1,64
 743 29 743 29 788 29 c 0,65,66
 832 29 832 29 862 45.5 c 128,-1,67
 892 62 892 62 911.5 89.5 c 128,-1,68
 931 117 931 117 939.5 153.5 c 128,-1,69
 948 190 948 190 948 229 c 0,70,71
 948 270 948 270 940.5 306.5 c 128,-1,72
 933 343 933 343 914.5 370 c 128,-1,73
 896 397 896 397 865.5 413 c 128,-1,74
 835 429 835 429 788 429 c 0,75,76
 742 429 742 429 711 412.5 c 128,-1,77
 680 396 680 396 661 368 c 128,-1,78
 642 340 642 340 634 303.5 c 128,-1,79
 626 267 626 267 626 226 c 256,60,61
766 762 m 1,80,-1
 228 19 l 1,81,-1
 314 19 l 1,82,-1
 851 762 l 1,83,-1
 766 762 l 1,80,-1
EndSplineSet
EndChar

StartChar: ampersand
Encoding: 38 38 13
Width: 670
VWidth: 1040
Flags: W
LayerCount: 2
Fore
SplineSet
315 479 m 1,0,1
 303 494 303 494 291 509 c 128,-1,2
 279 524 279 524 269 539.5 c 128,-1,3
 259 555 259 555 252.5 571 c 128,-1,4
 246 587 246 587 246 603 c 0,5,6
 246 642 246 642 272 660.5 c 128,-1,7
 298 679 298 679 328 679 c 0,8,9
 366 679 366 679 388 656.5 c 128,-1,10
 410 634 410 634 410 603 c 0,11,12
 410 580 410 580 401 561.5 c 128,-1,13
 392 543 392 543 378 528 c 128,-1,14
 364 513 364 513 347 501 c 128,-1,15
 330 489 330 489 315 479 c 1,0,1
498 129 m 1,16,-1
 574 40 l 1,17,-1
 685 40 l 1,18,-1
 546 201 l 1,19,20
 557 225 557 225 565 243.5 c 128,-1,21
 573 262 573 262 578.5 281 c 128,-1,22
 584 300 584 300 587.5 322.5 c 128,-1,23
 591 345 591 345 594 377 c 1,24,-1
 513 377 l 1,25,26
 510 322 510 322 490 266 c 1,27,-1
 361 423 l 1,28,29
 387 438 387 438 411 456.5 c 128,-1,30
 435 475 435 475 454 498 c 128,-1,31
 473 521 473 521 484 548.5 c 128,-1,32
 495 576 495 576 495 608 c 0,33,34
 495 644 495 644 480.5 671.5 c 128,-1,35
 466 699 466 699 442 717.5 c 128,-1,36
 418 736 418 736 386.5 745 c 128,-1,37
 355 754 355 754 322 754 c 0,38,39
 283 754 283 754 253 742 c 128,-1,40
 223 730 223 730 202.5 709.5 c 128,-1,41
 182 689 182 689 171.5 662.5 c 128,-1,42
 161 636 161 636 161 607 c 0,43,44
 161 580 161 580 167.5 558.5 c 128,-1,45
 174 537 174 537 185.5 517.5 c 128,-1,46
 197 498 197 498 211 479 c 128,-1,47
 225 460 225 460 240 439 c 1,48,49
 206 421 206 421 175.5 400.5 c 128,-1,50
 145 380 145 380 122.5 354.5 c 128,-1,51
 100 329 100 329 86.5 297 c 128,-1,52
 73 265 73 265 73 223 c 0,53,54
 73 201 73 201 80.5 168 c 128,-1,55
 88 135 88 135 112 104 c 128,-1,56
 136 73 136 73 180 51 c 128,-1,57
 224 29 224 29 296 29 c 0,58,59
 355 29 355 29 410.5 54 c 128,-1,60
 466 79 466 79 498 129 c 1,16,-1
287 385 m 1,61,-1
 451 188 l 1,62,63
 425 149 425 149 386.5 126 c 128,-1,64
 348 103 348 103 299 103 c 0,65,66
 273 103 273 103 248.5 112 c 128,-1,67
 224 121 224 121 205 136.5 c 128,-1,68
 186 152 186 152 174.5 174.5 c 128,-1,69
 163 197 163 197 163 224 c 0,70,71
 163 256 163 256 173 279.5 c 128,-1,72
 183 303 183 303 200 322 c 128,-1,73
 217 341 217 341 239.5 356 c 128,-1,74
 262 371 262 371 287 385 c 1,61,-1
EndSplineSet
EndChar

StartChar: quotesingle
Encoding: 39 39 14
Width: 318
VWidth: 1040
Flags: W
LayerCount: 2
Fore
SplineSet
145 754 m 1,0,-1
 145 496 l 1,1,-1
 213 496 l 1,2,-1
 213 754 l 1,3,-1
 145 754 l 1,0,-1
EndSplineSet
EndChar

StartChar: parenleft
Encoding: 40 40 15
Width: 299
VWidth: 1040
Flags: W
LayerCount: 2
Fore
SplineSet
244 -157 m 1,0,-1
 309 -157 l 1,1,2
 238 -42 238 -42 207.5 71 c 128,-1,3
 177 184 177 184 177 310 c 0,4,5
 177 433 177 433 207 545 c 128,-1,6
 237 657 237 657 309 771 c 1,7,-1
 244 771 l 1,8,9
 166 668 166 668 126.5 548 c 128,-1,10
 87 428 87 428 87 310 c 0,11,12
 87 244 87 244 98 184 c 128,-1,13
 109 124 109 124 129.5 67 c 128,-1,14
 150 10 150 10 179 -45.5 c 128,-1,15
 208 -101 208 -101 244 -157 c 1,0,-1
EndSplineSet
EndChar

StartChar: parenright
Encoding: 41 41 16
Width: 299
VWidth: 1040
Flags: W
LayerCount: 2
Fore
SplineSet
31 -157 m 1,0,-1
 95 -157 l 1,1,2
 173 -54 173 -54 212.5 65.5 c 128,-1,3
 252 185 252 185 252 303 c 0,4,5
 252 369 252 369 241 429 c 128,-1,6
 230 489 230 489 209.5 546.5 c 128,-1,7
 189 604 189 604 160 659.5 c 128,-1,8
 131 715 131 715 95 771 c 1,9,-1
 31 771 l 1,10,11
 101 656 101 656 131.5 542.5 c 128,-1,12
 162 429 162 429 162 303 c 0,13,14
 162 181 162 181 132 68.5 c 128,-1,15
 102 -44 102 -44 31 -157 c 1,0,-1
EndSplineSet
EndChar

StartChar: asterisk
Encoding: 42 42 17
Width: 392
VWidth: 1040
Flags: W
LayerCount: 2
Fore
SplineSet
241 641 m 1,0,-1
 241 754 l 1,1,-1
 188 754 l 1,2,-1
 188 641 l 1,3,-1
 82 681 l 1,4,-1
 64 633 l 1,5,-1
 170 595 l 1,6,-1
 105 504 l 1,7,-1
 150 473 l 1,8,-1
 215 569 l 1,9,-1
 284 473 l 1,10,-1
 325 504 l 1,11,-1
 259 595 l 1,12,-1
 368 633 l 1,13,-1
 348 681 l 1,14,-1
 241 641 l 1,0,-1
EndSplineSet
EndChar

StartChar: plus
Encoding: 43 43 18
Width: 640
VWidth: 1040
Flags: W
LayerCount: 2
Fore
SplineSet
374 327 m 1,0,-1
 374 546 l 1,1,-1
 306 546 l 1,2,-1
 306 327 l 1,3,-1
 88 327 l 1,4,-1
 88 259 l 1,5,-1
 306 259 l 1,6,-1
 306 40 l 1,7,-1
 374 40 l 1,8,-1
 374 259 l 1,9,-1
 592 259 l 1,10,-1
 592 327 l 1,11,-1
 374 327 l 1,0,-1
EndSplineSet
EndChar

StartChar: comma
Encoding: 44 44 19
Width: 318
VWidth: 1040
Flags: W
LayerCount: 2
Fore
SplineSet
123 151 m 1,0,-1
 123 40 l 1,1,-1
 182 40 l 1,2,3
 183 28 183 28 180.5 14 c 128,-1,4
 178 0 178 0 171 -13.5 c 128,-1,5
 164 -27 164 -27 152.5 -38.5 c 128,-1,6
 141 -50 141 -50 124 -56 c 1,7,-1
 124 -106 l 1,8,9
 182 -89 182 -89 208 -48 c 128,-1,10
 234 -7 234 -7 234 50 c 2,11,-1
 234 151 l 1,12,-1
 123 151 l 1,0,-1
EndSplineSet
EndChar

StartChar: hyphen
Encoding: 45 45 20
Width: 429
VWidth: 1040
Flags: W
LayerCount: 2
Fore
SplineSet
90 358 m 1,0,-1
 90 278 l 1,1,-1
 379 278 l 1,2,-1
 379 358 l 1,3,-1
 90 358 l 1,0,-1
EndSplineSet
EndChar

StartChar: period
Encoding: 46 46 21
Width: 318
VWidth: 1040
Flags: W
LayerCount: 2
Fore
SplineSet
123 151 m 1,0,-1
 123 40 l 1,1,-1
 234 40 l 1,2,-1
 234 151 l 1,3,-1
 123 151 l 1,0,-1
EndSplineSet
EndChar

StartChar: slash
Encoding: 47 47 22
Width: 373
VWidth: 1040
Flags: W
LayerCount: 2
Fore
SplineSet
318 771 m 1,0,-1
 23 24 l 1,1,-1
 95 24 l 1,2,-1
 391 771 l 1,3,-1
 318 771 l 1,0,-1
EndSplineSet
EndChar

StartChar: zero
Encoding: 48 48 23
Width: 596
VWidth: 1040
Flags: W
LayerCount: 2
Fore
SplineSet
172 389 m 0,0,1
 172 415 172 415 172.5 446.5 c 128,-1,2
 173 478 173 478 177.5 509.5 c 128,-1,3
 182 541 182 541 190.5 571 c 128,-1,4
 199 601 199 601 215.5 623.5 c 128,-1,5
 232 646 232 646 257 660 c 128,-1,6
 282 674 282 674 318 674 c 256,7,8
 354 674 354 674 379 660 c 128,-1,9
 404 646 404 646 420.5 623.5 c 128,-1,10
 437 601 437 601 445.5 571 c 128,-1,11
 454 541 454 541 458.5 509.5 c 128,-1,12
 463 478 463 478 463.5 446.5 c 128,-1,13
 464 415 464 415 464 389 c 0,14,15
 464 349 464 349 461.5 299.5 c 128,-1,16
 459 250 459 250 445.5 206.5 c 128,-1,17
 432 163 432 163 402 133 c 128,-1,18
 372 103 372 103 318 103 c 256,19,20
 264 103 264 103 234 133 c 128,-1,21
 204 163 204 163 190.5 206.5 c 128,-1,22
 177 250 177 250 174.5 299.5 c 128,-1,23
 172 349 172 349 172 389 c 0,0,1
82 388 m 256,24,25
 82 349 82 349 84 307 c 128,-1,26
 86 265 86 265 94 225 c 128,-1,27
 102 185 102 185 117 149.5 c 128,-1,28
 132 114 132 114 158 87 c 128,-1,29
 184 60 184 60 223.5 44.5 c 128,-1,30
 263 29 263 29 318 29 c 0,31,32
 374 29 374 29 413 44.5 c 128,-1,33
 452 60 452 60 478 87 c 128,-1,34
 504 114 504 114 519 149.5 c 128,-1,35
 534 185 534 185 542 225 c 128,-1,36
 550 265 550 265 552 307 c 128,-1,37
 554 349 554 349 554 388 c 256,38,39
 554 427 554 427 552 469 c 128,-1,40
 550 511 550 511 542 551 c 128,-1,41
 534 591 534 591 519 627 c 128,-1,42
 504 663 504 663 478 690 c 128,-1,43
 452 717 452 717 412.5 733 c 128,-1,44
 373 749 373 749 318 749 c 256,45,46
 263 749 263 749 223.5 733 c 128,-1,47
 184 717 184 717 158 690 c 128,-1,48
 132 663 132 663 117 627 c 128,-1,49
 102 591 102 591 94 551 c 128,-1,50
 86 511 86 511 84 469 c 128,-1,51
 82 427 82 427 82 388 c 256,24,25
EndSplineSet
EndChar

StartChar: one
Encoding: 49 49 24
Width: 596
VWidth: 1040
Flags: W
LayerCount: 2
Fore
SplineSet
396 40 m 1,0,-1
 396 749 l 1,1,-1
 331 749 l 1,2,3
 324 709 324 709 305 683 c 128,-1,4
 286 657 286 657 258.5 642 c 128,-1,5
 231 627 231 627 197 621.5 c 128,-1,6
 163 616 163 616 127 616 c 1,7,-1
 127 548 l 1,8,-1
 311 548 l 1,9,-1
 311 40 l 1,10,-1
 396 40 l 1,0,-1
EndSplineSet
EndChar

StartChar: two
Encoding: 50 50 25
Width: 596
VWidth: 1040
Flags: W
LayerCount: 2
Fore
SplineSet
84 498 m 1,0,-1
 169 498 l 1,1,2
 168 530 168 530 175.5 561.5 c 128,-1,3
 183 593 183 593 200 618 c 128,-1,4
 217 643 217 643 243.5 658.5 c 128,-1,5
 270 674 270 674 307 674 c 0,6,7
 335 674 335 674 360 665 c 128,-1,8
 385 656 385 656 403.5 639 c 128,-1,9
 422 622 422 622 433 598.5 c 128,-1,10
 444 575 444 575 444 546 c 0,11,12
 444 509 444 509 432.5 481 c 128,-1,13
 421 453 421 453 398.5 429 c 128,-1,14
 376 405 376 405 342 381.5 c 128,-1,15
 308 358 308 358 263 330 c 0,16,17
 226 308 226 308 192 283 c 128,-1,18
 158 258 158 258 131 225 c 128,-1,19
 104 192 104 192 86.5 147.5 c 128,-1,20
 69 103 69 103 64 40 c 1,21,-1
 527 40 l 1,22,-1
 527 115 l 1,23,-1
 163 115 l 1,24,25
 169 148 169 148 188.5 173.5 c 128,-1,26
 208 199 208 199 235.5 221 c 128,-1,27
 263 243 263 243 296 262.5 c 128,-1,28
 329 282 329 282 362 302 c 0,29,30
 395 323 395 323 426 346 c 128,-1,31
 457 369 457 369 481 397.5 c 128,-1,32
 505 426 505 426 519.5 462 c 128,-1,33
 534 498 534 498 534 545 c 0,34,35
 534 595 534 595 516.5 633 c 128,-1,36
 499 671 499 671 469 696.5 c 128,-1,37
 439 722 439 722 398.5 735.5 c 128,-1,38
 358 749 358 749 312 749 c 0,39,40
 256 749 256 749 212 730 c 128,-1,41
 168 711 168 711 138.5 677.5 c 128,-1,42
 109 644 109 644 95 598 c 128,-1,43
 81 552 81 552 84 498 c 1,0,-1
EndSplineSet
EndChar

StartChar: three
Encoding: 51 51 26
Width: 596
VWidth: 1040
Flags: W
LayerCount: 2
Fore
SplineSet
258 445 m 1,0,-1
 258 373 l 1,1,2
 282 376 282 376 309 376 c 0,3,4
 341 376 341 376 368.5 367.5 c 128,-1,5
 396 359 396 359 416 341.5 c 128,-1,6
 436 324 436 324 448 298.5 c 128,-1,7
 460 273 460 273 460 240 c 0,8,9
 460 208 460 208 447.5 182.5 c 128,-1,10
 435 157 435 157 414 139.5 c 128,-1,11
 393 122 393 122 365 112.5 c 128,-1,12
 337 103 337 103 306 103 c 0,13,14
 233 103 233 103 195 146.5 c 128,-1,15
 157 190 157 190 155 259 c 1,16,-1
 70 259 l 1,17,18
 69 204 69 204 85.5 161 c 128,-1,19
 102 118 102 118 133 88.5 c 128,-1,20
 164 59 164 59 208 44 c 128,-1,21
 252 29 252 29 306 29 c 0,22,23
 356 29 356 29 400.5 42.5 c 128,-1,24
 445 56 445 56 478 83 c 128,-1,25
 511 110 511 110 530.5 150.5 c 128,-1,26
 550 191 550 191 550 244 c 0,27,28
 550 308 550 308 518.5 355 c 128,-1,29
 487 402 487 402 422 416 c 1,30,-1
 422 418 l 1,31,32
 464 437 464 437 492 474 c 128,-1,33
 520 511 520 511 520 559 c 0,34,35
 520 608 520 608 503.5 644 c 128,-1,36
 487 680 487 680 458 703 c 128,-1,37
 429 726 429 726 389.5 737.5 c 128,-1,38
 350 749 350 749 304 749 c 0,39,40
 251 749 251 749 210.5 732 c 128,-1,41
 170 715 170 715 143 685 c 128,-1,42
 116 655 116 655 101.5 613 c 128,-1,43
 87 571 87 571 85 520 c 1,44,-1
 170 520 l 1,45,46
 170 551 170 551 178 579 c 128,-1,47
 186 607 186 607 202.5 628 c 128,-1,48
 219 649 219 649 244.5 661.5 c 128,-1,49
 270 674 270 674 304 674 c 0,50,51
 358 674 358 674 394 645.5 c 128,-1,52
 430 617 430 617 430 560 c 0,53,54
 430 532 430 532 419 510 c 128,-1,55
 408 488 408 488 389.5 473.5 c 128,-1,56
 371 459 371 459 346.5 451.5 c 128,-1,57
 322 444 322 444 295 444 c 2,58,-1
 277 444 l 2,59,60
 272 444 272 444 267 444 c 0,61,62
 263 444 263 444 258 445 c 1,0,-1
EndSplineSet
EndChar

StartChar: four
Encoding: 52 52 27
Width: 596
VWidth: 1040
Flags: W
LayerCount: 2
Fore
SplineSet
379 281 m 1,0,-1
 141 281 l 1,1,-1
 377 628 l 1,2,-1
 379 628 l 1,3,-1
 379 281 l 1,0,-1
459 281 m 1,4,-1
 459 749 l 1,5,-1
 391 749 l 1,6,-1
 68 288 l 1,7,-1
 68 206 l 1,8,-1
 379 206 l 1,9,-1
 379 40 l 1,10,-1
 459 40 l 1,11,-1
 459 206 l 1,12,-1
 555 206 l 1,13,-1
 555 281 l 1,14,-1
 459 281 l 1,4,-1
EndSplineSet
EndChar

StartChar: five
Encoding: 53 53 28
Width: 596
VWidth: 1040
Flags: W
LayerCount: 2
Fore
SplineSet
510 662 m 1,0,-1
 510 737 l 1,1,-1
 160 737 l 1,2,-1
 94 369 l 1,3,-1
 167 365 l 1,4,5
 192 395 192 395 224.5 413.5 c 128,-1,6
 257 432 257 432 299 432 c 0,7,8
 335 432 335 432 364.5 420 c 128,-1,9
 394 408 394 408 415 386.5 c 128,-1,10
 436 365 436 365 447.5 335.5 c 128,-1,11
 459 306 459 306 459 271 c 0,12,13
 459 229 459 229 447 197.5 c 128,-1,14
 435 166 435 166 414.5 145 c 128,-1,15
 394 124 394 124 366.5 113.5 c 128,-1,16
 339 103 339 103 309 103 c 0,17,18
 277 103 277 103 250.5 112.5 c 128,-1,19
 224 122 224 122 204.5 139.5 c 128,-1,20
 185 157 185 157 173.5 180.5 c 128,-1,21
 162 204 162 204 160 231 c 1,22,-1
 75 231 l 1,23,24
 76 183 76 183 94 145 c 128,-1,25
 112 107 112 107 143 81.5 c 128,-1,26
 174 56 174 56 214.5 42.5 c 128,-1,27
 255 29 255 29 301 29 c 0,28,29
 363 29 363 29 409.5 48.5 c 128,-1,30
 456 68 456 68 487 101 c 128,-1,31
 518 134 518 134 533.5 176.5 c 128,-1,32
 549 219 549 219 549 264 c 0,33,34
 549 325 549 325 531 370.5 c 128,-1,35
 513 416 513 416 482 446.5 c 128,-1,36
 451 477 451 477 409 492 c 128,-1,37
 367 507 367 507 320 507 c 0,38,39
 284 507 284 507 247.5 494.5 c 128,-1,40
 211 482 211 482 188 456 c 1,41,-1
 186 458 l 1,42,-1
 224 662 l 1,43,-1
 510 662 l 1,0,-1
EndSplineSet
EndChar

StartChar: six
Encoding: 54 54 29
Width: 596
VWidth: 1040
Flags: W
LayerCount: 2
Fore
SplineSet
454 568 m 1,0,-1
 539 568 l 1,1,2
 531 656 531 656 479 702.5 c 128,-1,3
 427 749 427 749 339 749 c 0,4,5
 263 749 263 749 213 717 c 128,-1,6
 163 685 163 685 133 632 c 128,-1,7
 103 579 103 579 90.5 510.5 c 128,-1,8
 78 442 78 442 78 369 c 0,9,10
 78 313 78 313 86.5 253 c 128,-1,11
 95 193 95 193 121 143 c 128,-1,12
 147 93 147 93 195 61 c 128,-1,13
 243 29 243 29 322 29 c 0,14,15
 389 29 389 29 434.5 51.5 c 128,-1,16
 480 74 480 74 507.5 108.5 c 128,-1,17
 535 143 535 143 547 185 c 128,-1,18
 559 227 559 227 559 266 c 0,19,20
 559 315 559 315 544 357 c 128,-1,21
 529 399 529 399 501.5 430 c 128,-1,22
 474 461 474 461 433.5 478.5 c 128,-1,23
 393 496 393 496 342 496 c 0,24,25
 284 496 284 496 239.5 474 c 128,-1,26
 195 452 195 452 165 403 c 1,27,-1
 163 405 l 1,28,29
 164 446 164 446 171 493 c 128,-1,30
 178 540 178 540 196.5 580.5 c 128,-1,31
 215 621 215 621 248 647.5 c 128,-1,32
 281 674 281 674 335 674 c 0,33,34
 386 674 386 674 417 645 c 128,-1,35
 448 616 448 616 454 568 c 1,0,-1
326 421 m 256,36,37
 362 421 362 421 389 408 c 128,-1,38
 416 395 416 395 434 373.5 c 128,-1,39
 452 352 452 352 460.5 322.5 c 128,-1,40
 469 293 469 293 469 260 c 0,41,42
 469 229 469 229 459.5 200.5 c 128,-1,43
 450 172 450 172 432 150 c 128,-1,44
 414 128 414 128 387.5 115.5 c 128,-1,45
 361 103 361 103 326 103 c 256,46,47
 291 103 291 103 263.5 115.5 c 128,-1,48
 236 128 236 128 217.5 149 c 128,-1,49
 199 170 199 170 189 199 c 128,-1,50
 179 228 179 228 179 261 c 256,51,52
 179 294 179 294 188.5 323.5 c 128,-1,53
 198 353 198 353 217 374.5 c 128,-1,54
 236 396 236 396 263 408.5 c 128,-1,55
 290 421 290 421 326 421 c 256,36,37
EndSplineSet
EndChar

StartChar: seven
Encoding: 55 55 30
Width: 596
VWidth: 1040
Flags: W
LayerCount: 2
Fore
SplineSet
549 664 m 1,0,-1
 549 737 l 1,1,-1
 90 737 l 1,2,-1
 90 657 l 1,3,-1
 462 657 l 1,4,5
 406 598 406 598 357.5 528 c 128,-1,6
 309 458 309 458 272 379.5 c 128,-1,7
 235 301 235 301 211.5 215.5 c 128,-1,8
 188 130 188 130 182 40 c 1,9,-1
 277 40 l 1,10,11
 282 123 282 123 305 211 c 128,-1,12
 328 299 328 299 364.5 382 c 128,-1,13
 401 465 401 465 448 538 c 128,-1,14
 495 611 495 611 549 664 c 1,0,-1
EndSplineSet
EndChar

StartChar: eight
Encoding: 56 56 31
Width: 596
VWidth: 1040
Flags: W
LayerCount: 2
Fore
SplineSet
195 565 m 0,0,1
 195 592 195 592 205 612 c 128,-1,2
 215 632 215 632 231.5 646 c 128,-1,3
 248 660 248 660 271 667 c 128,-1,4
 294 674 294 674 319 674 c 0,5,6
 371 674 371 674 404.5 646.5 c 128,-1,7
 438 619 438 619 438 565 c 256,8,9
 438 511 438 511 405 481 c 128,-1,10
 372 451 372 451 321 451 c 0,11,12
 295 451 295 451 272 458 c 128,-1,13
 249 465 249 465 232 479 c 128,-1,14
 215 493 215 493 205 514.5 c 128,-1,15
 195 536 195 536 195 565 c 0,0,1
105 568 m 0,16,17
 105 520 105 520 132 479.5 c 128,-1,18
 159 439 159 439 204 421 c 1,19,20
 144 400 144 400 112 353.5 c 128,-1,21
 80 307 80 307 80 244 c 0,22,23
 80 190 80 190 98.5 149.5 c 128,-1,24
 117 109 117 109 149.5 82 c 128,-1,25
 182 55 182 55 226 42 c 128,-1,26
 270 29 270 29 321 29 c 0,27,28
 370 29 370 29 413 43 c 128,-1,29
 456 57 456 57 487.5 84.5 c 128,-1,30
 519 112 519 112 537.5 152 c 128,-1,31
 556 192 556 192 556 244 c 0,32,33
 556 310 556 310 525 355.5 c 128,-1,34
 494 401 494 401 430 421 c 1,35,36
 475 441 475 441 501.5 480.5 c 128,-1,37
 528 520 528 520 528 568 c 0,38,39
 528 602 528 602 516 634.5 c 128,-1,40
 504 667 504 667 478.5 692.5 c 128,-1,41
 453 718 453 718 412 733.5 c 128,-1,42
 371 749 371 749 313 749 c 0,43,44
 272 749 272 749 234.5 737 c 128,-1,45
 197 725 197 725 168 702 c 128,-1,46
 139 679 139 679 122 645.5 c 128,-1,47
 105 612 105 612 105 568 c 0,16,17
170 240 m 0,48,49
 170 271 170 271 181.5 296 c 128,-1,50
 193 321 193 321 213.5 339 c 128,-1,51
 234 357 234 357 261.5 366.5 c 128,-1,52
 289 376 289 376 320 376 c 0,53,54
 350 376 350 376 376.5 365.5 c 128,-1,55
 403 355 403 355 423 337 c 128,-1,56
 443 319 443 319 454.5 294.5 c 128,-1,57
 466 270 466 270 466 241 c 0,58,59
 466 211 466 211 455.5 186 c 128,-1,60
 445 161 445 161 425.5 142.5 c 128,-1,61
 406 124 406 124 379.5 113.5 c 128,-1,62
 353 103 353 103 321 103 c 0,63,64
 255 103 255 103 212.5 139.5 c 128,-1,65
 170 176 170 176 170 240 c 0,48,49
EndSplineSet
EndChar

StartChar: nine
Encoding: 57 57 32
Width: 596
VWidth: 1040
Flags: W
LayerCount: 2
Fore
SplineSet
174 211 m 1,0,-1
 89 211 l 1,1,2
 97 119 97 119 156 74 c 128,-1,3
 215 29 215 29 304 29 c 0,4,5
 433 29 433 29 491.5 127.5 c 128,-1,6
 550 226 550 226 550 410 c 0,7,8
 550 511 550 511 530.5 576.5 c 128,-1,9
 511 642 511 642 478 680 c 128,-1,10
 445 718 445 718 401 733.5 c 128,-1,11
 357 749 357 749 307 749 c 0,12,13
 256 749 256 749 213 732 c 128,-1,14
 170 715 170 715 139 684.5 c 128,-1,15
 108 654 108 654 91 611.5 c 128,-1,16
 74 569 74 569 74 518 c 0,17,18
 74 466 74 466 88.5 422 c 128,-1,19
 103 378 103 378 131.5 347 c 128,-1,20
 160 316 160 316 202 298.5 c 128,-1,21
 244 281 244 281 298 281 c 0,22,23
 350 281 350 281 394 307.5 c 128,-1,24
 438 334 438 334 462 379 c 1,25,-1
 464 377 l 1,26,27
 460 238 460 238 421 170.5 c 128,-1,28
 382 103 382 103 304 103 c 0,29,30
 253 103 253 103 216 131 c 128,-1,31
 179 159 179 159 174 211 c 1,0,-1
449 512 m 0,32,33
 449 481 449 481 439 452.5 c 128,-1,34
 429 424 429 424 410 402.5 c 128,-1,35
 391 381 391 381 364 368.5 c 128,-1,36
 337 356 337 356 304 356 c 0,37,38
 273 356 273 356 247.5 368.5 c 128,-1,39
 222 381 222 381 203.5 402 c 128,-1,40
 185 423 185 423 174.5 450 c 128,-1,41
 164 477 164 477 164 506 c 0,42,43
 164 539 164 539 171.5 569 c 128,-1,44
 179 599 179 599 195.5 622.5 c 128,-1,45
 212 646 212 646 238.5 660 c 128,-1,46
 265 674 265 674 303 674 c 0,47,48
 339 674 339 674 366 661 c 128,-1,49
 393 648 393 648 411.5 625.5 c 128,-1,50
 430 603 430 603 439.5 574 c 128,-1,51
 449 545 449 545 449 512 c 0,32,33
EndSplineSet
EndChar

StartChar: colon
Encoding: 58 58 33
Width: 318
VWidth: 1040
Flags: W
LayerCount: 2
Fore
SplineSet
234 446 m 1,0,-1
 234 557 l 1,1,-1
 123 557 l 1,2,-1
 123 446 l 1,3,-1
 234 446 l 1,0,-1
123 151 m 1,4,-1
 123 40 l 1,5,-1
 234 40 l 1,6,-1
 234 151 l 1,7,-1
 123 151 l 1,4,-1
EndSplineSet
EndChar

StartChar: semicolon
Encoding: 59 59 34
Width: 318
VWidth: 1040
Flags: W
LayerCount: 2
Fore
SplineSet
234 446 m 1,0,-1
 234 557 l 1,1,-1
 123 557 l 1,2,-1
 123 446 l 1,3,-1
 234 446 l 1,0,-1
123 151 m 1,4,-1
 123 40 l 1,5,-1
 182 40 l 1,6,7
 183 28 183 28 180.5 14 c 128,-1,8
 178 0 178 0 171 -13.5 c 128,-1,9
 164 -27 164 -27 152.5 -38.5 c 128,-1,10
 141 -50 141 -50 124 -56 c 1,11,-1
 124 -106 l 1,12,13
 182 -89 182 -89 208.5 -48 c 128,-1,14
 235 -7 235 -7 234 50 c 2,15,-1
 234 151 l 1,16,-1
 123 151 l 1,4,-1
EndSplineSet
EndChar

StartChar: less
Encoding: 60 60 35
Width: 640
VWidth: 1040
Flags: W
LayerCount: 2
Fore
SplineSet
594 486 m 1,0,-1
 594 554 l 1,1,-1
 86 324 l 1,2,-1
 86 262 l 1,3,-1
 594 33 l 1,4,-1
 594 100 l 1,5,-1
 169 293 l 1,6,-1
 594 486 l 1,0,-1
EndSplineSet
EndChar

StartChar: equal
Encoding: 61 61 36
Width: 640
VWidth: 1040
Flags: W
LayerCount: 2
Fore
SplineSet
88 226 m 1,0,-1
 88 158 l 1,1,-1
 592 158 l 1,2,-1
 592 226 l 1,3,-1
 88 226 l 1,0,-1
592 360 m 1,4,-1
 592 428 l 1,5,-1
 88 428 l 1,6,-1
 88 360 l 1,7,-1
 592 360 l 1,4,-1
EndSplineSet
EndChar

StartChar: greater
Encoding: 62 62 37
Width: 640
VWidth: 1040
Flags: W
LayerCount: 2
Fore
SplineSet
86 100 m 1,0,-1
 86 33 l 1,1,-1
 594 262 l 1,2,-1
 594 324 l 1,3,-1
 86 554 l 1,4,-1
 86 486 l 1,5,-1
 511 293 l 1,6,-1
 86 100 l 1,0,-1
EndSplineSet
EndChar

StartChar: question
Encoding: 63 63 38
Width: 596
VWidth: 1040
Flags: W
LayerCount: 2
Fore
SplineSet
258 151 m 1,0,-1
 258 40 l 1,1,-1
 369 40 l 1,2,-1
 369 151 l 1,3,-1
 258 151 l 1,0,-1
95 531 m 1,4,-1
 180 531 l 1,5,6
 180 566 180 566 188 596 c 128,-1,7
 196 626 196 626 213.5 648 c 128,-1,8
 231 670 231 670 257 683 c 128,-1,9
 283 696 283 696 319 696 c 0,10,11
 373 696 373 696 404.5 665 c 128,-1,12
 436 634 436 634 440 579 c 0,13,14
 442 542 442 542 431 516 c 128,-1,15
 420 490 420 490 401.5 468.5 c 128,-1,16
 383 447 383 447 361.5 427.5 c 128,-1,17
 340 408 340 408 320.5 385 c 128,-1,18
 301 362 301 362 287.5 332.5 c 128,-1,19
 274 303 274 303 272 261 c 2,20,-1
 272 214 l 1,21,-1
 357 214 l 1,22,-1
 357 253 l 2,23,24
 357 279 357 279 364.5 299.5 c 128,-1,25
 372 320 372 320 384.5 337.5 c 128,-1,26
 397 355 397 355 412.5 370.5 c 128,-1,27
 428 386 428 386 444 401 c 0,28,29
 460 417 460 417 475.5 434 c 128,-1,30
 491 451 491 451 503 471 c 128,-1,31
 515 491 515 491 522.5 515.5 c 128,-1,32
 530 540 530 540 530 571 c 0,33,34
 530 619 530 619 514.5 656 c 128,-1,35
 499 693 499 693 471 718.5 c 128,-1,36
 443 744 443 744 404.5 757.5 c 128,-1,37
 366 771 366 771 319 771 c 0,38,39
 267 771 267 771 225 753 c 128,-1,40
 183 735 183 735 154 702.5 c 128,-1,41
 125 670 125 670 109.5 626 c 128,-1,42
 94 582 94 582 95 531 c 1,4,-1
EndSplineSet
EndChar

StartChar: at
Encoding: 64 64 39
Width: 840
VWidth: 1040
Flags: W
LayerCount: 2
Fore
SplineSet
574 310 m 2,0,-1
 658 594 l 1,1,-1
 595 594 l 1,2,-1
 572 531 l 1,3,4
 555 576 555 576 525 594.5 c 128,-1,5
 495 613 495 613 460 613 c 0,6,7
 407 613 407 613 363.5 588 c 128,-1,8
 320 563 320 563 289.5 523 c 128,-1,9
 259 483 259 483 242 432 c 128,-1,10
 225 381 225 381 225 329 c 0,11,12
 225 296 225 296 235.5 267 c 128,-1,13
 246 238 246 238 264.5 217 c 128,-1,14
 283 196 283 196 309.5 183.5 c 128,-1,15
 336 171 336 171 368 171 c 0,16,17
 405 171 405 171 437 191.5 c 128,-1,18
 469 212 469 212 492 238 c 1,19,-1
 495 238 l 1,20,21
 497 205 497 205 515 189 c 128,-1,22
 533 173 533 173 559 173 c 0,23,24
 594 173 594 173 635 194 c 128,-1,25
 676 215 676 215 711 253 c 128,-1,26
 746 291 746 291 769.5 344.5 c 128,-1,27
 793 398 793 398 793 463 c 0,28,29
 793 531 793 531 766 587.5 c 128,-1,30
 739 644 739 644 692.5 684.5 c 128,-1,31
 646 725 646 725 584 748 c 128,-1,32
 522 771 522 771 453 771 c 0,33,34
 377 771 377 771 309.5 742 c 128,-1,35
 242 713 242 713 191.5 662.5 c 128,-1,36
 141 612 141 612 111.5 544.5 c 128,-1,37
 82 477 82 477 82 400 c 0,38,39
 82 320 82 320 111 251.5 c 128,-1,40
 140 183 140 183 190.5 132.5 c 128,-1,41
 241 82 241 82 309.5 53 c 128,-1,42
 378 24 378 24 457 24 c 0,43,44
 505 24 505 24 551 35.5 c 128,-1,45
 597 47 597 47 637.5 69.5 c 128,-1,46
 678 92 678 92 712 124.5 c 128,-1,47
 746 157 746 157 770 199 c 1,48,-1
 707 199 l 1,49,50
 664 144 664 144 597.5 111 c 128,-1,51
 531 78 531 78 459 78 c 0,52,53
 396 78 396 78 340 102.5 c 128,-1,54
 284 127 284 127 241.5 169.5 c 128,-1,55
 199 212 199 212 174.5 270 c 128,-1,56
 150 328 150 328 150 395 c 0,57,58
 150 461 150 461 173.5 519 c 128,-1,59
 197 577 197 577 238 621 c 128,-1,60
 279 665 279 665 334.5 690.5 c 128,-1,61
 390 716 390 716 454 716 c 0,62,63
 507 716 507 716 555.5 698 c 128,-1,64
 604 680 604 680 642 646.5 c 128,-1,65
 680 613 680 613 702.5 565 c 128,-1,66
 725 517 725 517 725 458 c 0,67,68
 725 418 725 418 712 377 c 128,-1,69
 699 336 699 336 679 303 c 128,-1,70
 659 270 659 270 634.5 249 c 128,-1,71
 610 228 610 228 587 228 c 0,72,73
 563 228 563 228 563 259 c 0,74,75
 563 270 563 270 566.5 283.5 c 128,-1,76
 570 297 570 297 574 310 c 2,0,-1
460 545 m 0,77,78
 476 545 476 545 490.5 537 c 128,-1,79
 505 529 505 529 516.5 516.5 c 128,-1,80
 528 504 528 504 534.5 487 c 128,-1,81
 541 470 541 470 541 452 c 0,82,83
 541 421 541 421 529 384 c 128,-1,84
 517 347 517 347 496 314.5 c 128,-1,85
 475 282 475 282 447 260.5 c 128,-1,86
 419 239 419 239 386 239 c 0,87,88
 348 239 348 239 324 266.5 c 128,-1,89
 300 294 300 294 300 336 c 0,90,91
 300 369 300 369 312 405.5 c 128,-1,92
 324 442 324 442 345 473 c 128,-1,93
 366 504 366 504 395.5 524.5 c 128,-1,94
 425 545 425 545 460 545 c 0,77,78
EndSplineSet
EndChar

StartChar: A
Encoding: 65 65 40
Width: 688
VWidth: 1040
Flags: W
LayerCount: 2
Fore
SplineSet
241 335 m 1,0,-1
 362 668 l 1,1,-1
 364 668 l 1,2,-1
 483 335 l 1,3,-1
 241 335 l 1,0,-1
312 754 m 1,4,-1
 34 40 l 1,5,-1
 131 40 l 1,6,-1
 211 255 l 1,7,-1
 513 255 l 1,8,-1
 591 40 l 1,9,-1
 696 40 l 1,10,-1
 417 754 l 1,11,-1
 312 754 l 1,4,-1
EndSplineSet
EndChar

StartChar: B
Encoding: 66 66 41
Width: 725
VWidth: 1040
Flags: W
LayerCount: 2
Fore
SplineSet
213 447 m 1,0,-1
 213 674 l 1,1,-1
 403 674 l 2,2,3
 434 674 434 674 461.5 670.5 c 128,-1,4
 489 667 489 667 510 655 c 128,-1,5
 531 643 531 643 543 621 c 128,-1,6
 555 599 555 599 555 561 c 0,7,8
 555 504 555 504 519.5 475.5 c 128,-1,9
 484 447 484 447 403 447 c 2,10,-1
 213 447 l 1,0,-1
118 754 m 1,11,-1
 118 40 l 1,12,-1
 463 40 l 2,13,14
 516 40 516 40 556.5 57.5 c 128,-1,15
 597 75 597 75 624.5 103.5 c 128,-1,16
 652 132 652 132 666 169 c 128,-1,17
 680 206 680 206 680 245 c 0,18,19
 680 311 680 311 645 357 c 128,-1,20
 610 403 610 403 544 417 c 1,21,-1
 544 419 l 1,22,23
 595 439 595 439 622.5 480.5 c 128,-1,24
 650 522 650 522 650 579 c 0,25,26
 650 633 650 633 625.5 670 c 128,-1,27
 601 707 601 707 566 728 c 0,28,29
 550 738 550 738 527.5 743 c 128,-1,30
 505 748 505 748 479 750.5 c 128,-1,31
 453 753 453 753 426.5 753.5 c 128,-1,32
 400 754 400 754 377 754 c 2,33,-1
 118 754 l 1,11,-1
213 120 m 1,34,-1
 213 367 l 1,35,-1
 430 367 l 2,36,37
 460 367 460 367 488 361.5 c 128,-1,38
 516 356 516 356 537.5 342.5 c 128,-1,39
 559 329 559 329 572 306 c 128,-1,40
 585 283 585 283 585 248 c 0,41,42
 585 188 585 188 549.5 154 c 128,-1,43
 514 120 514 120 451 120 c 2,44,-1
 213 120 l 1,34,-1
EndSplineSet
EndChar

StartChar: C
Encoding: 67 67 42
Width: 762
VWidth: 1040
Flags: W
LayerCount: 2
Fore
SplineSet
620 539 m 1,0,-1
 715 539 l 1,1,2
 707 596 707 596 681 639.5 c 128,-1,3
 655 683 655 683 616 712 c 128,-1,4
 577 741 577 741 527 756 c 128,-1,5
 477 771 477 771 421 771 c 0,6,7
 339 771 339 771 275.5 741.5 c 128,-1,8
 212 712 212 712 169.5 661 c 128,-1,9
 127 610 127 610 105 541.5 c 128,-1,10
 83 473 83 473 83 395 c 256,11,12
 83 317 83 317 103.5 249 c 128,-1,13
 124 181 124 181 165 131 c 128,-1,14
 206 81 206 81 268 52.5 c 128,-1,15
 330 24 330 24 413 24 c 0,16,17
 550 24 550 24 629 99 c 128,-1,18
 708 174 708 174 722 309 c 1,19,-1
 627 309 l 1,20,21
 624 265 624 265 609 227 c 128,-1,22
 594 189 594 189 567.5 161.5 c 128,-1,23
 541 134 541 134 504.5 118.5 c 128,-1,24
 468 103 468 103 421 103 c 0,25,26
 357 103 357 103 311 127 c 128,-1,27
 265 151 265 151 235.5 191.5 c 128,-1,28
 206 232 206 232 192 286.5 c 128,-1,29
 178 341 178 341 178 402 c 0,30,31
 178 458 178 458 192 510 c 128,-1,32
 206 562 206 562 235.5 602.5 c 128,-1,33
 265 643 265 643 310.5 667 c 128,-1,34
 356 691 356 691 420 691 c 0,35,36
 495 691 495 691 549.5 653 c 128,-1,37
 604 615 604 615 620 539 c 1,0,-1
EndSplineSet
EndChar

StartChar: D
Encoding: 68 68 43
Width: 744
VWidth: 1040
Flags: W
LayerCount: 2
Fore
SplineSet
213 120 m 1,0,-1
 213 674 l 1,1,-1
 373 674 l 2,2,3
 439 674 439 674 484 655.5 c 128,-1,4
 529 637 529 637 557.5 601.5 c 128,-1,5
 586 566 586 566 598.5 515.5 c 128,-1,6
 611 465 611 465 611 401 c 0,7,8
 611 335 611 335 597.5 288.5 c 128,-1,9
 584 242 584 242 563 211 c 128,-1,10
 542 180 542 180 515.5 162 c 128,-1,11
 489 144 489 144 462 134.5 c 128,-1,12
 435 125 435 125 411 122.5 c 128,-1,13
 387 120 387 120 371 120 c 2,14,-1
 213 120 l 1,0,-1
118 754 m 1,15,-1
 118 40 l 1,16,-1
 363 40 l 2,17,18
 452 40 452 40 517 65 c 128,-1,19
 582 90 582 90 624 137.5 c 128,-1,20
 666 185 666 185 686 254.5 c 128,-1,21
 706 324 706 324 706 414 c 0,22,23
 706 586 706 586 617 670 c 128,-1,24
 528 754 528 754 363 754 c 2,25,-1
 118 754 l 1,15,-1
EndSplineSet
EndChar

StartChar: E
Encoding: 69 69 44
Width: 651
VWidth: 1040
Flags: W
LayerCount: 2
Fore
SplineSet
118 754 m 1,0,-1
 118 40 l 1,1,-1
 614 40 l 1,2,-1
 614 120 l 1,3,-1
 213 120 l 1,4,-1
 213 367 l 1,5,-1
 584 367 l 1,6,-1
 584 447 l 1,7,-1
 213 447 l 1,8,-1
 213 674 l 1,9,-1
 611 674 l 1,10,-1
 611 754 l 1,11,-1
 118 754 l 1,0,-1
EndSplineSet
EndChar

StartChar: F
Encoding: 70 70 45
Width: 614
VWidth: 1040
Flags: W
LayerCount: 2
Fore
SplineSet
118 754 m 1,0,-1
 118 40 l 1,1,-1
 213 40 l 1,2,-1
 213 367 l 1,3,-1
 541 367 l 1,4,-1
 541 447 l 1,5,-1
 213 447 l 1,6,-1
 213 674 l 1,7,-1
 587 674 l 1,8,-1
 587 754 l 1,9,-1
 118 754 l 1,0,-1
EndSplineSet
EndChar

StartChar: G
Encoding: 71 71 46
Width: 799
VWidth: 1040
Flags: W
LayerCount: 2
Fore
SplineSet
652 129 m 1,0,-1
 677 40 l 1,1,-1
 737 40 l 1,2,-1
 737 416 l 1,3,-1
 424 416 l 1,4,-1
 424 336 l 1,5,-1
 652 336 l 1,6,7
 654 287 654 287 639 244.5 c 128,-1,8
 624 202 624 202 594.5 170.5 c 128,-1,9
 565 139 565 139 522 121 c 128,-1,10
 479 103 479 103 423 103 c 0,11,12
 363 103 363 103 317.5 126.5 c 128,-1,13
 272 150 272 150 241 189.5 c 128,-1,14
 210 229 210 229 194 280.5 c 128,-1,15
 178 332 178 332 178 388 c 0,16,17
 178 445 178 445 192 499.5 c 128,-1,18
 206 554 206 554 235.5 596.5 c 128,-1,19
 265 639 265 639 311.5 665 c 128,-1,20
 358 691 358 691 423 691 c 0,21,22
 463 691 463 691 498.5 681.5 c 128,-1,23
 534 672 534 672 562 653 c 128,-1,24
 590 634 590 634 609 604.5 c 128,-1,25
 628 575 628 575 635 534 c 1,26,-1
 730 534 l 1,27,28
 720 597 720 597 692.5 641.5 c 128,-1,29
 665 686 665 686 624.5 715 c 128,-1,30
 584 744 584 744 532.5 757.5 c 128,-1,31
 481 771 481 771 423 771 c 0,32,33
 338 771 338 771 274.5 739.5 c 128,-1,34
 211 708 211 708 168.5 655 c 128,-1,35
 126 602 126 602 104.5 531.5 c 128,-1,36
 83 461 83 461 83 383 c 0,37,38
 83 313 83 313 106 248 c 128,-1,39
 129 183 129 183 173 133 c 128,-1,40
 217 83 217 83 280 53.5 c 128,-1,41
 343 24 343 24 423 24 c 0,42,43
 486 24 486 24 548 48.5 c 128,-1,44
 610 73 610 73 652 129 c 1,0,-1
EndSplineSet
EndChar

StartChar: H
Encoding: 72 72 47
Width: 762
VWidth: 1040
Flags: W
LayerCount: 2
Fore
SplineSet
118 754 m 1,0,-1
 118 40 l 1,1,-1
 213 40 l 1,2,-1
 213 367 l 1,3,-1
 589 367 l 1,4,-1
 589 40 l 1,5,-1
 684 40 l 1,6,-1
 684 754 l 1,7,-1
 589 754 l 1,8,-1
 589 447 l 1,9,-1
 213 447 l 1,10,-1
 213 754 l 1,11,-1
 118 754 l 1,0,-1
EndSplineSet
EndChar

StartChar: I
Encoding: 73 73 48
Width: 299
VWidth: 1040
Flags: W
LayerCount: 2
Fore
SplineSet
122 754 m 1,0,-1
 122 40 l 1,1,-1
 217 40 l 1,2,-1
 217 754 l 1,3,-1
 122 754 l 1,0,-1
EndSplineSet
EndChar

StartChar: J
Encoding: 74 74 49
Width: 559
VWidth: 1040
Flags: W
LayerCount: 2
Fore
SplineSet
481 218 m 2,0,-1
 481 754 l 1,1,-1
 386 754 l 1,2,-1
 386 232 l 2,3,4
 386 173 386 173 361.5 138 c 128,-1,5
 337 103 337 103 272 103 c 0,6,7
 237 103 237 103 214.5 113.5 c 128,-1,8
 192 124 192 124 179.5 143 c 128,-1,9
 167 162 167 162 162 188 c 128,-1,10
 157 214 157 214 157 245 c 2,11,-1
 157 275 l 1,12,-1
 62 275 l 1,13,-1
 62 231 l 2,14,15
 62 129 62 129 116 76.5 c 128,-1,16
 170 24 170 24 270 24 c 0,17,18
 330 24 330 24 370.5 40.5 c 128,-1,19
 411 57 411 57 435.5 84.5 c 128,-1,20
 460 112 460 112 470.5 147 c 128,-1,21
 481 182 481 182 481 218 c 2,0,-1
EndSplineSet
EndChar

StartChar: K
Encoding: 75 75 50
Width: 707
VWidth: 1040
Flags: W
LayerCount: 2
Fore
SplineSet
118 754 m 1,0,-1
 118 40 l 1,1,-1
 213 40 l 1,2,-1
 213 290 l 1,3,-1
 332 401 l 1,4,-1
 590 40 l 1,5,-1
 710 40 l 1,6,-1
 397 466 l 1,7,-1
 698 754 l 1,8,-1
 575 754 l 1,9,-1
 213 398 l 1,10,-1
 213 754 l 1,11,-1
 118 754 l 1,0,-1
EndSplineSet
EndChar

StartChar: L
Encoding: 76 76 51
Width: 596
VWidth: 1040
Flags: W
LayerCount: 2
Fore
SplineSet
118 754 m 1,0,-1
 118 40 l 1,1,-1
 591 40 l 1,2,-1
 591 120 l 1,3,-1
 213 120 l 1,4,-1
 213 754 l 1,5,-1
 118 754 l 1,0,-1
EndSplineSet
EndChar

StartChar: M
Encoding: 77 77 52
Width: 911
VWidth: 1040
Flags: W
LayerCount: 2
Fore
SplineSet
120 754 m 1,0,-1
 120 40 l 1,1,-1
 210 40 l 1,2,-1
 210 634 l 1,3,-1
 212 634 l 1,4,-1
 435 40 l 1,5,-1
 516 40 l 1,6,-1
 739 634 l 1,7,-1
 741 634 l 1,8,-1
 741 40 l 1,9,-1
 831 40 l 1,10,-1
 831 754 l 1,11,-1
 701 754 l 1,12,-1
 475 154 l 1,13,-1
 250 754 l 1,14,-1
 120 754 l 1,0,-1
EndSplineSet
EndChar

StartChar: N
Encoding: 78 78 53
Width: 762
VWidth: 1040
Flags: W
LayerCount: 2
Fore
SplineSet
117 754 m 1,0,-1
 117 40 l 1,1,-1
 207 40 l 1,2,-1
 207 613 l 1,3,-1
 209 613 l 1,4,-1
 582 40 l 1,5,-1
 686 40 l 1,6,-1
 686 754 l 1,7,-1
 596 754 l 1,8,-1
 596 175 l 1,9,-1
 594 175 l 1,10,-1
 218 754 l 1,11,-1
 117 754 l 1,0,-1
EndSplineSet
EndChar

StartChar: O
Encoding: 79 79 54
Width: 800
VWidth: 1040
Flags: W
LayerCount: 2
Fore
SplineSet
173 397 m 256,0,1
 173 451 173 451 187 503.5 c 128,-1,2
 201 556 201 556 231 598 c 128,-1,3
 261 640 261 640 308 665.5 c 128,-1,4
 355 691 355 691 420 691 c 256,5,6
 485 691 485 691 532 665.5 c 128,-1,7
 579 640 579 640 609 598 c 128,-1,8
 639 556 639 556 653 503.5 c 128,-1,9
 667 451 667 451 667 397 c 256,10,11
 667 343 667 343 653 290.5 c 128,-1,12
 639 238 639 238 609 196 c 128,-1,13
 579 154 579 154 532 128.5 c 128,-1,14
 485 103 485 103 420 103 c 256,15,16
 355 103 355 103 308 128.5 c 128,-1,17
 261 154 261 154 231 196 c 128,-1,18
 201 238 201 238 187 290.5 c 128,-1,19
 173 343 173 343 173 397 c 256,0,1
78 397 m 256,20,21
 78 324 78 324 99.5 256.5 c 128,-1,22
 121 189 121 189 164 137 c 128,-1,23
 207 85 207 85 271 54.5 c 128,-1,24
 335 24 335 24 420 24 c 256,25,26
 505 24 505 24 569 54.5 c 128,-1,27
 633 85 633 85 676 137 c 128,-1,28
 719 189 719 189 740.5 256.5 c 128,-1,29
 762 324 762 324 762 397 c 256,30,31
 762 470 762 470 740.5 537.5 c 128,-1,32
 719 605 719 605 676 657 c 128,-1,33
 633 709 633 709 569 740 c 128,-1,34
 505 771 505 771 420 771 c 256,35,36
 335 771 335 771 271 740 c 128,-1,37
 207 709 207 709 164 657 c 128,-1,38
 121 605 121 605 99.5 537.5 c 128,-1,39
 78 470 78 470 78 397 c 256,20,21
EndSplineSet
EndChar

StartChar: P
Encoding: 80 80 55
Width: 688
VWidth: 1040
Flags: W
LayerCount: 2
Fore
SplineSet
213 412 m 1,0,-1
 213 674 l 1,1,-1
 399 674 l 2,2,3
 480 674 480 674 517.5 640.5 c 128,-1,4
 555 607 555 607 555 543 c 256,5,6
 555 479 555 479 517.5 445 c 128,-1,7
 480 411 480 411 399 412 c 2,8,-1
 213 412 l 1,0,-1
118 754 m 1,9,-1
 118 40 l 1,10,-1
 213 40 l 1,11,-1
 213 332 l 1,12,-1
 431 332 l 2,13,14
 539 331 539 331 594.5 387 c 128,-1,15
 650 443 650 443 650 543 c 256,16,17
 650 643 650 643 594.5 698.5 c 128,-1,18
 539 754 539 754 431 754 c 2,19,-1
 118 754 l 1,9,-1
EndSplineSet
EndChar

StartChar: Q
Encoding: 81 81 56
Width: 800
VWidth: 1040
Flags: W
LayerCount: 2
Fore
SplineSet
490 244 m 1,0,-1
 440 186 l 1,1,-1
 519 123 l 1,2,3
 471 103 471 103 420 103 c 0,4,5
 355 103 355 103 308 128.5 c 128,-1,6
 261 154 261 154 231 196 c 128,-1,7
 201 238 201 238 187 290.5 c 128,-1,8
 173 343 173 343 173 397 c 256,9,10
 173 451 173 451 187 503.5 c 128,-1,11
 201 556 201 556 231 598 c 128,-1,12
 261 640 261 640 308 665.5 c 128,-1,13
 355 691 355 691 420 691 c 256,14,15
 485 691 485 691 532 665.5 c 128,-1,16
 579 640 579 640 609 598 c 128,-1,17
 639 556 639 556 653 503.5 c 128,-1,18
 667 451 667 451 667 397 c 0,19,20
 667 331 667 331 647 270.5 c 128,-1,21
 627 210 627 210 585 168 c 1,22,-1
 490 244 l 1,0,-1
700 -21 m 1,23,-1
 748 39 l 1,24,-1
 654 113 l 1,25,26
 708 167 708 167 735 241 c 128,-1,27
 762 315 762 315 762 397 c 0,28,29
 762 470 762 470 740.5 537.5 c 128,-1,30
 719 605 719 605 676 657 c 128,-1,31
 633 709 633 709 569 740 c 128,-1,32
 505 771 505 771 420 771 c 256,33,34
 335 771 335 771 271 740 c 128,-1,35
 207 709 207 709 164 657 c 128,-1,36
 121 605 121 605 99.5 537.5 c 128,-1,37
 78 470 78 470 78 397 c 256,38,39
 78 324 78 324 99.5 256.5 c 128,-1,40
 121 189 121 189 164 137 c 128,-1,41
 207 85 207 85 271 54.5 c 128,-1,42
 335 24 335 24 420 24 c 0,43,44
 519 24 519 24 591 66 c 1,45,-1
 700 -21 l 1,23,-1
EndSplineSet
EndChar

StartChar: R
Encoding: 82 82 57
Width: 725
VWidth: 1040
Flags: W
LayerCount: 2
Fore
SplineSet
118 754 m 1,0,-1
 118 40 l 1,1,-1
 213 40 l 1,2,-1
 213 345 l 1,3,-1
 445 345 l 2,4,5
 480 345 480 345 501 334.5 c 128,-1,6
 522 324 522 324 535 306.5 c 128,-1,7
 548 289 548 289 554 265.5 c 128,-1,8
 560 242 560 242 564 216 c 0,9,10
 569 190 569 190 570 163 c 128,-1,11
 571 136 571 136 572 112.5 c 128,-1,12
 573 89 573 89 576.5 70 c 128,-1,13
 580 51 580 51 590 40 c 1,14,-1
 696 40 l 1,15,16
 681 58 681 58 673.5 81.5 c 128,-1,17
 666 105 666 105 662 131 c 128,-1,18
 658 157 658 157 657 184 c 128,-1,19
 656 211 656 211 654 237 c 0,20,21
 651 263 651 263 645.5 287 c 128,-1,22
 640 311 640 311 628.5 330.5 c 128,-1,23
 617 350 617 350 597.5 364 c 128,-1,24
 578 378 578 378 547 384 c 1,25,-1
 547 386 l 1,26,27
 612 404 612 404 641.5 453 c 128,-1,28
 671 502 671 502 671 567 c 0,29,30
 671 654 671 654 613.5 704 c 128,-1,31
 556 754 556 754 454 754 c 2,32,-1
 118 754 l 1,0,-1
411 425 m 2,33,-1
 213 425 l 1,34,-1
 213 674 l 1,35,-1
 449 674 l 2,36,37
 516 674 516 674 546 640 c 128,-1,38
 576 606 576 606 576 552 c 0,39,40
 576 513 576 513 562.5 488.5 c 128,-1,41
 549 464 549 464 526.5 449.5 c 128,-1,42
 504 435 504 435 474 430 c 128,-1,43
 444 425 444 425 411 425 c 2,33,-1
EndSplineSet
EndChar

StartChar: S
Encoding: 83 83 58
Width: 688
VWidth: 1040
Flags: W
LayerCount: 2
Fore
SplineSet
531 545 m 1,0,-1
 621 545 l 1,1,2
 619 604 619 604 598.5 646.5 c 128,-1,3
 578 689 578 689 542.5 717 c 128,-1,4
 507 745 507 745 460 758 c 128,-1,5
 413 771 413 771 358 771 c 0,6,7
 309 771 309 771 262.5 758.5 c 128,-1,8
 216 746 216 746 179.5 720.5 c 128,-1,9
 143 695 143 695 121 655.5 c 128,-1,10
 99 616 99 616 99 562 c 0,11,12
 99 513 99 513 118.5 480.5 c 128,-1,13
 138 448 138 448 170.5 427.5 c 128,-1,14
 203 407 203 407 244 394.5 c 128,-1,15
 285 382 285 382 327.5 372.5 c 128,-1,16
 370 363 370 363 411 354 c 128,-1,17
 452 345 452 345 484.5 330.5 c 128,-1,18
 517 316 517 316 536.5 293 c 128,-1,19
 556 270 556 270 556 233 c 0,20,21
 556 194 556 194 540 169 c 128,-1,22
 524 144 524 144 498 129.5 c 128,-1,23
 472 115 472 115 439.5 109 c 128,-1,24
 407 103 407 103 375 103 c 0,25,26
 335 103 335 103 297 113 c 128,-1,27
 259 123 259 123 230.5 144 c 128,-1,28
 202 165 202 165 184.5 197.5 c 128,-1,29
 167 230 167 230 167 275 c 1,30,-1
 77 275 l 1,31,32
 77 210 77 210 100.5 162.5 c 128,-1,33
 124 115 124 115 164.5 84.5 c 128,-1,34
 205 54 205 54 258.5 39 c 128,-1,35
 312 24 312 24 372 24 c 0,36,37
 421 24 421 24 470.5 35.5 c 128,-1,38
 520 47 520 47 560 72.5 c 128,-1,39
 600 98 600 98 625.5 138.5 c 128,-1,40
 651 179 651 179 651 236 c 0,41,42
 651 289 651 289 631.5 324 c 128,-1,43
 612 359 612 359 579.5 382 c 128,-1,44
 547 405 547 405 506 418.5 c 128,-1,45
 465 432 465 432 422.5 442 c 128,-1,46
 380 452 380 452 339 460.5 c 128,-1,47
 298 469 298 469 265.5 482 c 128,-1,48
 233 495 233 495 213.5 515.5 c 128,-1,49
 194 536 194 536 194 569 c 0,50,51
 194 604 194 604 207.5 627.5 c 128,-1,52
 221 651 221 651 243.5 665 c 128,-1,53
 266 679 266 679 295 685 c 128,-1,54
 324 691 324 691 354 691 c 0,55,56
 428 691 428 691 475.5 656.5 c 128,-1,57
 523 622 523 622 531 545 c 1,0,-1
EndSplineSet
EndChar

StartChar: T
Encoding: 84 84 59
Width: 614
VWidth: 1040
Flags: W
LayerCount: 2
Fore
SplineSet
280 674 m 1,0,-1
 280 40 l 1,1,-1
 375 40 l 1,2,-1
 375 674 l 1,3,-1
 613 674 l 1,4,-1
 613 754 l 1,5,-1
 42 754 l 1,6,-1
 42 674 l 1,7,-1
 280 674 l 1,0,-1
EndSplineSet
EndChar

StartChar: U
Encoding: 85 85 60
Width: 762
VWidth: 1040
Flags: W
LayerCount: 2
Fore
SplineSet
688 298 m 2,0,-1
 688 754 l 1,1,-1
 593 754 l 1,2,-1
 593 298 l 2,3,4
 593 202 593 202 545.5 152.5 c 128,-1,5
 498 103 498 103 407 103 c 0,6,7
 311 103 311 103 260 152.5 c 128,-1,8
 209 202 209 202 209 298 c 2,9,-1
 209 754 l 1,10,-1
 114 754 l 1,11,-1
 114 298 l 2,12,13
 114 155 114 155 191.5 89.5 c 128,-1,14
 269 24 269 24 407 24 c 0,15,16
 542 24 542 24 615 92.5 c 128,-1,17
 688 161 688 161 688 298 c 2,0,-1
EndSplineSet
EndChar

StartChar: V
Encoding: 86 86 61
Width: 651
VWidth: 1040
Flags: W
LayerCount: 2
Fore
SplineSet
399 40 m 1,0,-1
 653 754 l 1,1,-1
 554 754 l 1,2,-1
 348 135 l 1,3,-1
 346 135 l 1,4,-1
 142 754 l 1,5,-1
 40 754 l 1,6,-1
 291 40 l 1,7,-1
 399 40 l 1,0,-1
EndSplineSet
EndChar

StartChar: W
Encoding: 87 87 62
Width: 966
VWidth: 1040
Flags: W
LayerCount: 2
Fore
SplineSet
763 40 m 1,0,-1
 954 754 l 1,1,-1
 859 754 l 1,2,-1
 714 160 l 1,3,-1
 712 160 l 1,4,-1
 554 754 l 1,5,-1
 451 754 l 1,6,-1
 291 160 l 1,7,-1
 289 160 l 1,8,-1
 149 754 l 1,9,-1
 52 754 l 1,10,-1
 235 40 l 1,11,-1
 334 40 l 1,12,-1
 499 640 l 1,13,-1
 501 640 l 1,14,-1
 664 40 l 1,15,-1
 763 40 l 1,0,-1
EndSplineSet
EndChar

StartChar: X
Encoding: 88 88 63
Width: 651
VWidth: 1040
Flags: W
LayerCount: 2
Fore
SplineSet
288 407 m 1,0,-1
 40 40 l 1,1,-1
 146 40 l 1,2,-1
 344 335 l 1,3,-1
 536 40 l 1,4,-1
 652 40 l 1,5,-1
 401 407 l 1,6,-1
 637 754 l 1,7,-1
 531 754 l 1,8,-1
 345 475 l 1,9,-1
 167 754 l 1,10,-1
 53 754 l 1,11,-1
 288 407 l 1,0,-1
EndSplineSet
EndChar

StartChar: Y
Encoding: 89 89 64
Width: 688
VWidth: 1040
Flags: W
LayerCount: 2
Fore
SplineSet
413 332 m 1,0,-1
 686 754 l 1,1,-1
 578 754 l 1,2,-1
 369 414 l 1,3,-1
 155 754 l 1,4,-1
 42 754 l 1,5,-1
 318 332 l 1,6,-1
 318 40 l 1,7,-1
 413 40 l 1,8,-1
 413 332 l 1,0,-1
EndSplineSet
EndChar

StartChar: Z
Encoding: 90 90 65
Width: 651
VWidth: 1040
Flags: W
LayerCount: 2
Fore
SplineSet
62 120 m 1,0,-1
 62 40 l 1,1,-1
 630 40 l 1,2,-1
 630 120 l 1,3,-1
 175 120 l 1,4,-1
 618 674 l 1,5,-1
 618 754 l 1,6,-1
 96 754 l 1,7,-1
 96 674 l 1,8,-1
 506 674 l 1,9,-1
 62 120 l 1,0,-1
EndSplineSet
EndChar

StartChar: bracketleft
Encoding: 91 91 66
Width: 299
VWidth: 1040
Flags: W
LayerCount: 2
Fore
SplineSet
299 703 m 1,0,-1
 299 771 l 1,1,-1
 112 771 l 1,2,-1
 112 -157 l 1,3,-1
 299 -157 l 1,4,-1
 299 -89 l 1,5,-1
 192 -89 l 1,6,-1
 192 703 l 1,7,-1
 299 703 l 1,0,-1
EndSplineSet
EndChar

StartChar: backslash
Encoding: 92 92 67
Width: 373
VWidth: 1040
Flags: W
LayerCount: 2
Fore
SplineSet
391 24 m 1,0,-1
 95 771 l 1,1,-1
 23 771 l 1,2,-1
 318 24 l 1,3,-1
 391 24 l 1,0,-1
EndSplineSet
EndChar

StartChar: bracketright
Encoding: 93 93 68
Width: 299
VWidth: 1040
Flags: W
LayerCount: 2
Fore
SplineSet
40 -89 m 1,0,-1
 40 -157 l 1,1,-1
 227 -157 l 1,2,-1
 227 771 l 1,3,-1
 40 771 l 1,4,-1
 40 703 l 1,5,-1
 147 703 l 1,6,-1
 147 -89 l 1,7,-1
 40 -89 l 1,0,-1
EndSplineSet
EndChar

StartChar: asciicircum
Encoding: 94 94 69
Width: 640
VWidth: 1040
Flags: W
LayerCount: 2
Fore
SplineSet
308 737 m 1,0,-1
 90 304 l 1,1,-1
 161 304 l 1,2,-1
 339 664 l 1,3,-1
 520 304 l 1,4,-1
 590 304 l 1,5,-1
 372 737 l 1,6,-1
 308 737 l 1,0,-1
EndSplineSet
EndChar

StartChar: underscore
Encoding: 95 95 70
Width: 540
VWidth: 1040
Flags: W
LayerCount: 2
Fore
SplineSet
40 -34 m 1,0,-1
 40 -84 l 1,1,-1
 540 -84 l 1,2,-1
 540 -34 l 1,3,-1
 40 -34 l 1,0,-1
EndSplineSet
EndChar

StartChar: grave
Encoding: 96 96 71
Width: 262
VWidth: 1040
Flags: W
LayerCount: 2
Fore
SplineSet
18 771 m 1,0,-1
 148 628 l 1,1,-1
 212 628 l 1,2,-1
 126 771 l 1,3,-1
 18 771 l 1,0,-1
EndSplineSet
EndChar

StartChar: a
Encoding: 97 97 72
Width: 577
VWidth: 1040
Flags: W
LayerCount: 2
Fore
SplineSet
562 42 m 1,0,-1
 562 108 l 1,1,2
 547 103 547 103 536 103 c 0,3,4
 516 103 516 103 512.5 117 c 128,-1,5
 509 131 509 131 509 161 c 2,6,-1
 509 427 l 2,7,8
 509 472 509 472 492 500 c 128,-1,9
 475 528 475 528 447 543.5 c 128,-1,10
 419 559 419 559 384.5 564 c 128,-1,11
 350 569 350 569 315 569 c 0,12,13
 272 569 272 569 233 560 c 128,-1,14
 194 551 194 551 164 530.5 c 128,-1,15
 134 510 134 510 116 477 c 128,-1,16
 98 444 98 444 96 396 c 1,17,-1
 181 396 l 1,18,19
 184 453 184 453 220 473.5 c 128,-1,20
 256 494 256 494 310 494 c 0,21,22
 330 494 330 494 350.5 491 c 128,-1,23
 371 488 371 488 387.5 479 c 128,-1,24
 404 470 404 470 414.5 453 c 128,-1,25
 425 436 425 436 425 408 c 0,26,27
 425 384 425 384 411 371.5 c 128,-1,28
 397 359 397 359 373 352.5 c 128,-1,29
 349 346 349 346 317.5 342.5 c 128,-1,30
 286 339 286 339 251 332 c 0,31,32
 218 326 218 326 186.5 317 c 128,-1,33
 155 308 155 308 130.5 290.5 c 128,-1,34
 106 273 106 273 91 245 c 128,-1,35
 76 217 76 217 76 173 c 0,36,37
 76 134 76 134 89.5 106.5 c 128,-1,38
 103 79 103 79 126.5 61.5 c 128,-1,39
 150 44 150 44 181 36.5 c 128,-1,40
 212 29 212 29 247 29 c 0,41,42
 301 29 301 29 347.5 47.5 c 128,-1,43
 394 66 394 66 429 108 c 1,44,45
 429 66 429 66 448.5 47.5 c 128,-1,46
 468 29 468 29 501 29 c 0,47,48
 540 29 540 29 562 42 c 1,0,-1
424 307 m 1,49,-1
 424 220 l 2,50,51
 424 202 424 202 415 181.5 c 128,-1,52
 406 161 406 161 387 143.5 c 128,-1,53
 368 126 368 126 338 114.5 c 128,-1,54
 308 103 308 103 266 103 c 0,55,56
 247 103 247 103 228.5 107 c 128,-1,57
 210 111 210 111 196.5 120 c 128,-1,58
 183 129 183 129 174.5 143.5 c 128,-1,59
 166 158 166 158 166 179 c 0,60,61
 166 211 166 211 180.5 229.5 c 128,-1,62
 195 248 195 248 218 258 c 128,-1,63
 241 268 241 268 270 272.5 c 128,-1,64
 299 277 299 277 327.5 280.5 c 128,-1,65
 356 284 356 284 382 289.5 c 128,-1,66
 408 295 408 295 424 307 c 1,49,-1
EndSplineSet
EndChar

StartChar: b
Encoding: 98 98 73
Width: 633
VWidth: 1040
Flags: W
LayerCount: 2
Fore
SplineSet
107 754 m 1,0,-1
 107 40 l 1,1,-1
 192 40 l 1,2,-1
 192 109 l 1,3,-1
 194 109 l 1,4,5
 208 86 208 86 228.5 70.5 c 128,-1,6
 249 55 249 55 272 46 c 128,-1,7
 295 37 295 37 318.5 33 c 128,-1,8
 342 29 342 29 361 29 c 0,9,10
 420 29 420 29 464.5 50 c 128,-1,11
 509 71 509 71 538.5 107.5 c 128,-1,12
 568 144 568 144 582.5 193 c 128,-1,13
 597 242 597 242 597 297 c 256,14,15
 597 352 597 352 582 401 c 128,-1,16
 567 450 567 450 537.5 487.5 c 128,-1,17
 508 525 508 525 463.5 547 c 128,-1,18
 419 569 419 569 359 569 c 0,19,20
 305 569 305 569 260 549.5 c 128,-1,21
 215 530 215 530 194 487 c 1,22,-1
 192 487 l 1,23,-1
 192 754 l 1,24,-1
 107 754 l 1,0,-1
507 303 m 0,25,26
 507 265 507 265 499 229 c 128,-1,27
 491 193 491 193 473 165 c 128,-1,28
 455 137 455 137 425.5 120 c 128,-1,29
 396 103 396 103 352 103 c 256,30,31
 308 103 308 103 277 119.5 c 128,-1,32
 246 136 246 136 226.5 163 c 128,-1,33
 207 190 207 190 198 225.5 c 128,-1,34
 189 261 189 261 189 299 c 0,35,36
 189 335 189 335 197.5 370 c 128,-1,37
 206 405 206 405 225 432.5 c 128,-1,38
 244 460 244 460 274 477 c 128,-1,39
 304 494 304 494 347 494 c 0,40,41
 388 494 388 494 418.5 478 c 128,-1,42
 449 462 449 462 468.5 435 c 128,-1,43
 488 408 488 408 497.5 373.5 c 128,-1,44
 507 339 507 339 507 303 c 0,25,26
EndSplineSet
EndChar

StartChar: c
Encoding: 99 99 74
Width: 577
VWidth: 1040
Flags: W
LayerCount: 2
Fore
SplineSet
455 391 m 1,0,-1
 543 391 l 1,1,2
 538 437 538 437 519 470.5 c 128,-1,3
 500 504 500 504 470.5 526 c 128,-1,4
 441 548 441 548 402.5 558.5 c 128,-1,5
 364 569 364 569 320 569 c 0,6,7
 259 569 259 569 213 547.5 c 128,-1,8
 167 526 167 526 136.5 488.5 c 128,-1,9
 106 451 106 451 91 400.5 c 128,-1,10
 76 350 76 350 76 292 c 256,11,12
 76 234 76 234 91.5 185.5 c 128,-1,13
 107 137 107 137 137.5 102 c 128,-1,14
 168 67 168 67 213.5 48 c 128,-1,15
 259 29 259 29 318 29 c 0,16,17
 417 29 417 29 474.5 81 c 128,-1,18
 532 133 532 133 546 229 c 1,19,-1
 459 229 l 1,20,21
 451 169 451 169 415.5 136 c 128,-1,22
 380 103 380 103 317 103 c 0,23,24
 277 103 277 103 248 119 c 128,-1,25
 219 135 219 135 201 161.5 c 128,-1,26
 183 188 183 188 174.5 222 c 128,-1,27
 166 256 166 256 166 292 c 0,28,29
 166 331 166 331 174 367.5 c 128,-1,30
 182 404 182 404 200.5 432 c 128,-1,31
 219 460 219 460 250 477 c 128,-1,32
 281 494 281 494 327 494 c 0,33,34
 381 494 381 494 413 467 c 128,-1,35
 445 440 445 440 455 391 c 1,0,-1
EndSplineSet
EndChar

StartChar: d
Encoding: 100 100 75
Width: 633
VWidth: 1040
Flags: W
LayerCount: 2
Fore
SplineSet
166 294 m 0,0,1
 166 332 166 332 174 368 c 128,-1,2
 182 404 182 404 200 432 c 128,-1,3
 218 460 218 460 248 477 c 128,-1,4
 278 494 278 494 321 494 c 0,5,6
 365 494 365 494 396 477.5 c 128,-1,7
 427 461 427 461 446.5 434 c 128,-1,8
 466 407 466 407 475 371.5 c 128,-1,9
 484 336 484 336 484 298 c 0,10,11
 484 262 484 262 475.5 227 c 128,-1,12
 467 192 467 192 448 164.5 c 128,-1,13
 429 137 429 137 399 120 c 128,-1,14
 369 103 369 103 326 103 c 0,15,16
 285 103 285 103 254.5 119 c 128,-1,17
 224 135 224 135 204.5 162 c 128,-1,18
 185 189 185 189 175.5 223.5 c 128,-1,19
 166 258 166 258 166 294 c 0,0,1
566 40 m 1,20,-1
 566 754 l 1,21,-1
 481 754 l 1,22,-1
 481 488 l 1,23,-1
 479 488 l 1,24,25
 465 511 465 511 444.5 526.5 c 128,-1,26
 424 542 424 542 401 551.5 c 128,-1,27
 378 561 378 561 355 565 c 128,-1,28
 332 569 332 569 312 569 c 0,29,30
 253 569 253 569 208.5 547.5 c 128,-1,31
 164 526 164 526 134.5 489.5 c 128,-1,32
 105 453 105 453 90.5 404 c 128,-1,33
 76 355 76 355 76 300 c 256,34,35
 76 245 76 245 91 196 c 128,-1,36
 106 147 106 147 135.5 110 c 128,-1,37
 165 73 165 73 209.5 51 c 128,-1,38
 254 29 254 29 314 29 c 0,39,40
 368 29 368 29 413 48 c 128,-1,41
 458 67 458 67 479 110 c 1,42,-1
 481 110 l 1,43,-1
 481 40 l 1,44,-1
 566 40 l 1,20,-1
EndSplineSet
EndChar

StartChar: e
Encoding: 101 101 76
Width: 577
VWidth: 1040
Flags: W
LayerCount: 2
Fore
SplineSet
463 348 m 1,0,-1
 166 348 l 1,1,2
 168 378 168 378 179 404.5 c 128,-1,3
 190 431 190 431 209 451 c 128,-1,4
 228 471 228 471 254.5 482.5 c 128,-1,5
 281 494 281 494 314 494 c 0,6,7
 346 494 346 494 372.5 482.5 c 128,-1,8
 399 471 399 471 418.5 451.5 c 128,-1,9
 438 432 438 432 449.5 405 c 128,-1,10
 461 378 461 378 463 348 c 1,0,-1
545 204 m 1,11,-1
 461 204 l 1,12,13
 450 153 450 153 415.5 128 c 128,-1,14
 381 103 381 103 327 103 c 0,15,16
 285 103 285 103 254 117 c 128,-1,17
 223 131 223 131 203 154.5 c 128,-1,18
 183 178 183 178 174 208.5 c 128,-1,19
 165 239 165 239 166 273 c 1,20,-1
 553 273 l 1,21,22
 555 320 555 320 544.5 372 c 128,-1,23
 534 424 534 424 506.5 468 c 128,-1,24
 479 512 479 512 433.5 540.5 c 128,-1,25
 388 569 388 569 319 569 c 0,26,27
 266 569 266 569 221.5 549 c 128,-1,28
 177 529 177 529 144.5 493 c 128,-1,29
 112 457 112 457 94 408 c 128,-1,30
 76 359 76 359 76 300 c 0,31,32
 78 241 78 241 93.5 191 c 128,-1,33
 109 141 109 141 140 105 c 128,-1,34
 171 69 171 69 216.5 49 c 128,-1,35
 262 29 262 29 324 29 c 0,36,37
 412 29 412 29 470 73 c 128,-1,38
 528 117 528 117 545 204 c 1,11,-1
EndSplineSet
EndChar

StartChar: f
Encoding: 102 102 77
Width: 336
VWidth: 1040
Flags: W
LayerCount: 2
Fore
SplineSet
139 482 m 1,0,-1
 139 40 l 1,1,-1
 224 40 l 1,2,-1
 224 482 l 1,3,-1
 324 482 l 1,4,-1
 324 557 l 1,5,-1
 224 557 l 1,6,-1
 224 629 l 2,7,8
 224 663 224 663 241 675 c 128,-1,9
 258 687 258 687 289 687 c 0,10,11
 300 687 300 687 313 685.5 c 128,-1,12
 326 684 326 684 337 680 c 1,13,-1
 337 754 l 1,14,15
 325 758 325 758 309.5 760 c 128,-1,16
 294 762 294 762 282 762 c 0,17,18
 212 762 212 762 175.5 729.5 c 128,-1,19
 139 697 139 697 139 634 c 2,20,-1
 139 557 l 1,21,-1
 52 557 l 1,22,-1
 52 482 l 1,23,-1
 139 482 l 1,0,-1
EndSplineSet
EndChar

StartChar: g
Encoding: 103 103 78
Width: 614
VWidth: 1040
Flags: W
LayerCount: 2
Fore
SplineSet
550 84 m 2,0,-1
 550 557 l 1,1,-1
 470 557 l 1,2,-1
 470 483 l 1,3,-1
 469 483 l 1,4,5
 446 526 446 526 405 547.5 c 128,-1,6
 364 569 364 569 315 569 c 0,7,8
 248 569 248 569 202 543.5 c 128,-1,9
 156 518 156 518 128 478.5 c 128,-1,10
 100 439 100 439 88 390.5 c 128,-1,11
 76 342 76 342 76 296 c 0,12,13
 76 243 76 243 90.5 195.5 c 128,-1,14
 105 148 105 148 134 112.5 c 128,-1,15
 163 77 163 77 206 56 c 128,-1,16
 249 35 249 35 307 35 c 0,17,18
 357 35 357 35 401.5 57.5 c 128,-1,19
 446 80 446 80 468 128 c 1,20,-1
 470 128 l 1,21,-1
 470 94 l 2,22,23
 470 51 470 51 461.5 15 c 128,-1,24
 453 -21 453 -21 434 -46.5 c 128,-1,25
 415 -72 415 -72 386 -86.5 c 128,-1,26
 357 -101 357 -101 315 -101 c 0,27,28
 294 -101 294 -101 271 -96.5 c 128,-1,29
 248 -92 248 -92 228.5 -82 c 128,-1,30
 209 -72 209 -72 195.5 -56 c 128,-1,31
 182 -40 182 -40 181 -17 c 1,32,-1
 96 -17 l 1,33,34
 98 -59 98 -59 118 -88 c 128,-1,35
 138 -117 138 -117 168.5 -135 c 128,-1,36
 199 -153 199 -153 236.5 -161 c 128,-1,37
 274 -169 274 -169 310 -169 c 0,38,39
 434 -169 434 -169 492 -106 c 128,-1,40
 550 -43 550 -43 550 84 c 2,0,-1
312 109 m 256,41,42
 270 109 270 109 242 126.5 c 128,-1,43
 214 144 214 144 197 172.5 c 128,-1,44
 180 201 180 201 173 236 c 128,-1,45
 166 271 166 271 166 306 c 0,46,47
 166 343 166 343 174.5 377 c 128,-1,48
 183 411 183 411 201.5 437 c 128,-1,49
 220 463 220 463 249 478.5 c 128,-1,50
 278 494 278 494 319 494 c 0,51,52
 359 494 359 494 387 478 c 128,-1,53
 415 462 415 462 432.5 435.5 c 128,-1,54
 450 409 450 409 458 376 c 128,-1,55
 466 343 466 343 466 309 c 0,56,57
 466 273 466 273 457.5 237 c 128,-1,58
 449 201 449 201 431 172.5 c 128,-1,59
 413 144 413 144 383.5 126.5 c 128,-1,60
 354 109 354 109 312 109 c 256,41,42
EndSplineSet
EndChar

StartChar: h
Encoding: 104 104 79
Width: 596
VWidth: 1040
Flags: W
LayerCount: 2
Fore
SplineSet
104 754 m 1,0,-1
 104 40 l 1,1,-1
 189 40 l 1,2,-1
 189 332 l 2,3,4
 189 367 189 367 198.5 396.5 c 128,-1,5
 208 426 208 426 227 448 c 128,-1,6
 246 470 246 470 274.5 482 c 128,-1,7
 303 494 303 494 342 494 c 0,8,9
 391 494 391 494 419 466 c 128,-1,10
 447 438 447 438 447 390 c 2,11,-1
 447 40 l 1,12,-1
 532 40 l 1,13,-1
 532 380 l 2,14,15
 532 422 532 422 523.5 456.5 c 128,-1,16
 515 491 515 491 494 516 c 128,-1,17
 473 541 473 541 439 555 c 128,-1,18
 405 569 405 569 354 569 c 0,19,20
 331 569 331 569 306.5 564 c 128,-1,21
 282 559 282 559 259.5 548.5 c 128,-1,22
 237 538 237 538 219 521.5 c 128,-1,23
 201 505 201 505 191 481 c 1,24,-1
 189 481 l 1,25,-1
 189 754 l 1,26,-1
 104 754 l 1,0,-1
EndSplineSet
EndChar

StartChar: i
Encoding: 105 105 80
Width: 262
VWidth: 1040
Flags: W
LayerCount: 2
Fore
SplineSet
194 650 m 1,0,-1
 194 754 l 1,1,-1
 109 754 l 1,2,-1
 109 650 l 1,3,-1
 194 650 l 1,0,-1
109 557 m 1,4,-1
 109 40 l 1,5,-1
 194 40 l 1,6,-1
 194 557 l 1,7,-1
 109 557 l 1,4,-1
EndSplineSet
EndChar

StartChar: j
Encoding: 106 106 81
Width: 262
VWidth: 1040
Flags: W
LayerCount: 2
Fore
SplineSet
194 650 m 1,0,-1
 194 754 l 1,1,-1
 109 754 l 1,2,-1
 109 650 l 1,3,-1
 194 650 l 1,0,-1
194 -25 m 2,4,-1
 194 557 l 1,5,-1
 109 557 l 1,6,-1
 109 -11 l 2,7,8
 109 -51 109 -51 99 -66.5 c 128,-1,9
 89 -82 89 -82 61 -82 c 2,10,-1
 43 -82 l 2,11,12
 39 -82 39 -82 35.5 -81.5 c 128,-1,13
 32 -81 32 -81 27 -80 c 1,14,-1
 27 -153 l 1,15,16
 47 -157 47 -157 70 -157 c 0,17,18
 127 -157 127 -157 160.5 -125.5 c 128,-1,19
 194 -94 194 -94 194 -25 c 2,4,-1
EndSplineSet
EndChar

StartChar: k
Encoding: 107 107 82
Width: 559
VWidth: 1040
Flags: W
LayerCount: 2
Fore
SplineSet
109 754 m 1,0,-1
 109 40 l 1,1,-1
 194 40 l 1,2,-1
 194 236 l 1,3,-1
 274 310 l 1,4,-1
 451 40 l 1,5,-1
 559 40 l 1,6,-1
 339 369 l 1,7,-1
 544 557 l 1,8,-1
 430 557 l 1,9,-1
 194 331 l 1,10,-1
 194 754 l 1,11,-1
 109 754 l 1,0,-1
EndSplineSet
EndChar

StartChar: l
Encoding: 108 108 83
Width: 262
VWidth: 1040
Flags: W
LayerCount: 2
Fore
SplineSet
109 754 m 1,0,-1
 109 40 l 1,1,-1
 194 40 l 1,2,-1
 194 754 l 1,3,-1
 109 754 l 1,0,-1
EndSplineSet
EndChar

StartChar: m
Encoding: 109 109 84
Width: 893
VWidth: 1040
Flags: W
LayerCount: 2
Fore
SplineSet
104 557 m 1,0,-1
 104 40 l 1,1,-1
 189 40 l 1,2,-1
 189 362 l 2,3,4
 189 377 189 377 196.5 399.5 c 128,-1,5
 204 422 204 422 220.5 443 c 128,-1,6
 237 464 237 464 263.5 479 c 128,-1,7
 290 494 290 494 327 494 c 0,8,9
 356 494 356 494 374.5 485.5 c 128,-1,10
 393 477 393 477 404 461.5 c 128,-1,11
 415 446 415 446 419.5 425 c 128,-1,12
 424 404 424 404 424 379 c 2,13,-1
 424 40 l 1,14,-1
 509 40 l 1,15,-1
 509 362 l 2,16,17
 509 422 509 422 545 458 c 128,-1,18
 581 494 581 494 644 494 c 0,19,20
 675 494 675 494 694.5 485 c 128,-1,21
 714 476 714 476 725 460.5 c 128,-1,22
 736 445 736 445 740 424 c 128,-1,23
 744 403 744 403 744 379 c 2,24,-1
 744 40 l 1,25,-1
 829 40 l 1,26,-1
 829 419 l 2,27,28
 829 459 829 459 816.5 487.5 c 128,-1,29
 804 516 804 516 781.5 534 c 128,-1,30
 759 552 759 552 727.5 560.5 c 128,-1,31
 696 569 696 569 657 569 c 0,32,33
 606 569 606 569 563.5 546 c 128,-1,34
 521 523 521 523 495 481 c 1,35,36
 479 529 479 529 440 549 c 128,-1,37
 401 569 401 569 353 569 c 0,38,39
 244 569 244 569 186 481 c 1,40,-1
 184 481 l 1,41,-1
 184 557 l 1,42,-1
 104 557 l 1,0,-1
EndSplineSet
EndChar

StartChar: n
Encoding: 110 110 85
Width: 596
VWidth: 1040
Flags: W
LayerCount: 2
Fore
SplineSet
104 557 m 1,0,-1
 104 40 l 1,1,-1
 189 40 l 1,2,-1
 189 332 l 2,3,4
 189 367 189 367 198.5 396.5 c 128,-1,5
 208 426 208 426 227 448 c 128,-1,6
 246 470 246 470 274.5 482 c 128,-1,7
 303 494 303 494 342 494 c 0,8,9
 391 494 391 494 419 466 c 128,-1,10
 447 438 447 438 447 390 c 2,11,-1
 447 40 l 1,12,-1
 532 40 l 1,13,-1
 532 380 l 2,14,15
 532 422 532 422 523.5 456.5 c 128,-1,16
 515 491 515 491 494 516 c 128,-1,17
 473 541 473 541 439 555 c 128,-1,18
 405 569 405 569 354 569 c 0,19,20
 239 569 239 569 186 475 c 1,21,-1
 184 475 l 1,22,-1
 184 557 l 1,23,-1
 104 557 l 1,0,-1
EndSplineSet
EndChar

StartChar: o
Encoding: 111 111 86
Width: 614
VWidth: 1040
Flags: W
LayerCount: 2
Fore
SplineSet
166 298 m 256,0,1
 166 345 166 345 178.5 381.5 c 128,-1,2
 191 418 191 418 213 443 c 128,-1,3
 235 468 235 468 264.5 481 c 128,-1,4
 294 494 294 494 327 494 c 256,5,6
 360 494 360 494 389.5 481 c 128,-1,7
 419 468 419 468 441 443 c 128,-1,8
 463 418 463 418 475.5 381.5 c 128,-1,9
 488 345 488 345 488 298 c 256,10,11
 488 251 488 251 475.5 214.5 c 128,-1,12
 463 178 463 178 441 153.5 c 128,-1,13
 419 129 419 129 389.5 116 c 128,-1,14
 360 103 360 103 327 103 c 256,15,16
 294 103 294 103 264.5 116 c 128,-1,17
 235 129 235 129 213 153.5 c 128,-1,18
 191 178 191 178 178.5 214.5 c 128,-1,19
 166 251 166 251 166 298 c 256,0,1
76 298 m 256,20,21
 76 241 76 241 92 192 c 128,-1,22
 108 143 108 143 140 106.5 c 128,-1,23
 172 70 172 70 219 49.5 c 128,-1,24
 266 29 266 29 327 29 c 0,25,26
 389 29 389 29 435.5 49.5 c 128,-1,27
 482 70 482 70 514 106.5 c 128,-1,28
 546 143 546 143 562 192 c 128,-1,29
 578 241 578 241 578 298 c 256,30,31
 578 355 578 355 562 404.5 c 128,-1,32
 546 454 546 454 514 490.5 c 128,-1,33
 482 527 482 527 435.5 548 c 128,-1,34
 389 569 389 569 327 569 c 0,35,36
 266 569 266 569 219 548 c 128,-1,37
 172 527 172 527 140 490.5 c 128,-1,38
 108 454 108 454 92 404.5 c 128,-1,39
 76 355 76 355 76 298 c 256,20,21
EndSplineSet
EndChar

StartChar: p
Encoding: 112 112 87
Width: 633
VWidth: 1040
Flags: W
LayerCount: 2
Fore
SplineSet
107 557 m 1,0,-1
 107 -157 l 1,1,-1
 192 -157 l 1,2,-1
 192 109 l 1,3,-1
 194 109 l 1,4,5
 208 86 208 86 228.5 70.5 c 128,-1,6
 249 55 249 55 272 46 c 128,-1,7
 295 37 295 37 318.5 33 c 128,-1,8
 342 29 342 29 361 29 c 0,9,10
 420 29 420 29 464.5 50 c 128,-1,11
 509 71 509 71 538.5 107.5 c 128,-1,12
 568 144 568 144 582.5 193 c 128,-1,13
 597 242 597 242 597 297 c 256,14,15
 597 352 597 352 582 401 c 128,-1,16
 567 450 567 450 537.5 487.5 c 128,-1,17
 508 525 508 525 463.5 547 c 128,-1,18
 419 569 419 569 359 569 c 0,19,20
 305 569 305 569 260 549.5 c 128,-1,21
 215 530 215 530 194 487 c 1,22,-1
 192 487 l 1,23,-1
 192 557 l 1,24,-1
 107 557 l 1,0,-1
507 303 m 0,25,26
 507 265 507 265 499 229 c 128,-1,27
 491 193 491 193 473 165 c 128,-1,28
 455 137 455 137 425.5 120 c 128,-1,29
 396 103 396 103 352 103 c 256,30,31
 308 103 308 103 277 119.5 c 128,-1,32
 246 136 246 136 226.5 163 c 128,-1,33
 207 190 207 190 198 225.5 c 128,-1,34
 189 261 189 261 189 299 c 0,35,36
 189 335 189 335 197.5 370 c 128,-1,37
 206 405 206 405 225 432.5 c 128,-1,38
 244 460 244 460 274 477 c 128,-1,39
 304 494 304 494 347 494 c 0,40,41
 388 494 388 494 418.5 478 c 128,-1,42
 449 462 449 462 468.5 435 c 128,-1,43
 488 408 488 408 497.5 373.5 c 128,-1,44
 507 339 507 339 507 303 c 0,25,26
EndSplineSet
EndChar

StartChar: q
Encoding: 113 113 88
Width: 633
VWidth: 1040
Flags: W
LayerCount: 2
Fore
SplineSet
166 294 m 0,0,1
 166 332 166 332 174 368 c 128,-1,2
 182 404 182 404 200 432 c 128,-1,3
 218 460 218 460 248 477 c 128,-1,4
 278 494 278 494 321 494 c 0,5,6
 365 494 365 494 396 477.5 c 128,-1,7
 427 461 427 461 446.5 434 c 128,-1,8
 466 407 466 407 475 371.5 c 128,-1,9
 484 336 484 336 484 298 c 0,10,11
 484 262 484 262 475.5 227 c 128,-1,12
 467 192 467 192 448 164.5 c 128,-1,13
 429 137 429 137 399 120 c 128,-1,14
 369 103 369 103 326 103 c 0,15,16
 285 103 285 103 254.5 119 c 128,-1,17
 224 135 224 135 204.5 162 c 128,-1,18
 185 189 185 189 175.5 223.5 c 128,-1,19
 166 258 166 258 166 294 c 0,0,1
566 -157 m 1,20,-1
 566 557 l 1,21,-1
 481 557 l 1,22,-1
 481 488 l 1,23,-1
 479 488 l 1,24,25
 465 511 465 511 444.5 526.5 c 128,-1,26
 424 542 424 542 401 551.5 c 128,-1,27
 378 561 378 561 355 565 c 128,-1,28
 332 569 332 569 312 569 c 0,29,30
 253 569 253 569 208.5 547.5 c 128,-1,31
 164 526 164 526 134.5 489.5 c 128,-1,32
 105 453 105 453 90.5 404 c 128,-1,33
 76 355 76 355 76 300 c 256,34,35
 76 245 76 245 91 196 c 128,-1,36
 106 147 106 147 135.5 110 c 128,-1,37
 165 73 165 73 209.5 51 c 128,-1,38
 254 29 254 29 314 29 c 0,39,40
 368 29 368 29 413 48 c 128,-1,41
 458 67 458 67 479 110 c 1,42,-1
 481 110 l 1,43,-1
 481 -157 l 1,44,-1
 566 -157 l 1,20,-1
EndSplineSet
EndChar

StartChar: r
Encoding: 114 114 89
Width: 373
VWidth: 1040
Flags: W
LayerCount: 2
Fore
SplineSet
101 557 m 1,0,-1
 101 40 l 1,1,-1
 186 40 l 1,2,-1
 186 270 l 2,3,4
 186 320 186 320 196 358.5 c 128,-1,5
 206 397 206 397 228 424 c 128,-1,6
 250 451 250 451 286 465 c 128,-1,7
 322 479 322 479 373 479 c 1,8,-1
 373 569 l 1,9,10
 304 571 304 571 259 541 c 128,-1,11
 214 511 214 511 183 448 c 1,12,-1
 181 448 l 1,13,-1
 181 557 l 1,14,-1
 101 557 l 1,0,-1
EndSplineSet
EndChar

StartChar: s
Encoding: 115 115 90
Width: 540
VWidth: 1040
Flags: W
LayerCount: 2
Fore
SplineSet
156 203 m 1,0,-1
 71 203 l 1,1,2
 73 155 73 155 91 121.5 c 128,-1,3
 109 88 109 88 139 67.5 c 128,-1,4
 169 47 169 47 208 38 c 128,-1,5
 247 29 247 29 290 29 c 0,6,7
 329 29 329 29 368.5 36.5 c 128,-1,8
 408 44 408 44 439.5 63 c 128,-1,9
 471 82 471 82 490.5 113 c 128,-1,10
 510 144 510 144 510 191 c 0,11,12
 510 228 510 228 495.5 253 c 128,-1,13
 481 278 481 278 457.5 294.5 c 128,-1,14
 434 311 434 311 403.5 321 c 128,-1,15
 373 331 373 331 341 338 c 0,16,17
 311 345 311 345 281 351.5 c 128,-1,18
 251 358 251 358 227 367.5 c 128,-1,19
 203 377 203 377 187.5 391.5 c 128,-1,20
 172 406 172 406 172 428 c 0,21,22
 172 448 172 448 182 460.5 c 128,-1,23
 192 473 192 473 208 480.5 c 128,-1,24
 224 488 224 488 243.5 491 c 128,-1,25
 263 494 263 494 282 494 c 0,26,27
 303 494 303 494 323.5 489.5 c 128,-1,28
 344 485 344 485 361 475 c 128,-1,29
 378 465 378 465 389 448.5 c 128,-1,30
 400 432 400 432 402 407 c 1,31,-1
 487 407 l 1,32,33
 484 454 484 454 467 485.5 c 128,-1,34
 450 517 450 517 421.5 535.5 c 128,-1,35
 393 554 393 554 356 561.5 c 128,-1,36
 319 569 319 569 275 569 c 0,37,38
 241 569 241 569 206.5 560.5 c 128,-1,39
 172 552 172 552 144.5 534.5 c 128,-1,40
 117 517 117 517 99.5 489 c 128,-1,41
 82 461 82 461 82 422 c 0,42,43
 82 372 82 372 107 344 c 128,-1,44
 132 316 132 316 169.5 300.5 c 128,-1,45
 207 285 207 285 251 276.5 c 128,-1,46
 295 268 295 268 332.5 257.5 c 128,-1,47
 370 247 370 247 395 230 c 128,-1,48
 420 213 420 213 420 180 c 0,49,50
 420 156 420 156 408 140.5 c 128,-1,51
 396 125 396 125 377.5 117 c 128,-1,52
 359 109 359 109 337 106 c 128,-1,53
 315 103 315 103 295 103 c 0,54,55
 269 103 269 103 244.5 108 c 128,-1,56
 220 113 220 113 200.5 124.5 c 128,-1,57
 181 136 181 136 169 155.5 c 128,-1,58
 157 175 157 175 156 203 c 1,0,-1
EndSplineSet
EndChar

StartChar: t
Encoding: 116 116 91
Width: 355
VWidth: 1040
Flags: W
LayerCount: 2
Fore
SplineSet
222 557 m 1,0,-1
 222 712 l 1,1,-1
 137 712 l 1,2,-1
 137 557 l 1,3,-1
 49 557 l 1,4,-1
 49 482 l 1,5,-1
 137 482 l 1,6,-1
 137 153 l 2,7,8
 137 117 137 117 144 95 c 128,-1,9
 151 73 151 73 165.5 61 c 128,-1,10
 180 49 180 49 203.5 44.5 c 128,-1,11
 227 40 227 40 260 40 c 2,12,-1
 325 40 l 1,13,-1
 325 115 l 1,14,-1
 286 115 l 2,15,16
 266 115 266 115 253.5 116.5 c 128,-1,17
 241 118 241 118 234 123 c 128,-1,18
 227 128 227 128 224.5 137 c 128,-1,19
 222 146 222 146 222 161 c 2,20,-1
 222 482 l 1,21,-1
 325 482 l 1,22,-1
 325 557 l 1,23,-1
 222 557 l 1,0,-1
EndSplineSet
EndChar

StartChar: u
Encoding: 117 117 92
Width: 596
VWidth: 1040
Flags: W
LayerCount: 2
Fore
SplineSet
532 40 m 1,0,-1
 532 557 l 1,1,-1
 447 557 l 1,2,-1
 447 265 l 2,3,4
 447 230 447 230 437.5 200.5 c 128,-1,5
 428 171 428 171 409 149 c 128,-1,6
 390 127 390 127 361.5 115 c 128,-1,7
 333 103 333 103 294 103 c 0,8,9
 245 103 245 103 217 131 c 128,-1,10
 189 159 189 159 189 207 c 2,11,-1
 189 557 l 1,12,-1
 104 557 l 1,13,-1
 104 217 l 2,14,15
 104 175 104 175 112.5 140.5 c 128,-1,16
 121 106 121 106 142 81 c 128,-1,17
 163 56 163 56 197 42.5 c 128,-1,18
 231 29 231 29 282 29 c 0,19,20
 339 29 339 29 381 51.5 c 128,-1,21
 423 74 423 74 450 122 c 1,22,-1
 452 122 l 1,23,-1
 452 40 l 1,24,-1
 532 40 l 1,0,-1
EndSplineSet
EndChar

StartChar: v
Encoding: 118 118 93
Width: 540
VWidth: 1040
Flags: W
LayerCount: 2
Fore
SplineSet
337 40 m 1,0,-1
 526 557 l 1,1,-1
 437 557 l 1,2,-1
 296 126 l 1,3,-1
 294 126 l 1,4,-1
 149 557 l 1,5,-1
 54 557 l 1,6,-1
 246 40 l 1,7,-1
 337 40 l 1,0,-1
EndSplineSet
EndChar

StartChar: w
Encoding: 119 119 94
Width: 798
VWidth: 1040
Flags: W
LayerCount: 2
Fore
SplineSet
616 40 m 1,0,-1
 781 557 l 1,1,-1
 693 557 l 1,2,-1
 577 134 l 1,3,-1
 575 134 l 1,4,-1
 467 557 l 1,5,-1
 374 557 l 1,6,-1
 270 134 l 1,7,-1
 268 134 l 1,8,-1
 151 557 l 1,9,-1
 57 557 l 1,10,-1
 223 40 l 1,11,-1
 315 40 l 1,12,-1
 419 451 l 1,13,-1
 421 451 l 1,14,-1
 526 40 l 1,15,-1
 616 40 l 1,0,-1
EndSplineSet
EndChar

StartChar: x
Encoding: 120 120 95
Width: 558
VWidth: 1040
Flags: W
LayerCount: 2
Fore
SplineSet
243 312 m 1,0,-1
 49 40 l 1,1,-1
 152 40 l 1,2,-1
 296 254 l 1,3,-1
 440 40 l 1,4,-1
 549 40 l 1,5,-1
 349 319 l 1,6,-1
 527 557 l 1,7,-1
 425 557 l 1,8,-1
 296 376 l 1,9,-1
 172 557 l 1,10,-1
 63 557 l 1,11,-1
 243 312 l 1,0,-1
EndSplineSet
EndChar

StartChar: y
Encoding: 121 121 96
Width: 540
VWidth: 1040
Flags: W
LayerCount: 2
Fore
SplineSet
307 -28 m 2,0,-1
 532 557 l 1,1,-1
 442 557 l 1,2,-1
 297 134 l 1,3,-1
 295 134 l 1,4,-1
 144 557 l 1,5,-1
 48 557 l 1,6,-1
 253 43 l 1,7,-1
 218 -44 l 2,8,9
 206 -67 206 -67 190 -79 c 128,-1,10
 174 -91 174 -91 148 -91 c 0,11,12
 135 -91 135 -91 122.5 -87 c 128,-1,13
 110 -83 110 -83 98 -79 c 1,14,-1
 98 -157 l 1,15,16
 112 -162 112 -162 127 -164 c 128,-1,17
 142 -166 142 -166 157 -166 c 0,18,19
 186 -166 186 -166 207 -158.5 c 128,-1,20
 228 -151 228 -151 245.5 -134.5 c 128,-1,21
 263 -118 263 -118 277.5 -92 c 128,-1,22
 292 -66 292 -66 307 -28 c 2,0,-1
EndSplineSet
EndChar

StartChar: z
Encoding: 122 122 97
Width: 520
VWidth: 1040
Flags: W
LayerCount: 2
Fore
SplineSet
62 105 m 1,0,-1
 62 40 l 1,1,-1
 498 40 l 1,2,-1
 498 115 l 1,3,-1
 168 115 l 1,4,-1
 484 499 l 1,5,-1
 484 557 l 1,6,-1
 82 557 l 1,7,-1
 82 482 l 1,8,-1
 374 482 l 1,9,-1
 62 105 l 1,0,-1
EndSplineSet
EndChar

StartChar: braceleft
Encoding: 123 123 98
Width: 373
VWidth: 1040
Flags: W
LayerCount: 2
Fore
SplineSet
349 711 m 1,0,-1
 349 771 l 1,1,-1
 279 771 l 2,2,3
 260 771 260 771 241 762.5 c 128,-1,4
 222 754 222 754 206.5 737.5 c 128,-1,5
 191 721 191 721 181 696.5 c 128,-1,6
 171 672 171 672 171 640 c 2,7,-1
 171 458 l 2,8,9
 171 432 171 432 164 410 c 128,-1,10
 157 388 157 388 145.5 372.5 c 128,-1,11
 134 357 134 357 119 348.5 c 128,-1,12
 104 340 104 340 88 340 c 1,13,-1
 88 272 l 1,14,15
 104 272 104 272 119 264 c 128,-1,16
 134 256 134 256 145.5 241 c 128,-1,17
 157 226 157 226 164 204 c 128,-1,18
 171 182 171 182 171 155 c 2,19,-1
 171 -26 l 2,20,21
 171 -58 171 -58 181 -82.5 c 128,-1,22
 191 -107 191 -107 206.5 -123.5 c 128,-1,23
 222 -140 222 -140 241 -148.5 c 128,-1,24
 260 -157 260 -157 279 -157 c 2,25,-1
 349 -157 l 1,26,-1
 349 -97 l 1,27,-1
 299 -97 l 2,28,29
 284 -97 284 -97 275 -89.5 c 128,-1,30
 266 -82 266 -82 260.5 -69.5 c 128,-1,31
 255 -57 255 -57 253 -41.5 c 128,-1,32
 251 -26 251 -26 251 -11 c 2,33,-1
 251 171 l 2,34,35
 251 209 251 209 240.5 234 c 128,-1,36
 230 259 230 259 216 274.5 c 128,-1,37
 202 290 202 290 187.5 297 c 128,-1,38
 173 304 173 304 164 305 c 1,39,-1
 164 308 l 1,40,41
 173 310 173 310 187.5 318 c 128,-1,42
 202 326 202 326 216 342 c 128,-1,43
 230 358 230 358 240.5 382.5 c 128,-1,44
 251 407 251 407 251 442 c 2,45,-1
 251 625 l 2,46,47
 251 641 251 641 253 656.5 c 128,-1,48
 255 672 255 672 260.5 684 c 128,-1,49
 266 696 266 696 275 703.5 c 128,-1,50
 284 711 284 711 299 711 c 2,51,-1
 349 711 l 1,0,-1
EndSplineSet
EndChar

StartChar: bar
Encoding: 124 124 99
Width: 262
VWidth: 1040
Flags: W
LayerCount: 2
Fore
SplineSet
117 826 m 1,0,-1
 117 -173 l 1,1,-1
 185 -173 l 1,2,-1
 185 826 l 1,3,-1
 117 826 l 1,0,-1
EndSplineSet
EndChar

StartChar: braceright
Encoding: 125 125 100
Width: 373
VWidth: 1040
Flags: W
LayerCount: 2
Fore
SplineSet
64 -97 m 1,0,-1
 64 -157 l 1,1,-1
 134 -157 l 2,2,3
 153 -157 153 -157 172 -148.5 c 128,-1,4
 191 -140 191 -140 206.5 -123.5 c 128,-1,5
 222 -107 222 -107 232 -82.5 c 128,-1,6
 242 -58 242 -58 242 -26 c 2,7,-1
 242 155 l 2,8,9
 242 181 242 181 249 202.5 c 128,-1,10
 256 224 256 224 267.5 239.5 c 128,-1,11
 279 255 279 255 294 263.5 c 128,-1,12
 309 272 309 272 325 272 c 1,13,-1
 325 340 l 1,14,15
 309 340 309 340 294 348 c 128,-1,16
 279 356 279 356 267.5 371.5 c 128,-1,17
 256 387 256 387 249 409 c 128,-1,18
 242 431 242 431 242 458 c 2,19,-1
 242 640 l 2,20,21
 242 672 242 672 232 696.5 c 128,-1,22
 222 721 222 721 206.5 737.5 c 128,-1,23
 191 754 191 754 172 762.5 c 128,-1,24
 153 771 153 771 134 771 c 2,25,-1
 64 771 l 1,26,-1
 64 711 l 1,27,-1
 114 711 l 2,28,29
 129 711 129 711 138 703.5 c 128,-1,30
 147 696 147 696 152.5 683.5 c 128,-1,31
 158 671 158 671 160 655.5 c 128,-1,32
 162 640 162 640 162 623 c 2,33,-1
 162 442 l 2,34,35
 162 404 162 404 172.5 379 c 128,-1,36
 183 354 183 354 197 338.5 c 128,-1,37
 211 323 211 323 225.5 316 c 128,-1,38
 240 309 240 309 249 308 c 1,39,-1
 249 305 l 1,40,41
 240 303 240 303 225.5 295 c 128,-1,42
 211 287 211 287 197 271 c 128,-1,43
 183 255 183 255 172.5 230.5 c 128,-1,44
 162 206 162 206 162 171 c 2,45,-1
 162 -11 l 2,46,47
 162 -27 162 -27 160 -42.5 c 128,-1,48
 158 -58 158 -58 152.5 -70 c 128,-1,49
 147 -82 147 -82 138 -89.5 c 128,-1,50
 129 -97 129 -97 114 -97 c 2,51,-1
 64 -97 l 1,0,-1
EndSplineSet
EndChar

StartChar: asciitilde
Encoding: 126 126 101
Width: 640
VWidth: 1040
Flags: W
LayerCount: 2
Fore
SplineSet
571 309 m 1,0,-1
 535 359 l 1,1,2
 526 346 526 346 517 332.5 c 128,-1,3
 508 319 508 319 497.5 308 c 128,-1,4
 487 297 487 297 474.5 290 c 128,-1,5
 462 283 462 283 447 283 c 0,6,7
 427 283 427 283 400 297 c 128,-1,8
 373 311 373 311 345 323 c 0,9,10
 316 336 316 336 288 345.5 c 128,-1,11
 260 355 260 355 234 355 c 0,12,13
 209 355 209 355 189.5 347.5 c 128,-1,14
 170 340 170 340 154.5 328 c 128,-1,15
 139 316 139 316 128 300.5 c 128,-1,16
 117 285 117 285 109 269 c 1,17,-1
 145 219 l 1,18,19
 151 232 151 232 158.5 245.5 c 128,-1,20
 166 259 166 259 176.5 270 c 128,-1,21
 187 281 187 281 200 288 c 128,-1,22
 213 295 213 295 229 295 c 0,23,24
 264 295 264 295 292 282.5 c 128,-1,25
 320 270 320 270 344 256 c 0,26,27
 369 242 369 242 393.5 232.5 c 128,-1,28
 418 223 418 223 446 223 c 0,29,30
 469 223 469 223 487.5 230.5 c 128,-1,31
 506 238 506 238 521 250 c 128,-1,32
 536 262 536 262 548 277.5 c 128,-1,33
 560 293 560 293 571 309 c 1,0,-1
EndSplineSet
EndChar

StartChar: Adieresis
Encoding: 196 196 102
Width: 688
VWidth: 1040
Flags: W
LayerCount: 2
Fore
SplineSet
225 913 m 1,0,-1
 225 809 l 1,1,-1
 315 809 l 1,2,-1
 315 913 l 1,3,-1
 225 913 l 1,0,-1
413 913 m 1,4,-1
 413 809 l 1,5,-1
 503 809 l 1,6,-1
 503 913 l 1,7,-1
 413 913 l 1,4,-1
241 335 m 1,8,-1
 362 668 l 1,9,-1
 364 668 l 1,10,-1
 483 335 l 1,11,-1
 241 335 l 1,8,-1
312 754 m 1,12,-1
 34 40 l 1,13,-1
 131 40 l 1,14,-1
 211 255 l 1,15,-1
 513 255 l 1,16,-1
 591 40 l 1,17,-1
 696 40 l 1,18,-1
 417 754 l 1,19,-1
 312 754 l 1,12,-1
EndSplineSet
Ligature2: "<27,0> Canonical Decomposition lookup 0 subtable" A dieresiscmb
EndChar

StartChar: Aring
Encoding: 197 197 103
Width: 688
VWidth: 1040
Flags: W
LayerCount: 2
Fore
SplineSet
251 879 m 256,0,1
 251 856 251 856 260 835.5 c 128,-1,2
 269 815 269 815 284.5 799.5 c 128,-1,3
 300 784 300 784 320.5 775 c 128,-1,4
 341 766 341 766 364 766 c 256,5,6
 387 766 387 766 407.5 775 c 128,-1,7
 428 784 428 784 443.5 799.5 c 128,-1,8
 459 815 459 815 468 835.5 c 128,-1,9
 477 856 477 856 477 879 c 256,10,11
 477 902 477 902 468 922.5 c 128,-1,12
 459 943 459 943 443.5 958.5 c 128,-1,13
 428 974 428 974 407.5 983 c 128,-1,14
 387 992 387 992 364 992 c 256,15,16
 341 992 341 992 320.5 983 c 128,-1,17
 300 974 300 974 284.5 958.5 c 128,-1,18
 269 943 269 943 260 922.5 c 128,-1,19
 251 902 251 902 251 879 c 256,0,1
296 879 m 256,20,21
 296 908 296 908 315.5 927.5 c 128,-1,22
 335 947 335 947 364 947 c 256,23,24
 393 947 393 947 412.5 927.5 c 128,-1,25
 432 908 432 908 432 879 c 256,26,27
 432 850 432 850 412.5 830.5 c 128,-1,28
 393 811 393 811 364 811 c 256,29,30
 335 811 335 811 315.5 830.5 c 128,-1,31
 296 850 296 850 296 879 c 256,20,21
241 335 m 1,32,-1
 362 668 l 1,33,-1
 364 668 l 1,34,-1
 483 335 l 1,35,-1
 241 335 l 1,32,-1
312 754 m 1,36,-1
 34 40 l 1,37,-1
 131 40 l 1,38,-1
 211 255 l 1,39,-1
 513 255 l 1,40,-1
 591 40 l 1,41,-1
 696 40 l 1,42,-1
 417 754 l 1,43,-1
 312 754 l 1,36,-1
EndSplineSet
Ligature2: "<27,0> Canonical Decomposition lookup 0 subtable" A ringcmb
EndChar

StartChar: Ccedilla
Encoding: 199 199 104
Width: 762
VWidth: 1040
Flags: W
LayerCount: 2
Fore
SplineSet
620 539 m 1,0,-1
 715 539 l 1,1,2
 707 596 707 596 681 639.5 c 128,-1,3
 655 683 655 683 616 712 c 128,-1,4
 577 741 577 741 527 756 c 128,-1,5
 477 771 477 771 421 771 c 0,6,7
 339 771 339 771 275.5 741.5 c 128,-1,8
 212 712 212 712 169.5 661 c 128,-1,9
 127 610 127 610 105 541.5 c 128,-1,10
 83 473 83 473 83 395 c 0,11,12
 83 320 83 320 101.5 255.5 c 128,-1,13
 120 191 120 191 156.5 142 c 128,-1,14
 193 93 193 93 249 62.5 c 128,-1,15
 305 32 305 32 380 26 c 1,16,-1
 331 -37 l 1,17,-1
 348 -65 l 1,18,19
 359 -61 359 -61 368 -59 c 128,-1,20
 377 -57 377 -57 389 -57 c 0,21,22
 409 -57 409 -57 422.5 -65.5 c 128,-1,23
 436 -74 436 -74 436 -88 c 0,24,25
 436 -97 436 -97 430 -102.5 c 128,-1,26
 424 -108 424 -108 415 -112 c 128,-1,27
 406 -116 406 -116 395 -117.5 c 128,-1,28
 384 -119 384 -119 374 -119 c 0,29,30
 358 -119 358 -119 341.5 -115 c 128,-1,31
 325 -111 325 -111 313 -106 c 1,32,-1
 295 -150 l 1,33,34
 318 -158 318 -158 340.5 -163.5 c 128,-1,35
 363 -169 363 -169 387 -169 c 0,36,37
 408 -169 408 -169 430 -164.5 c 128,-1,38
 452 -160 452 -160 470 -149.5 c 128,-1,39
 488 -139 488 -139 499.5 -122 c 128,-1,40
 511 -105 511 -105 511 -80 c 0,41,42
 511 -43 511 -43 485 -25 c 128,-1,43
 459 -7 459 -7 427 -7 c 0,44,45
 404 -7 404 -7 394 -14 c 1,46,-1
 392 -12 l 1,47,-1
 421 25 l 1,48,49
 553 27 553 27 630.5 102 c 128,-1,50
 708 177 708 177 722 309 c 1,51,-1
 627 309 l 1,52,53
 624 265 624 265 609 227 c 128,-1,54
 594 189 594 189 567.5 161.5 c 128,-1,55
 541 134 541 134 504.5 118.5 c 128,-1,56
 468 103 468 103 421 103 c 0,57,58
 357 103 357 103 311 127 c 128,-1,59
 265 151 265 151 235.5 191.5 c 128,-1,60
 206 232 206 232 192 286.5 c 128,-1,61
 178 341 178 341 178 402 c 0,62,63
 178 458 178 458 192 510 c 128,-1,64
 206 562 206 562 235.5 602.5 c 128,-1,65
 265 643 265 643 310.5 667 c 128,-1,66
 356 691 356 691 420 691 c 0,67,68
 495 691 495 691 549.5 653 c 128,-1,69
 604 615 604 615 620 539 c 1,0,-1
EndSplineSet
Ligature2: "<27,0> Canonical Decomposition lookup 0 subtable" C cedillacmb
EndChar

StartChar: Eacute
Encoding: 201 201 105
Width: 651
VWidth: 1040
Flags: W
LayerCount: 2
Fore
SplineSet
371 948 m 1,0,-1
 285 805 l 1,1,-1
 349 805 l 1,2,-1
 480 948 l 1,3,-1
 371 948 l 1,0,-1
118 754 m 1,4,-1
 118 40 l 1,5,-1
 614 40 l 1,6,-1
 614 120 l 1,7,-1
 213 120 l 1,8,-1
 213 367 l 1,9,-1
 584 367 l 1,10,-1
 584 447 l 1,11,-1
 213 447 l 1,12,-1
 213 674 l 1,13,-1
 611 674 l 1,14,-1
 611 754 l 1,15,-1
 118 754 l 1,4,-1
EndSplineSet
Ligature2: "<27,0> Canonical Decomposition lookup 0 subtable" E acutecmb
EndChar

StartChar: Ntilde
Encoding: 209 209 106
Width: 762
VWidth: 1040
Flags: W
LayerCount: 2
Fore
SplineSet
575 928 m 1,0,-1
 523 928 l 1,1,2
 518 913 518 913 507.5 898.5 c 128,-1,3
 497 884 497 884 477 884 c 0,4,5
 461 884 461 884 444.5 890.5 c 128,-1,6
 428 897 428 897 411 904.5 c 128,-1,7
 394 912 394 912 375.5 918 c 128,-1,8
 357 924 357 924 337 924 c 0,9,10
 313 924 313 924 296 915 c 128,-1,11
 279 906 279 906 267 891 c 128,-1,12
 255 876 255 876 246.5 856 c 128,-1,13
 238 836 238 836 232 814 c 1,14,-1
 284 814 l 1,15,16
 282 833 282 833 299 844.5 c 128,-1,17
 316 856 316 856 332 856 c 0,18,19
 346 856 346 856 363.5 850 c 128,-1,20
 381 844 381 844 399 837 c 0,21,22
 417 829 417 829 434.5 823 c 128,-1,23
 452 817 452 817 465 817 c 0,24,25
 494 817 494 817 512.5 825.5 c 128,-1,26
 531 834 531 834 544 848 c 0,27,28
 569 883 569 883 575 928 c 1,0,-1
117 754 m 1,29,-1
 117 40 l 1,30,-1
 207 40 l 1,31,-1
 207 613 l 1,32,-1
 209 613 l 1,33,-1
 582 40 l 1,34,-1
 686 40 l 1,35,-1
 686 754 l 1,36,-1
 596 754 l 1,37,-1
 596 175 l 1,38,-1
 594 175 l 1,39,-1
 218 754 l 1,40,-1
 117 754 l 1,29,-1
EndSplineSet
Ligature2: "<27,0> Canonical Decomposition lookup 0 subtable" N tildecmb
EndChar

StartChar: Odieresis
Encoding: 214 214 107
Width: 800
VWidth: 1040
Flags: W
LayerCount: 2
Fore
SplineSet
281 913 m 1,0,-1
 281 809 l 1,1,-1
 371 809 l 1,2,-1
 371 913 l 1,3,-1
 281 913 l 1,0,-1
469 913 m 1,4,-1
 469 809 l 1,5,-1
 559 809 l 1,6,-1
 559 913 l 1,7,-1
 469 913 l 1,4,-1
173 397 m 256,8,9
 173 451 173 451 187 503.5 c 128,-1,10
 201 556 201 556 231 598 c 128,-1,11
 261 640 261 640 308 665.5 c 128,-1,12
 355 691 355 691 420 691 c 256,13,14
 485 691 485 691 532 665.5 c 128,-1,15
 579 640 579 640 609 598 c 128,-1,16
 639 556 639 556 653 503.5 c 128,-1,17
 667 451 667 451 667 397 c 256,18,19
 667 343 667 343 653 290.5 c 128,-1,20
 639 238 639 238 609 196 c 128,-1,21
 579 154 579 154 532 128.5 c 128,-1,22
 485 103 485 103 420 103 c 256,23,24
 355 103 355 103 308 128.5 c 128,-1,25
 261 154 261 154 231 196 c 128,-1,26
 201 238 201 238 187 290.5 c 128,-1,27
 173 343 173 343 173 397 c 256,8,9
78 397 m 256,28,29
 78 324 78 324 99.5 256.5 c 128,-1,30
 121 189 121 189 164 137 c 128,-1,31
 207 85 207 85 271 54.5 c 128,-1,32
 335 24 335 24 420 24 c 256,33,34
 505 24 505 24 569 54.5 c 128,-1,35
 633 85 633 85 676 137 c 128,-1,36
 719 189 719 189 740.5 256.5 c 128,-1,37
 762 324 762 324 762 397 c 256,38,39
 762 470 762 470 740.5 537.5 c 128,-1,40
 719 605 719 605 676 657 c 128,-1,41
 633 709 633 709 569 740 c 128,-1,42
 505 771 505 771 420 771 c 256,43,44
 335 771 335 771 271 740 c 128,-1,45
 207 709 207 709 164 657 c 128,-1,46
 121 605 121 605 99.5 537.5 c 128,-1,47
 78 470 78 470 78 397 c 256,28,29
EndSplineSet
Ligature2: "<27,0> Canonical Decomposition lookup 0 subtable" O dieresiscmb
EndChar

StartChar: Udieresis
Encoding: 220 220 108
Width: 762
VWidth: 1040
Flags: W
LayerCount: 2
Fore
SplineSet
262 913 m 1,0,-1
 262 809 l 1,1,-1
 352 809 l 1,2,-1
 352 913 l 1,3,-1
 262 913 l 1,0,-1
450 913 m 1,4,-1
 450 809 l 1,5,-1
 540 809 l 1,6,-1
 540 913 l 1,7,-1
 450 913 l 1,4,-1
688 298 m 2,8,-1
 688 754 l 1,9,-1
 593 754 l 1,10,-1
 593 298 l 2,11,12
 593 202 593 202 545.5 152.5 c 128,-1,13
 498 103 498 103 407 103 c 0,14,15
 311 103 311 103 260 152.5 c 128,-1,16
 209 202 209 202 209 298 c 2,17,-1
 209 754 l 1,18,-1
 114 754 l 1,19,-1
 114 298 l 2,20,21
 114 155 114 155 191.5 89.5 c 128,-1,22
 269 24 269 24 407 24 c 0,23,24
 542 24 542 24 615 92.5 c 128,-1,25
 688 161 688 161 688 298 c 2,8,-1
EndSplineSet
Ligature2: "<27,0> Canonical Decomposition lookup 0 subtable" U dieresiscmb
EndChar

StartChar: aacute
Encoding: 225 225 109
Width: 577
VWidth: 1040
Flags: W
LayerCount: 2
Fore
SplineSet
334 771 m 1,0,-1
 248 628 l 1,1,-1
 312 628 l 1,2,-1
 443 771 l 1,3,-1
 334 771 l 1,0,-1
562 42 m 1,4,-1
 562 108 l 1,5,6
 547 103 547 103 536 103 c 0,7,8
 516 103 516 103 512.5 117 c 128,-1,9
 509 131 509 131 509 161 c 2,10,-1
 509 427 l 2,11,12
 509 472 509 472 492 500 c 128,-1,13
 475 528 475 528 447 543.5 c 128,-1,14
 419 559 419 559 384.5 564 c 128,-1,15
 350 569 350 569 315 569 c 0,16,17
 272 569 272 569 233 560 c 128,-1,18
 194 551 194 551 164 530.5 c 128,-1,19
 134 510 134 510 116 477 c 128,-1,20
 98 444 98 444 96 396 c 1,21,-1
 181 396 l 1,22,23
 184 453 184 453 220 473.5 c 128,-1,24
 256 494 256 494 310 494 c 0,25,26
 330 494 330 494 350.5 491 c 128,-1,27
 371 488 371 488 387.5 479 c 128,-1,28
 404 470 404 470 414.5 453 c 128,-1,29
 425 436 425 436 425 408 c 0,30,31
 425 384 425 384 411 371.5 c 128,-1,32
 397 359 397 359 373 352.5 c 128,-1,33
 349 346 349 346 317.5 342.5 c 128,-1,34
 286 339 286 339 251 332 c 0,35,36
 218 326 218 326 186.5 317 c 128,-1,37
 155 308 155 308 130.5 290.5 c 128,-1,38
 106 273 106 273 91 245 c 128,-1,39
 76 217 76 217 76 173 c 0,40,41
 76 134 76 134 89.5 106.5 c 128,-1,42
 103 79 103 79 126.5 61.5 c 128,-1,43
 150 44 150 44 181 36.5 c 128,-1,44
 212 29 212 29 247 29 c 0,45,46
 301 29 301 29 347.5 47.5 c 128,-1,47
 394 66 394 66 429 108 c 1,48,49
 429 66 429 66 448.5 47.5 c 128,-1,50
 468 29 468 29 501 29 c 0,51,52
 540 29 540 29 562 42 c 1,4,-1
424 307 m 1,53,-1
 424 220 l 2,54,55
 424 202 424 202 415 181.5 c 128,-1,56
 406 161 406 161 387 143.5 c 128,-1,57
 368 126 368 126 338 114.5 c 128,-1,58
 308 103 308 103 266 103 c 0,59,60
 247 103 247 103 228.5 107 c 128,-1,61
 210 111 210 111 196.5 120 c 128,-1,62
 183 129 183 129 174.5 143.5 c 128,-1,63
 166 158 166 158 166 179 c 0,64,65
 166 211 166 211 180.5 229.5 c 128,-1,66
 195 248 195 248 218 258 c 128,-1,67
 241 268 241 268 270 272.5 c 128,-1,68
 299 277 299 277 327.5 280.5 c 128,-1,69
 356 284 356 284 382 289.5 c 128,-1,70
 408 295 408 295 424 307 c 1,53,-1
EndSplineSet
Ligature2: "<27,0> Canonical Decomposition lookup 0 subtable" a acutecmb
EndChar

StartChar: agrave
Encoding: 224 224 110
Width: 577
VWidth: 1040
Flags: W
LayerCount: 2
Fore
SplineSet
175 771 m 1,0,-1
 306 628 l 1,1,-1
 370 628 l 1,2,-1
 284 771 l 1,3,-1
 175 771 l 1,0,-1
562 42 m 1,4,-1
 562 108 l 1,5,6
 547 103 547 103 536 103 c 0,7,8
 516 103 516 103 512.5 117 c 128,-1,9
 509 131 509 131 509 161 c 2,10,-1
 509 427 l 2,11,12
 509 472 509 472 492 500 c 128,-1,13
 475 528 475 528 447 543.5 c 128,-1,14
 419 559 419 559 384.5 564 c 128,-1,15
 350 569 350 569 315 569 c 0,16,17
 272 569 272 569 233 560 c 128,-1,18
 194 551 194 551 164 530.5 c 128,-1,19
 134 510 134 510 116 477 c 128,-1,20
 98 444 98 444 96 396 c 1,21,-1
 181 396 l 1,22,23
 184 453 184 453 220 473.5 c 128,-1,24
 256 494 256 494 310 494 c 0,25,26
 330 494 330 494 350.5 491 c 128,-1,27
 371 488 371 488 387.5 479 c 128,-1,28
 404 470 404 470 414.5 453 c 128,-1,29
 425 436 425 436 425 408 c 0,30,31
 425 384 425 384 411 371.5 c 128,-1,32
 397 359 397 359 373 352.5 c 128,-1,33
 349 346 349 346 317.5 342.5 c 128,-1,34
 286 339 286 339 251 332 c 0,35,36
 218 326 218 326 186.5 317 c 128,-1,37
 155 308 155 308 130.5 290.5 c 128,-1,38
 106 273 106 273 91 245 c 128,-1,39
 76 217 76 217 76 173 c 0,40,41
 76 134 76 134 89.5 106.5 c 128,-1,42
 103 79 103 79 126.5 61.5 c 128,-1,43
 150 44 150 44 181 36.5 c 128,-1,44
 212 29 212 29 247 29 c 0,45,46
 301 29 301 29 347.5 47.5 c 128,-1,47
 394 66 394 66 429 108 c 1,48,49
 429 66 429 66 448.5 47.5 c 128,-1,50
 468 29 468 29 501 29 c 0,51,52
 540 29 540 29 562 42 c 1,4,-1
424 307 m 1,53,-1
 424 220 l 2,54,55
 424 202 424 202 415 181.5 c 128,-1,56
 406 161 406 161 387 143.5 c 128,-1,57
 368 126 368 126 338 114.5 c 128,-1,58
 308 103 308 103 266 103 c 0,59,60
 247 103 247 103 228.5 107 c 128,-1,61
 210 111 210 111 196.5 120 c 128,-1,62
 183 129 183 129 174.5 143.5 c 128,-1,63
 166 158 166 158 166 179 c 0,64,65
 166 211 166 211 180.5 229.5 c 128,-1,66
 195 248 195 248 218 258 c 128,-1,67
 241 268 241 268 270 272.5 c 128,-1,68
 299 277 299 277 327.5 280.5 c 128,-1,69
 356 284 356 284 382 289.5 c 128,-1,70
 408 295 408 295 424 307 c 1,53,-1
EndSplineSet
Ligature2: "<27,0> Canonical Decomposition lookup 0 subtable" a gravecmb
EndChar

StartChar: acircumflex
Encoding: 226 226 111
Width: 577
VWidth: 1040
Flags: W
LayerCount: 2
Fore
SplineSet
262 771 m 1,0,-1
 159 628 l 1,1,-1
 236 628 l 1,2,-1
 306 724 l 1,3,-1
 375 628 l 1,4,-1
 459 628 l 1,5,-1
 355 771 l 1,6,-1
 262 771 l 1,0,-1
562 42 m 1,7,-1
 562 108 l 1,8,9
 547 103 547 103 536 103 c 0,10,11
 516 103 516 103 512.5 117 c 128,-1,12
 509 131 509 131 509 161 c 2,13,-1
 509 427 l 2,14,15
 509 472 509 472 492 500 c 128,-1,16
 475 528 475 528 447 543.5 c 128,-1,17
 419 559 419 559 384.5 564 c 128,-1,18
 350 569 350 569 315 569 c 0,19,20
 272 569 272 569 233 560 c 128,-1,21
 194 551 194 551 164 530.5 c 128,-1,22
 134 510 134 510 116 477 c 128,-1,23
 98 444 98 444 96 396 c 1,24,-1
 181 396 l 1,25,26
 184 453 184 453 220 473.5 c 128,-1,27
 256 494 256 494 310 494 c 0,28,29
 330 494 330 494 350.5 491 c 128,-1,30
 371 488 371 488 387.5 479 c 128,-1,31
 404 470 404 470 414.5 453 c 128,-1,32
 425 436 425 436 425 408 c 0,33,34
 425 384 425 384 411 371.5 c 128,-1,35
 397 359 397 359 373 352.5 c 128,-1,36
 349 346 349 346 317.5 342.5 c 128,-1,37
 286 339 286 339 251 332 c 0,38,39
 218 326 218 326 186.5 317 c 128,-1,40
 155 308 155 308 130.5 290.5 c 128,-1,41
 106 273 106 273 91 245 c 128,-1,42
 76 217 76 217 76 173 c 0,43,44
 76 134 76 134 89.5 106.5 c 128,-1,45
 103 79 103 79 126.5 61.5 c 128,-1,46
 150 44 150 44 181 36.5 c 128,-1,47
 212 29 212 29 247 29 c 0,48,49
 301 29 301 29 347.5 47.5 c 128,-1,50
 394 66 394 66 429 108 c 1,51,52
 429 66 429 66 448.5 47.5 c 128,-1,53
 468 29 468 29 501 29 c 0,54,55
 540 29 540 29 562 42 c 1,7,-1
424 307 m 1,56,-1
 424 220 l 2,57,58
 424 202 424 202 415 181.5 c 128,-1,59
 406 161 406 161 387 143.5 c 128,-1,60
 368 126 368 126 338 114.5 c 128,-1,61
 308 103 308 103 266 103 c 0,62,63
 247 103 247 103 228.5 107 c 128,-1,64
 210 111 210 111 196.5 120 c 128,-1,65
 183 129 183 129 174.5 143.5 c 128,-1,66
 166 158 166 158 166 179 c 0,67,68
 166 211 166 211 180.5 229.5 c 128,-1,69
 195 248 195 248 218 258 c 128,-1,70
 241 268 241 268 270 272.5 c 128,-1,71
 299 277 299 277 327.5 280.5 c 128,-1,72
 356 284 356 284 382 289.5 c 128,-1,73
 408 295 408 295 424 307 c 1,56,-1
EndSplineSet
Ligature2: "<27,0> Canonical Decomposition lookup 0 subtable" a circumflexcmb
EndChar

StartChar: adieresis
Encoding: 228 228 112
Width: 577
VWidth: 1040
Flags: W
LayerCount: 2
Fore
SplineSet
170 736 m 1,0,-1
 170 632 l 1,1,-1
 260 632 l 1,2,-1
 260 736 l 1,3,-1
 170 736 l 1,0,-1
358 736 m 1,4,-1
 358 632 l 1,5,-1
 448 632 l 1,6,-1
 448 736 l 1,7,-1
 358 736 l 1,4,-1
562 42 m 1,8,-1
 562 108 l 1,9,10
 547 103 547 103 536 103 c 0,11,12
 516 103 516 103 512.5 117 c 128,-1,13
 509 131 509 131 509 161 c 2,14,-1
 509 427 l 2,15,16
 509 472 509 472 492 500 c 128,-1,17
 475 528 475 528 447 543.5 c 128,-1,18
 419 559 419 559 384.5 564 c 128,-1,19
 350 569 350 569 315 569 c 0,20,21
 272 569 272 569 233 560 c 128,-1,22
 194 551 194 551 164 530.5 c 128,-1,23
 134 510 134 510 116 477 c 128,-1,24
 98 444 98 444 96 396 c 1,25,-1
 181 396 l 1,26,27
 184 453 184 453 220 473.5 c 128,-1,28
 256 494 256 494 310 494 c 0,29,30
 330 494 330 494 350.5 491 c 128,-1,31
 371 488 371 488 387.5 479 c 128,-1,32
 404 470 404 470 414.5 453 c 128,-1,33
 425 436 425 436 425 408 c 0,34,35
 425 384 425 384 411 371.5 c 128,-1,36
 397 359 397 359 373 352.5 c 128,-1,37
 349 346 349 346 317.5 342.5 c 128,-1,38
 286 339 286 339 251 332 c 0,39,40
 218 326 218 326 186.5 317 c 128,-1,41
 155 308 155 308 130.5 290.5 c 128,-1,42
 106 273 106 273 91 245 c 128,-1,43
 76 217 76 217 76 173 c 0,44,45
 76 134 76 134 89.5 106.5 c 128,-1,46
 103 79 103 79 126.5 61.5 c 128,-1,47
 150 44 150 44 181 36.5 c 128,-1,48
 212 29 212 29 247 29 c 0,49,50
 301 29 301 29 347.5 47.5 c 128,-1,51
 394 66 394 66 429 108 c 1,52,53
 429 66 429 66 448.5 47.5 c 128,-1,54
 468 29 468 29 501 29 c 0,55,56
 540 29 540 29 562 42 c 1,8,-1
424 307 m 1,57,-1
 424 220 l 2,58,59
 424 202 424 202 415 181.5 c 128,-1,60
 406 161 406 161 387 143.5 c 128,-1,61
 368 126 368 126 338 114.5 c 128,-1,62
 308 103 308 103 266 103 c 0,63,64
 247 103 247 103 228.5 107 c 128,-1,65
 210 111 210 111 196.5 120 c 128,-1,66
 183 129 183 129 174.5 143.5 c 128,-1,67
 166 158 166 158 166 179 c 0,68,69
 166 211 166 211 180.5 229.5 c 128,-1,70
 195 248 195 248 218 258 c 128,-1,71
 241 268 241 268 270 272.5 c 128,-1,72
 299 277 299 277 327.5 280.5 c 128,-1,73
 356 284 356 284 382 289.5 c 128,-1,74
 408 295 408 295 424 307 c 1,57,-1
EndSplineSet
Ligature2: "<27,0> Canonical Decomposition lookup 0 subtable" a dieresiscmb
EndChar

StartChar: atilde
Encoding: 227 227 113
Width: 577
VWidth: 1040
Flags: W
LayerCount: 2
Fore
SplineSet
483 751 m 1,0,-1
 431 751 l 1,1,2
 426 736 426 736 415.5 721.5 c 128,-1,3
 405 707 405 707 385 707 c 0,4,5
 369 707 369 707 352.5 713.5 c 128,-1,6
 336 720 336 720 319 727.5 c 128,-1,7
 302 735 302 735 283.5 741 c 128,-1,8
 265 747 265 747 245 747 c 0,9,10
 221 747 221 747 204 738 c 128,-1,11
 187 729 187 729 175 714 c 128,-1,12
 163 699 163 699 154.5 679 c 128,-1,13
 146 659 146 659 140 637 c 1,14,-1
 192 637 l 1,15,16
 190 656 190 656 207 667.5 c 128,-1,17
 224 679 224 679 240 679 c 0,18,19
 254 679 254 679 271.5 673 c 128,-1,20
 289 667 289 667 307 660 c 0,21,22
 325 652 325 652 342.5 646 c 128,-1,23
 360 640 360 640 373 640 c 0,24,25
 402 640 402 640 420.5 648.5 c 128,-1,26
 439 657 439 657 452 671 c 0,27,28
 477 706 477 706 483 751 c 1,0,-1
562 42 m 1,29,-1
 562 108 l 1,30,31
 547 103 547 103 536 103 c 0,32,33
 516 103 516 103 512.5 117 c 128,-1,34
 509 131 509 131 509 161 c 2,35,-1
 509 427 l 2,36,37
 509 472 509 472 492 500 c 128,-1,38
 475 528 475 528 447 543.5 c 128,-1,39
 419 559 419 559 384.5 564 c 128,-1,40
 350 569 350 569 315 569 c 0,41,42
 272 569 272 569 233 560 c 128,-1,43
 194 551 194 551 164 530.5 c 128,-1,44
 134 510 134 510 116 477 c 128,-1,45
 98 444 98 444 96 396 c 1,46,-1
 181 396 l 1,47,48
 184 453 184 453 220 473.5 c 128,-1,49
 256 494 256 494 310 494 c 0,50,51
 330 494 330 494 350.5 491 c 128,-1,52
 371 488 371 488 387.5 479 c 128,-1,53
 404 470 404 470 414.5 453 c 128,-1,54
 425 436 425 436 425 408 c 0,55,56
 425 384 425 384 411 371.5 c 128,-1,57
 397 359 397 359 373 352.5 c 128,-1,58
 349 346 349 346 317.5 342.5 c 128,-1,59
 286 339 286 339 251 332 c 0,60,61
 218 326 218 326 186.5 317 c 128,-1,62
 155 308 155 308 130.5 290.5 c 128,-1,63
 106 273 106 273 91 245 c 128,-1,64
 76 217 76 217 76 173 c 0,65,66
 76 134 76 134 89.5 106.5 c 128,-1,67
 103 79 103 79 126.5 61.5 c 128,-1,68
 150 44 150 44 181 36.5 c 128,-1,69
 212 29 212 29 247 29 c 0,70,71
 301 29 301 29 347.5 47.5 c 128,-1,72
 394 66 394 66 429 108 c 1,73,74
 429 66 429 66 448.5 47.5 c 128,-1,75
 468 29 468 29 501 29 c 0,76,77
 540 29 540 29 562 42 c 1,29,-1
424 307 m 1,78,-1
 424 220 l 2,79,80
 424 202 424 202 415 181.5 c 128,-1,81
 406 161 406 161 387 143.5 c 128,-1,82
 368 126 368 126 338 114.5 c 128,-1,83
 308 103 308 103 266 103 c 0,84,85
 247 103 247 103 228.5 107 c 128,-1,86
 210 111 210 111 196.5 120 c 128,-1,87
 183 129 183 129 174.5 143.5 c 128,-1,88
 166 158 166 158 166 179 c 0,89,90
 166 211 166 211 180.5 229.5 c 128,-1,91
 195 248 195 248 218 258 c 128,-1,92
 241 268 241 268 270 272.5 c 128,-1,93
 299 277 299 277 327.5 280.5 c 128,-1,94
 356 284 356 284 382 289.5 c 128,-1,95
 408 295 408 295 424 307 c 1,78,-1
EndSplineSet
Ligature2: "<27,0> Canonical Decomposition lookup 0 subtable" a tildecmb
EndChar

StartChar: aring
Encoding: 229 229 114
Width: 577
VWidth: 1040
Flags: W
LayerCount: 2
Fore
SplineSet
196 702 m 256,0,1
 196 679 196 679 205 658.5 c 128,-1,2
 214 638 214 638 229.5 622.5 c 128,-1,3
 245 607 245 607 265.5 598 c 128,-1,4
 286 589 286 589 309 589 c 256,5,6
 332 589 332 589 352.5 598 c 128,-1,7
 373 607 373 607 388.5 622.5 c 128,-1,8
 404 638 404 638 413 658.5 c 128,-1,9
 422 679 422 679 422 702 c 256,10,11
 422 725 422 725 413 745.5 c 128,-1,12
 404 766 404 766 388.5 781.5 c 128,-1,13
 373 797 373 797 352.5 806 c 128,-1,14
 332 815 332 815 309 815 c 256,15,16
 286 815 286 815 265.5 806 c 128,-1,17
 245 797 245 797 229.5 781.5 c 128,-1,18
 214 766 214 766 205 745.5 c 128,-1,19
 196 725 196 725 196 702 c 256,0,1
241 702 m 256,20,21
 241 731 241 731 260.5 750.5 c 128,-1,22
 280 770 280 770 309 770 c 256,23,24
 338 770 338 770 357.5 750.5 c 128,-1,25
 377 731 377 731 377 702 c 256,26,27
 377 673 377 673 357.5 653.5 c 128,-1,28
 338 634 338 634 309 634 c 256,29,30
 280 634 280 634 260.5 653.5 c 128,-1,31
 241 673 241 673 241 702 c 256,20,21
562 42 m 1,32,-1
 562 108 l 1,33,34
 547 103 547 103 536 103 c 0,35,36
 516 103 516 103 512.5 117 c 128,-1,37
 509 131 509 131 509 161 c 2,38,-1
 509 427 l 2,39,40
 509 472 509 472 492 500 c 128,-1,41
 475 528 475 528 447 543.5 c 128,-1,42
 419 559 419 559 384.5 564 c 128,-1,43
 350 569 350 569 315 569 c 0,44,45
 272 569 272 569 233 560 c 128,-1,46
 194 551 194 551 164 530.5 c 128,-1,47
 134 510 134 510 116 477 c 128,-1,48
 98 444 98 444 96 396 c 1,49,-1
 181 396 l 1,50,51
 184 453 184 453 220 473.5 c 128,-1,52
 256 494 256 494 310 494 c 0,53,54
 330 494 330 494 350.5 491 c 128,-1,55
 371 488 371 488 387.5 479 c 128,-1,56
 404 470 404 470 414.5 453 c 128,-1,57
 425 436 425 436 425 408 c 0,58,59
 425 384 425 384 411 371.5 c 128,-1,60
 397 359 397 359 373 352.5 c 128,-1,61
 349 346 349 346 317.5 342.5 c 128,-1,62
 286 339 286 339 251 332 c 0,63,64
 218 326 218 326 186.5 317 c 128,-1,65
 155 308 155 308 130.5 290.5 c 128,-1,66
 106 273 106 273 91 245 c 128,-1,67
 76 217 76 217 76 173 c 0,68,69
 76 134 76 134 89.5 106.5 c 128,-1,70
 103 79 103 79 126.5 61.5 c 128,-1,71
 150 44 150 44 181 36.5 c 128,-1,72
 212 29 212 29 247 29 c 0,73,74
 301 29 301 29 347.5 47.5 c 128,-1,75
 394 66 394 66 429 108 c 1,76,77
 429 66 429 66 448.5 47.5 c 128,-1,78
 468 29 468 29 501 29 c 0,79,80
 540 29 540 29 562 42 c 1,32,-1
424 307 m 1,81,-1
 424 220 l 2,82,83
 424 202 424 202 415 181.5 c 128,-1,84
 406 161 406 161 387 143.5 c 128,-1,85
 368 126 368 126 338 114.5 c 128,-1,86
 308 103 308 103 266 103 c 0,87,88
 247 103 247 103 228.5 107 c 128,-1,89
 210 111 210 111 196.5 120 c 128,-1,90
 183 129 183 129 174.5 143.5 c 128,-1,91
 166 158 166 158 166 179 c 0,92,93
 166 211 166 211 180.5 229.5 c 128,-1,94
 195 248 195 248 218 258 c 128,-1,95
 241 268 241 268 270 272.5 c 128,-1,96
 299 277 299 277 327.5 280.5 c 128,-1,97
 356 284 356 284 382 289.5 c 128,-1,98
 408 295 408 295 424 307 c 1,81,-1
EndSplineSet
Ligature2: "<27,0> Canonical Decomposition lookup 0 subtable" a ringcmb
EndChar

StartChar: ccedilla
Encoding: 231 231 115
Width: 577
VWidth: 1040
Flags: W
LayerCount: 2
Fore
SplineSet
455 391 m 1,0,-1
 543 391 l 1,1,2
 538 437 538 437 519 470.5 c 128,-1,3
 500 504 500 504 470.5 526 c 128,-1,4
 441 548 441 548 402.5 558.5 c 128,-1,5
 364 569 364 569 320 569 c 0,6,7
 259 569 259 569 213 547.5 c 128,-1,8
 167 526 167 526 136.5 488.5 c 128,-1,9
 106 451 106 451 91 400.5 c 128,-1,10
 76 350 76 350 76 292 c 0,11,12
 76 237 76 237 90 191 c 128,-1,13
 104 145 104 145 131 111 c 128,-1,14
 158 77 158 77 198.5 56 c 128,-1,15
 239 35 239 35 292 31 c 1,16,-1
 239 -37 l 1,17,-1
 256 -65 l 1,18,19
 267 -61 267 -61 276 -59 c 128,-1,20
 285 -57 285 -57 297 -57 c 0,21,22
 317 -57 317 -57 330.5 -65.5 c 128,-1,23
 344 -74 344 -74 344 -88 c 0,24,25
 344 -97 344 -97 338 -102.5 c 128,-1,26
 332 -108 332 -108 323 -112 c 128,-1,27
 314 -116 314 -116 303 -117.5 c 128,-1,28
 292 -119 292 -119 282 -119 c 0,29,30
 266 -119 266 -119 249.5 -115 c 128,-1,31
 233 -111 233 -111 221 -106 c 1,32,-1
 203 -150 l 1,33,34
 226 -158 226 -158 248.5 -163.5 c 128,-1,35
 271 -169 271 -169 295 -169 c 0,36,37
 316 -169 316 -169 338 -164.5 c 128,-1,38
 360 -160 360 -160 378 -149.5 c 128,-1,39
 396 -139 396 -139 407.5 -122 c 128,-1,40
 419 -105 419 -105 419 -80 c 0,41,42
 419 -43 419 -43 393 -25 c 128,-1,43
 367 -7 367 -7 335 -7 c 0,44,45
 312 -7 312 -7 302 -14 c 1,46,-1
 300 -12 l 1,47,-1
 333 30 l 1,48,49
 424 34 424 34 478 86 c 128,-1,50
 532 138 532 138 546 229 c 1,51,-1
 459 229 l 1,52,53
 451 169 451 169 415.5 136 c 128,-1,54
 380 103 380 103 317 103 c 0,55,56
 277 103 277 103 248 119 c 128,-1,57
 219 135 219 135 201 161.5 c 128,-1,58
 183 188 183 188 174.5 222 c 128,-1,59
 166 256 166 256 166 292 c 0,60,61
 166 331 166 331 174 367.5 c 128,-1,62
 182 404 182 404 200.5 432 c 128,-1,63
 219 460 219 460 250 477 c 128,-1,64
 281 494 281 494 327 494 c 0,65,66
 381 494 381 494 413 467 c 128,-1,67
 445 440 445 440 455 391 c 1,0,-1
EndSplineSet
Ligature2: "<27,0> Canonical Decomposition lookup 0 subtable" c cedillacmb
EndChar

StartChar: eacute
Encoding: 233 233 116
Width: 577
VWidth: 1040
Flags: W
LayerCount: 2
Fore
SplineSet
334 771 m 1,0,-1
 248 628 l 1,1,-1
 312 628 l 1,2,-1
 443 771 l 1,3,-1
 334 771 l 1,0,-1
463 348 m 1,4,-1
 166 348 l 1,5,6
 168 378 168 378 179 404.5 c 128,-1,7
 190 431 190 431 209 451 c 128,-1,8
 228 471 228 471 254.5 482.5 c 128,-1,9
 281 494 281 494 314 494 c 0,10,11
 346 494 346 494 372.5 482.5 c 128,-1,12
 399 471 399 471 418.5 451.5 c 128,-1,13
 438 432 438 432 449.5 405 c 128,-1,14
 461 378 461 378 463 348 c 1,4,-1
545 204 m 1,15,-1
 461 204 l 1,16,17
 450 153 450 153 415.5 128 c 128,-1,18
 381 103 381 103 327 103 c 0,19,20
 285 103 285 103 254 117 c 128,-1,21
 223 131 223 131 203 154.5 c 128,-1,22
 183 178 183 178 174 208.5 c 128,-1,23
 165 239 165 239 166 273 c 1,24,-1
 553 273 l 1,25,26
 555 320 555 320 544.5 372 c 128,-1,27
 534 424 534 424 506.5 468 c 128,-1,28
 479 512 479 512 433.5 540.5 c 128,-1,29
 388 569 388 569 319 569 c 0,30,31
 266 569 266 569 221.5 549 c 128,-1,32
 177 529 177 529 144.5 493 c 128,-1,33
 112 457 112 457 94 408 c 128,-1,34
 76 359 76 359 76 300 c 0,35,36
 78 241 78 241 93.5 191 c 128,-1,37
 109 141 109 141 140 105 c 128,-1,38
 171 69 171 69 216.5 49 c 128,-1,39
 262 29 262 29 324 29 c 0,40,41
 412 29 412 29 470 73 c 128,-1,42
 528 117 528 117 545 204 c 1,15,-1
EndSplineSet
Ligature2: "<27,0> Canonical Decomposition lookup 0 subtable" e acutecmb
EndChar

StartChar: egrave
Encoding: 232 232 117
Width: 577
VWidth: 1040
Flags: W
LayerCount: 2
Fore
SplineSet
175 771 m 1,0,-1
 306 628 l 1,1,-1
 370 628 l 1,2,-1
 284 771 l 1,3,-1
 175 771 l 1,0,-1
463 348 m 1,4,-1
 166 348 l 1,5,6
 168 378 168 378 179 404.5 c 128,-1,7
 190 431 190 431 209 451 c 128,-1,8
 228 471 228 471 254.5 482.5 c 128,-1,9
 281 494 281 494 314 494 c 0,10,11
 346 494 346 494 372.5 482.5 c 128,-1,12
 399 471 399 471 418.5 451.5 c 128,-1,13
 438 432 438 432 449.5 405 c 128,-1,14
 461 378 461 378 463 348 c 1,4,-1
545 204 m 1,15,-1
 461 204 l 1,16,17
 450 153 450 153 415.5 128 c 128,-1,18
 381 103 381 103 327 103 c 0,19,20
 285 103 285 103 254 117 c 128,-1,21
 223 131 223 131 203 154.5 c 128,-1,22
 183 178 183 178 174 208.5 c 128,-1,23
 165 239 165 239 166 273 c 1,24,-1
 553 273 l 1,25,26
 555 320 555 320 544.5 372 c 128,-1,27
 534 424 534 424 506.5 468 c 128,-1,28
 479 512 479 512 433.5 540.5 c 128,-1,29
 388 569 388 569 319 569 c 0,30,31
 266 569 266 569 221.5 549 c 128,-1,32
 177 529 177 529 144.5 493 c 128,-1,33
 112 457 112 457 94 408 c 128,-1,34
 76 359 76 359 76 300 c 0,35,36
 78 241 78 241 93.5 191 c 128,-1,37
 109 141 109 141 140 105 c 128,-1,38
 171 69 171 69 216.5 49 c 128,-1,39
 262 29 262 29 324 29 c 0,40,41
 412 29 412 29 470 73 c 128,-1,42
 528 117 528 117 545 204 c 1,15,-1
EndSplineSet
Ligature2: "<27,0> Canonical Decomposition lookup 0 subtable" e gravecmb
EndChar

StartChar: ecircumflex
Encoding: 234 234 118
Width: 577
VWidth: 1040
Flags: W
LayerCount: 2
Fore
SplineSet
262 771 m 1,0,-1
 159 628 l 1,1,-1
 236 628 l 1,2,-1
 306 724 l 1,3,-1
 375 628 l 1,4,-1
 459 628 l 1,5,-1
 355 771 l 1,6,-1
 262 771 l 1,0,-1
463 348 m 1,7,-1
 166 348 l 1,8,9
 168 378 168 378 179 404.5 c 128,-1,10
 190 431 190 431 209 451 c 128,-1,11
 228 471 228 471 254.5 482.5 c 128,-1,12
 281 494 281 494 314 494 c 0,13,14
 346 494 346 494 372.5 482.5 c 128,-1,15
 399 471 399 471 418.5 451.5 c 128,-1,16
 438 432 438 432 449.5 405 c 128,-1,17
 461 378 461 378 463 348 c 1,7,-1
545 204 m 1,18,-1
 461 204 l 1,19,20
 450 153 450 153 415.5 128 c 128,-1,21
 381 103 381 103 327 103 c 0,22,23
 285 103 285 103 254 117 c 128,-1,24
 223 131 223 131 203 154.5 c 128,-1,25
 183 178 183 178 174 208.5 c 128,-1,26
 165 239 165 239 166 273 c 1,27,-1
 553 273 l 1,28,29
 555 320 555 320 544.5 372 c 128,-1,30
 534 424 534 424 506.5 468 c 128,-1,31
 479 512 479 512 433.5 540.5 c 128,-1,32
 388 569 388 569 319 569 c 0,33,34
 266 569 266 569 221.5 549 c 128,-1,35
 177 529 177 529 144.5 493 c 128,-1,36
 112 457 112 457 94 408 c 128,-1,37
 76 359 76 359 76 300 c 0,38,39
 78 241 78 241 93.5 191 c 128,-1,40
 109 141 109 141 140 105 c 128,-1,41
 171 69 171 69 216.5 49 c 128,-1,42
 262 29 262 29 324 29 c 0,43,44
 412 29 412 29 470 73 c 128,-1,45
 528 117 528 117 545 204 c 1,18,-1
EndSplineSet
Ligature2: "<27,0> Canonical Decomposition lookup 0 subtable" e circumflexcmb
EndChar

StartChar: edieresis
Encoding: 235 235 119
Width: 577
VWidth: 1040
Flags: W
LayerCount: 2
Fore
SplineSet
170 736 m 1,0,-1
 170 632 l 1,1,-1
 260 632 l 1,2,-1
 260 736 l 1,3,-1
 170 736 l 1,0,-1
358 736 m 1,4,-1
 358 632 l 1,5,-1
 448 632 l 1,6,-1
 448 736 l 1,7,-1
 358 736 l 1,4,-1
463 348 m 1,8,-1
 166 348 l 1,9,10
 168 378 168 378 179 404.5 c 128,-1,11
 190 431 190 431 209 451 c 128,-1,12
 228 471 228 471 254.5 482.5 c 128,-1,13
 281 494 281 494 314 494 c 0,14,15
 346 494 346 494 372.5 482.5 c 128,-1,16
 399 471 399 471 418.5 451.5 c 128,-1,17
 438 432 438 432 449.5 405 c 128,-1,18
 461 378 461 378 463 348 c 1,8,-1
545 204 m 1,19,-1
 461 204 l 1,20,21
 450 153 450 153 415.5 128 c 128,-1,22
 381 103 381 103 327 103 c 0,23,24
 285 103 285 103 254 117 c 128,-1,25
 223 131 223 131 203 154.5 c 128,-1,26
 183 178 183 178 174 208.5 c 128,-1,27
 165 239 165 239 166 273 c 1,28,-1
 553 273 l 1,29,30
 555 320 555 320 544.5 372 c 128,-1,31
 534 424 534 424 506.5 468 c 128,-1,32
 479 512 479 512 433.5 540.5 c 128,-1,33
 388 569 388 569 319 569 c 0,34,35
 266 569 266 569 221.5 549 c 128,-1,36
 177 529 177 529 144.5 493 c 128,-1,37
 112 457 112 457 94 408 c 128,-1,38
 76 359 76 359 76 300 c 0,39,40
 78 241 78 241 93.5 191 c 128,-1,41
 109 141 109 141 140 105 c 128,-1,42
 171 69 171 69 216.5 49 c 128,-1,43
 262 29 262 29 324 29 c 0,44,45
 412 29 412 29 470 73 c 128,-1,46
 528 117 528 117 545 204 c 1,19,-1
EndSplineSet
Ligature2: "<27,0> Canonical Decomposition lookup 0 subtable" e dieresiscmb
EndChar

StartChar: iacute
Encoding: 237 237 120
Width: 262
VWidth: 1040
Flags: W
LayerCount: 2
Fore
SplineSet
176 771 m 1,0,-1
 90 628 l 1,1,-1
 154 628 l 1,2,-1
 285 771 l 1,3,-1
 176 771 l 1,0,-1
109 40 m 1,4,-1
 194 40 l 1,5,-1
 194 557 l 1,6,-1
 109 557 l 1,7,-1
 109 40 l 1,4,-1
EndSplineSet
Ligature2: "<27,0> Canonical Decomposition lookup 0 subtable" i acutecmb
EndChar

StartChar: igrave
Encoding: 236 236 121
Width: 262
VWidth: 1040
Flags: W
LayerCount: 2
Fore
SplineSet
18 771 m 1,0,-1
 148 628 l 1,1,-1
 212 628 l 1,2,-1
 126 771 l 1,3,-1
 18 771 l 1,0,-1
109 40 m 1,4,-1
 194 40 l 1,5,-1
 194 557 l 1,6,-1
 109 557 l 1,7,-1
 109 40 l 1,4,-1
EndSplineSet
Ligature2: "<27,0> Canonical Decomposition lookup 0 subtable" i gravecmb
EndChar

StartChar: icircumflex
Encoding: 238 238 122
Width: 262
VWidth: 1040
Flags: W
LayerCount: 2
Fore
SplineSet
104 771 m 1,0,-1
 2 628 l 1,1,-1
 78 628 l 1,2,-1
 148 724 l 1,3,-1
 217 628 l 1,4,-1
 301 628 l 1,5,-1
 197 771 l 1,6,-1
 104 771 l 1,0,-1
109 40 m 1,7,-1
 194 40 l 1,8,-1
 194 557 l 1,9,-1
 109 557 l 1,10,-1
 109 40 l 1,7,-1
EndSplineSet
Ligature2: "<27,0> Canonical Decomposition lookup 0 subtable" i circumflexcmb
EndChar

StartChar: idieresis
Encoding: 239 239 123
Width: 262
VWidth: 1040
Flags: W
LayerCount: 2
Fore
SplineSet
13 736 m 1,0,-1
 13 632 l 1,1,-1
 102 632 l 1,2,-1
 102 736 l 1,3,-1
 13 736 l 1,0,-1
200 736 m 1,4,-1
 200 632 l 1,5,-1
 290 632 l 1,6,-1
 290 736 l 1,7,-1
 200 736 l 1,4,-1
109 40 m 1,8,-1
 194 40 l 1,9,-1
 194 557 l 1,10,-1
 109 557 l 1,11,-1
 109 40 l 1,8,-1
EndSplineSet
Ligature2: "<27,0> Canonical Decomposition lookup 0 subtable" i dieresiscmb
EndChar

StartChar: ntilde
Encoding: 241 241 124
Width: 596
VWidth: 1040
Flags: W
LayerCount: 2
Fore
SplineSet
492 751 m 1,0,-1
 440 751 l 1,1,2
 435 736 435 736 424.5 721.5 c 128,-1,3
 414 707 414 707 394 707 c 0,4,5
 378 707 378 707 361.5 713.5 c 128,-1,6
 345 720 345 720 328 727.5 c 128,-1,7
 311 735 311 735 292.5 741 c 128,-1,8
 274 747 274 747 254 747 c 0,9,10
 230 747 230 747 213 738 c 128,-1,11
 196 729 196 729 184 714 c 128,-1,12
 172 699 172 699 163.5 679 c 128,-1,13
 155 659 155 659 149 637 c 1,14,-1
 201 637 l 1,15,16
 199 656 199 656 216 667.5 c 128,-1,17
 233 679 233 679 249 679 c 0,18,19
 263 679 263 679 280.5 673 c 128,-1,20
 298 667 298 667 316 660 c 0,21,22
 334 652 334 652 351.5 646 c 128,-1,23
 369 640 369 640 382 640 c 0,24,25
 411 640 411 640 429.5 648.5 c 128,-1,26
 448 657 448 657 461 671 c 0,27,28
 486 706 486 706 492 751 c 1,0,-1
104 557 m 1,29,-1
 104 40 l 1,30,-1
 189 40 l 1,31,-1
 189 332 l 2,32,33
 189 367 189 367 198.5 396.5 c 128,-1,34
 208 426 208 426 227 448 c 128,-1,35
 246 470 246 470 274.5 482 c 128,-1,36
 303 494 303 494 342 494 c 0,37,38
 391 494 391 494 419 466 c 128,-1,39
 447 438 447 438 447 390 c 2,40,-1
 447 40 l 1,41,-1
 532 40 l 1,42,-1
 532 380 l 2,43,44
 532 422 532 422 523.5 456.5 c 128,-1,45
 515 491 515 491 494 516 c 128,-1,46
 473 541 473 541 439 555 c 128,-1,47
 405 569 405 569 354 569 c 0,48,49
 239 569 239 569 186 475 c 1,50,-1
 184 475 l 1,51,-1
 184 557 l 1,52,-1
 104 557 l 1,29,-1
EndSplineSet
Ligature2: "<27,0> Canonical Decomposition lookup 0 subtable" n tildecmb
EndChar

StartChar: oacute
Encoding: 243 243 125
Width: 614
VWidth: 1040
Flags: W
LayerCount: 2
Fore
SplineSet
352 771 m 1,0,-1
 266 628 l 1,1,-1
 330 628 l 1,2,-1
 461 771 l 1,3,-1
 352 771 l 1,0,-1
166 298 m 256,4,5
 166 345 166 345 178.5 381.5 c 128,-1,6
 191 418 191 418 213 443 c 128,-1,7
 235 468 235 468 264.5 481 c 128,-1,8
 294 494 294 494 327 494 c 256,9,10
 360 494 360 494 389.5 481 c 128,-1,11
 419 468 419 468 441 443 c 128,-1,12
 463 418 463 418 475.5 381.5 c 128,-1,13
 488 345 488 345 488 298 c 256,14,15
 488 251 488 251 475.5 214.5 c 128,-1,16
 463 178 463 178 441 153.5 c 128,-1,17
 419 129 419 129 389.5 116 c 128,-1,18
 360 103 360 103 327 103 c 256,19,20
 294 103 294 103 264.5 116 c 128,-1,21
 235 129 235 129 213 153.5 c 128,-1,22
 191 178 191 178 178.5 214.5 c 128,-1,23
 166 251 166 251 166 298 c 256,4,5
76 298 m 256,24,25
 76 241 76 241 92 192 c 128,-1,26
 108 143 108 143 140 106.5 c 128,-1,27
 172 70 172 70 219 49.5 c 128,-1,28
 266 29 266 29 327 29 c 0,29,30
 389 29 389 29 435.5 49.5 c 128,-1,31
 482 70 482 70 514 106.5 c 128,-1,32
 546 143 546 143 562 192 c 128,-1,33
 578 241 578 241 578 298 c 256,34,35
 578 355 578 355 562 404.5 c 128,-1,36
 546 454 546 454 514 490.5 c 128,-1,37
 482 527 482 527 435.5 548 c 128,-1,38
 389 569 389 569 327 569 c 0,39,40
 266 569 266 569 219 548 c 128,-1,41
 172 527 172 527 140 490.5 c 128,-1,42
 108 454 108 454 92 404.5 c 128,-1,43
 76 355 76 355 76 298 c 256,24,25
EndSplineSet
Ligature2: "<27,0> Canonical Decomposition lookup 0 subtable" o acutecmb
EndChar

StartChar: ograve
Encoding: 242 242 126
Width: 614
VWidth: 1040
Flags: W
LayerCount: 2
Fore
SplineSet
193 771 m 1,0,-1
 324 628 l 1,1,-1
 388 628 l 1,2,-1
 302 771 l 1,3,-1
 193 771 l 1,0,-1
166 298 m 256,4,5
 166 345 166 345 178.5 381.5 c 128,-1,6
 191 418 191 418 213 443 c 128,-1,7
 235 468 235 468 264.5 481 c 128,-1,8
 294 494 294 494 327 494 c 256,9,10
 360 494 360 494 389.5 481 c 128,-1,11
 419 468 419 468 441 443 c 128,-1,12
 463 418 463 418 475.5 381.5 c 128,-1,13
 488 345 488 345 488 298 c 256,14,15
 488 251 488 251 475.5 214.5 c 128,-1,16
 463 178 463 178 441 153.5 c 128,-1,17
 419 129 419 129 389.5 116 c 128,-1,18
 360 103 360 103 327 103 c 256,19,20
 294 103 294 103 264.5 116 c 128,-1,21
 235 129 235 129 213 153.5 c 128,-1,22
 191 178 191 178 178.5 214.5 c 128,-1,23
 166 251 166 251 166 298 c 256,4,5
76 298 m 256,24,25
 76 241 76 241 92 192 c 128,-1,26
 108 143 108 143 140 106.5 c 128,-1,27
 172 70 172 70 219 49.5 c 128,-1,28
 266 29 266 29 327 29 c 0,29,30
 389 29 389 29 435.5 49.5 c 128,-1,31
 482 70 482 70 514 106.5 c 128,-1,32
 546 143 546 143 562 192 c 128,-1,33
 578 241 578 241 578 298 c 256,34,35
 578 355 578 355 562 404.5 c 128,-1,36
 546 454 546 454 514 490.5 c 128,-1,37
 482 527 482 527 435.5 548 c 128,-1,38
 389 569 389 569 327 569 c 0,39,40
 266 569 266 569 219 548 c 128,-1,41
 172 527 172 527 140 490.5 c 128,-1,42
 108 454 108 454 92 404.5 c 128,-1,43
 76 355 76 355 76 298 c 256,24,25
EndSplineSet
Ligature2: "<27,0> Canonical Decomposition lookup 0 subtable" o gravecmb
EndChar

StartChar: ocircumflex
Encoding: 244 244 127
Width: 614
VWidth: 1040
Flags: W
LayerCount: 2
Fore
SplineSet
280 771 m 1,0,-1
 177 628 l 1,1,-1
 254 628 l 1,2,-1
 324 724 l 1,3,-1
 393 628 l 1,4,-1
 477 628 l 1,5,-1
 373 771 l 1,6,-1
 280 771 l 1,0,-1
166 298 m 256,7,8
 166 345 166 345 178.5 381.5 c 128,-1,9
 191 418 191 418 213 443 c 128,-1,10
 235 468 235 468 264.5 481 c 128,-1,11
 294 494 294 494 327 494 c 256,12,13
 360 494 360 494 389.5 481 c 128,-1,14
 419 468 419 468 441 443 c 128,-1,15
 463 418 463 418 475.5 381.5 c 128,-1,16
 488 345 488 345 488 298 c 256,17,18
 488 251 488 251 475.5 214.5 c 128,-1,19
 463 178 463 178 441 153.5 c 128,-1,20
 419 129 419 129 389.5 116 c 128,-1,21
 360 103 360 103 327 103 c 256,22,23
 294 103 294 103 264.5 116 c 128,-1,24
 235 129 235 129 213 153.5 c 128,-1,25
 191 178 191 178 178.5 214.5 c 128,-1,26
 166 251 166 251 166 298 c 256,7,8
76 298 m 256,27,28
 76 241 76 241 92 192 c 128,-1,29
 108 143 108 143 140 106.5 c 128,-1,30
 172 70 172 70 219 49.5 c 128,-1,31
 266 29 266 29 327 29 c 0,32,33
 389 29 389 29 435.5 49.5 c 128,-1,34
 482 70 482 70 514 106.5 c 128,-1,35
 546 143 546 143 562 192 c 128,-1,36
 578 241 578 241 578 298 c 256,37,38
 578 355 578 355 562 404.5 c 128,-1,39
 546 454 546 454 514 490.5 c 128,-1,40
 482 527 482 527 435.5 548 c 128,-1,41
 389 569 389 569 327 569 c 0,42,43
 266 569 266 569 219 548 c 128,-1,44
 172 527 172 527 140 490.5 c 128,-1,45
 108 454 108 454 92 404.5 c 128,-1,46
 76 355 76 355 76 298 c 256,27,28
EndSplineSet
Ligature2: "<27,0> Canonical Decomposition lookup 0 subtable" o circumflexcmb
EndChar

StartChar: odieresis
Encoding: 246 246 128
Width: 614
VWidth: 1040
Flags: W
LayerCount: 2
Fore
SplineSet
188 736 m 1,0,-1
 188 632 l 1,1,-1
 278 632 l 1,2,-1
 278 736 l 1,3,-1
 188 736 l 1,0,-1
376 736 m 1,4,-1
 376 632 l 1,5,-1
 466 632 l 1,6,-1
 466 736 l 1,7,-1
 376 736 l 1,4,-1
166 298 m 256,8,9
 166 345 166 345 178.5 381.5 c 128,-1,10
 191 418 191 418 213 443 c 128,-1,11
 235 468 235 468 264.5 481 c 128,-1,12
 294 494 294 494 327 494 c 256,13,14
 360 494 360 494 389.5 481 c 128,-1,15
 419 468 419 468 441 443 c 128,-1,16
 463 418 463 418 475.5 381.5 c 128,-1,17
 488 345 488 345 488 298 c 256,18,19
 488 251 488 251 475.5 214.5 c 128,-1,20
 463 178 463 178 441 153.5 c 128,-1,21
 419 129 419 129 389.5 116 c 128,-1,22
 360 103 360 103 327 103 c 256,23,24
 294 103 294 103 264.5 116 c 128,-1,25
 235 129 235 129 213 153.5 c 128,-1,26
 191 178 191 178 178.5 214.5 c 128,-1,27
 166 251 166 251 166 298 c 256,8,9
76 298 m 256,28,29
 76 241 76 241 92 192 c 128,-1,30
 108 143 108 143 140 106.5 c 128,-1,31
 172 70 172 70 219 49.5 c 128,-1,32
 266 29 266 29 327 29 c 0,33,34
 389 29 389 29 435.5 49.5 c 128,-1,35
 482 70 482 70 514 106.5 c 128,-1,36
 546 143 546 143 562 192 c 128,-1,37
 578 241 578 241 578 298 c 256,38,39
 578 355 578 355 562 404.5 c 128,-1,40
 546 454 546 454 514 490.5 c 128,-1,41
 482 527 482 527 435.5 548 c 128,-1,42
 389 569 389 569 327 569 c 0,43,44
 266 569 266 569 219 548 c 128,-1,45
 172 527 172 527 140 490.5 c 128,-1,46
 108 454 108 454 92 404.5 c 128,-1,47
 76 355 76 355 76 298 c 256,28,29
EndSplineSet
Ligature2: "<27,0> Canonical Decomposition lookup 0 subtable" o dieresiscmb
EndChar

StartChar: otilde
Encoding: 245 245 129
Width: 614
VWidth: 1040
Flags: W
LayerCount: 2
Fore
SplineSet
501 751 m 1,0,-1
 449 751 l 1,1,2
 444 736 444 736 433.5 721.5 c 128,-1,3
 423 707 423 707 403 707 c 0,4,5
 387 707 387 707 370.5 713.5 c 128,-1,6
 354 720 354 720 337 727.5 c 128,-1,7
 320 735 320 735 301.5 741 c 128,-1,8
 283 747 283 747 263 747 c 0,9,10
 239 747 239 747 222 738 c 128,-1,11
 205 729 205 729 193 714 c 128,-1,12
 181 699 181 699 172.5 679 c 128,-1,13
 164 659 164 659 158 637 c 1,14,-1
 210 637 l 1,15,16
 208 656 208 656 225 667.5 c 128,-1,17
 242 679 242 679 258 679 c 0,18,19
 272 679 272 679 289.5 673 c 128,-1,20
 307 667 307 667 325 660 c 0,21,22
 343 652 343 652 360.5 646 c 128,-1,23
 378 640 378 640 391 640 c 0,24,25
 420 640 420 640 438.5 648.5 c 128,-1,26
 457 657 457 657 470 671 c 0,27,28
 495 706 495 706 501 751 c 1,0,-1
166 298 m 256,29,30
 166 345 166 345 178.5 381.5 c 128,-1,31
 191 418 191 418 213 443 c 128,-1,32
 235 468 235 468 264.5 481 c 128,-1,33
 294 494 294 494 327 494 c 256,34,35
 360 494 360 494 389.5 481 c 128,-1,36
 419 468 419 468 441 443 c 128,-1,37
 463 418 463 418 475.5 381.5 c 128,-1,38
 488 345 488 345 488 298 c 256,39,40
 488 251 488 251 475.5 214.5 c 128,-1,41
 463 178 463 178 441 153.5 c 128,-1,42
 419 129 419 129 389.5 116 c 128,-1,43
 360 103 360 103 327 103 c 256,44,45
 294 103 294 103 264.5 116 c 128,-1,46
 235 129 235 129 213 153.5 c 128,-1,47
 191 178 191 178 178.5 214.5 c 128,-1,48
 166 251 166 251 166 298 c 256,29,30
76 298 m 256,49,50
 76 241 76 241 92 192 c 128,-1,51
 108 143 108 143 140 106.5 c 128,-1,52
 172 70 172 70 219 49.5 c 128,-1,53
 266 29 266 29 327 29 c 0,54,55
 389 29 389 29 435.5 49.5 c 128,-1,56
 482 70 482 70 514 106.5 c 128,-1,57
 546 143 546 143 562 192 c 128,-1,58
 578 241 578 241 578 298 c 256,59,60
 578 355 578 355 562 404.5 c 128,-1,61
 546 454 546 454 514 490.5 c 128,-1,62
 482 527 482 527 435.5 548 c 128,-1,63
 389 569 389 569 327 569 c 0,64,65
 266 569 266 569 219 548 c 128,-1,66
 172 527 172 527 140 490.5 c 128,-1,67
 108 454 108 454 92 404.5 c 128,-1,68
 76 355 76 355 76 298 c 256,49,50
EndSplineSet
Ligature2: "<27,0> Canonical Decomposition lookup 0 subtable" o tildecmb
EndChar

StartChar: uacute
Encoding: 250 250 130
Width: 596
VWidth: 1040
Flags: W
LayerCount: 2
Fore
SplineSet
343 771 m 1,0,-1
 257 628 l 1,1,-1
 321 628 l 1,2,-1
 452 771 l 1,3,-1
 343 771 l 1,0,-1
532 40 m 1,4,-1
 532 557 l 1,5,-1
 447 557 l 1,6,-1
 447 265 l 2,7,8
 447 230 447 230 437.5 200.5 c 128,-1,9
 428 171 428 171 409 149 c 128,-1,10
 390 127 390 127 361.5 115 c 128,-1,11
 333 103 333 103 294 103 c 0,12,13
 245 103 245 103 217 131 c 128,-1,14
 189 159 189 159 189 207 c 2,15,-1
 189 557 l 1,16,-1
 104 557 l 1,17,-1
 104 217 l 2,18,19
 104 175 104 175 112.5 140.5 c 128,-1,20
 121 106 121 106 142 81 c 128,-1,21
 163 56 163 56 197 42.5 c 128,-1,22
 231 29 231 29 282 29 c 0,23,24
 339 29 339 29 381 51.5 c 128,-1,25
 423 74 423 74 450 122 c 1,26,-1
 452 122 l 1,27,-1
 452 40 l 1,28,-1
 532 40 l 1,4,-1
EndSplineSet
Ligature2: "<27,0> Canonical Decomposition lookup 0 subtable" u acutecmb
EndChar

StartChar: ugrave
Encoding: 249 249 131
Width: 596
VWidth: 1040
Flags: W
LayerCount: 2
Fore
SplineSet
184 771 m 1,0,-1
 315 628 l 1,1,-1
 379 628 l 1,2,-1
 293 771 l 1,3,-1
 184 771 l 1,0,-1
532 40 m 1,4,-1
 532 557 l 1,5,-1
 447 557 l 1,6,-1
 447 265 l 2,7,8
 447 230 447 230 437.5 200.5 c 128,-1,9
 428 171 428 171 409 149 c 128,-1,10
 390 127 390 127 361.5 115 c 128,-1,11
 333 103 333 103 294 103 c 0,12,13
 245 103 245 103 217 131 c 128,-1,14
 189 159 189 159 189 207 c 2,15,-1
 189 557 l 1,16,-1
 104 557 l 1,17,-1
 104 217 l 2,18,19
 104 175 104 175 112.5 140.5 c 128,-1,20
 121 106 121 106 142 81 c 128,-1,21
 163 56 163 56 197 42.5 c 128,-1,22
 231 29 231 29 282 29 c 0,23,24
 339 29 339 29 381 51.5 c 128,-1,25
 423 74 423 74 450 122 c 1,26,-1
 452 122 l 1,27,-1
 452 40 l 1,28,-1
 532 40 l 1,4,-1
EndSplineSet
Ligature2: "<27,0> Canonical Decomposition lookup 0 subtable" u gravecmb
EndChar

StartChar: ucircumflex
Encoding: 251 251 132
Width: 596
VWidth: 1040
Flags: W
LayerCount: 2
Fore
SplineSet
271 771 m 1,0,-1
 168 628 l 1,1,-1
 245 628 l 1,2,-1
 315 724 l 1,3,-1
 384 628 l 1,4,-1
 468 628 l 1,5,-1
 364 771 l 1,6,-1
 271 771 l 1,0,-1
532 40 m 1,7,-1
 532 557 l 1,8,-1
 447 557 l 1,9,-1
 447 265 l 2,10,11
 447 230 447 230 437.5 200.5 c 128,-1,12
 428 171 428 171 409 149 c 128,-1,13
 390 127 390 127 361.5 115 c 128,-1,14
 333 103 333 103 294 103 c 0,15,16
 245 103 245 103 217 131 c 128,-1,17
 189 159 189 159 189 207 c 2,18,-1
 189 557 l 1,19,-1
 104 557 l 1,20,-1
 104 217 l 2,21,22
 104 175 104 175 112.5 140.5 c 128,-1,23
 121 106 121 106 142 81 c 128,-1,24
 163 56 163 56 197 42.5 c 128,-1,25
 231 29 231 29 282 29 c 0,26,27
 339 29 339 29 381 51.5 c 128,-1,28
 423 74 423 74 450 122 c 1,29,-1
 452 122 l 1,30,-1
 452 40 l 1,31,-1
 532 40 l 1,7,-1
EndSplineSet
Ligature2: "<27,0> Canonical Decomposition lookup 0 subtable" u circumflexcmb
EndChar

StartChar: udieresis
Encoding: 252 252 133
Width: 596
VWidth: 1040
Flags: W
LayerCount: 2
Fore
SplineSet
179 736 m 1,0,-1
 179 632 l 1,1,-1
 269 632 l 1,2,-1
 269 736 l 1,3,-1
 179 736 l 1,0,-1
367 736 m 1,4,-1
 367 632 l 1,5,-1
 457 632 l 1,6,-1
 457 736 l 1,7,-1
 367 736 l 1,4,-1
532 40 m 1,8,-1
 532 557 l 1,9,-1
 447 557 l 1,10,-1
 447 265 l 2,11,12
 447 230 447 230 437.5 200.5 c 128,-1,13
 428 171 428 171 409 149 c 128,-1,14
 390 127 390 127 361.5 115 c 128,-1,15
 333 103 333 103 294 103 c 0,16,17
 245 103 245 103 217 131 c 128,-1,18
 189 159 189 159 189 207 c 2,19,-1
 189 557 l 1,20,-1
 104 557 l 1,21,-1
 104 217 l 2,22,23
 104 175 104 175 112.5 140.5 c 128,-1,24
 121 106 121 106 142 81 c 128,-1,25
 163 56 163 56 197 42.5 c 128,-1,26
 231 29 231 29 282 29 c 0,27,28
 339 29 339 29 381 51.5 c 128,-1,29
 423 74 423 74 450 122 c 1,30,-1
 452 122 l 1,31,-1
 452 40 l 1,32,-1
 532 40 l 1,8,-1
EndSplineSet
Ligature2: "<27,0> Canonical Decomposition lookup 0 subtable" u dieresiscmb
EndChar

StartChar: dagger
Encoding: 8224 8224 134
Width: 596
VWidth: 1040
Flags: W
LayerCount: 2
Fore
SplineSet
276 482 m 1,0,-1
 276 -114 l 1,1,-1
 356 -114 l 1,2,-1
 356 482 l 1,3,-1
 554 482 l 1,4,-1
 554 557 l 1,5,-1
 356 557 l 1,6,-1
 356 754 l 1,7,-1
 276 754 l 1,8,-1
 276 557 l 1,9,-1
 82 557 l 1,10,-1
 82 482 l 1,11,-1
 276 482 l 1,0,-1
EndSplineSet
EndChar

StartChar: degree
Encoding: 176 176 135
Width: 440
VWidth: 1040
Flags: W
LayerCount: 2
Fore
SplineSet
146 605 m 256,0,1
 146 623 146 623 152.5 639.5 c 128,-1,2
 159 656 159 656 171 669.5 c 128,-1,3
 183 683 183 683 200.5 691 c 128,-1,4
 218 699 218 699 240 699 c 256,5,6
 262 699 262 699 279.5 691 c 128,-1,7
 297 683 297 683 309 669.5 c 128,-1,8
 321 656 321 656 327.5 639.5 c 128,-1,9
 334 623 334 623 334 605 c 256,10,11
 334 587 334 587 327.5 570.5 c 128,-1,12
 321 554 321 554 309 540.5 c 128,-1,13
 297 527 297 527 279.5 519 c 128,-1,14
 262 511 262 511 240 511 c 256,15,16
 218 511 218 511 200.5 519 c 128,-1,17
 183 527 183 527 171 540.5 c 128,-1,18
 159 554 159 554 152.5 570.5 c 128,-1,19
 146 587 146 587 146 605 c 256,0,1
96 605 m 256,20,21
 96 575 96 575 107 548.5 c 128,-1,22
 118 522 118 522 137.5 502.5 c 128,-1,23
 157 483 157 483 183.5 472 c 128,-1,24
 210 461 210 461 240 461 c 256,25,26
 270 461 270 461 296 472 c 128,-1,27
 322 483 322 483 341.5 502.5 c 128,-1,28
 361 522 361 522 372.5 548.5 c 128,-1,29
 384 575 384 575 384 605 c 256,30,31
 384 635 384 635 372.5 661 c 128,-1,32
 361 687 361 687 341.5 706.5 c 128,-1,33
 322 726 322 726 296 737.5 c 128,-1,34
 270 749 270 749 240 749 c 256,35,36
 210 749 210 749 183.5 737.5 c 128,-1,37
 157 726 157 726 137.5 706.5 c 128,-1,38
 118 687 118 687 107 661 c 128,-1,39
 96 635 96 635 96 605 c 256,20,21
EndSplineSet
EndChar

StartChar: cent
Encoding: 162 162 136
Width: 596
VWidth: 1040
Flags: W
LayerCount: 2
Fore
SplineSet
312 29 m 1,0,-1
 312 -75 l 1,1,-1
 351 -75 l 1,2,-1
 351 29 l 1,3,4
 398 29 398 29 434.5 46 c 128,-1,5
 471 63 471 63 497 91.5 c 128,-1,6
 523 120 523 120 538 156 c 128,-1,7
 553 192 553 192 557 229 c 1,8,-1
 472 229 l 1,9,10
 464 178 464 178 434.5 143 c 128,-1,11
 405 108 405 108 351 103 c 1,12,-1
 351 494 l 1,13,14
 399 492 399 492 428 464.5 c 128,-1,15
 457 437 457 437 467 391 c 1,16,-1
 554 391 l 1,17,18
 548 436 548 436 531 469.5 c 128,-1,19
 514 503 514 503 487.5 524.5 c 128,-1,20
 461 546 461 546 426.5 557 c 128,-1,21
 392 568 392 568 351 569 c 1,22,-1
 351 664 l 1,23,-1
 312 664 l 1,24,-1
 312 569 l 1,25,26
 256 565 256 565 213.5 541.5 c 128,-1,27
 171 518 171 518 142.5 480.5 c 128,-1,28
 114 443 114 443 100 394.5 c 128,-1,29
 86 346 86 346 86 292 c 0,30,31
 86 237 86 237 101 189.5 c 128,-1,32
 116 142 116 142 144.5 107 c 128,-1,33
 173 72 173 72 215 51.5 c 128,-1,34
 257 31 257 31 312 29 c 1,0,-1
312 494 m 1,35,-1
 312 103 l 1,36,37
 276 106 276 106 250 123 c 128,-1,38
 224 140 224 140 207.5 166 c 128,-1,39
 191 192 191 192 183.5 225 c 128,-1,40
 176 258 176 258 176 292 c 0,41,42
 176 329 176 329 183 363.5 c 128,-1,43
 190 398 190 398 205.5 425.5 c 128,-1,44
 221 453 221 453 247 471 c 128,-1,45
 273 489 273 489 312 494 c 1,35,-1
EndSplineSet
EndChar

StartChar: sterling
Encoding: 163 163 137
Width: 596
VWidth: 1040
Flags: W
LayerCount: 2
Fore
SplineSet
87 412 m 1,0,-1
 87 367 l 1,1,-1
 172 367 l 1,2,3
 181 347 181 347 189 322 c 128,-1,4
 197 297 197 297 197 274 c 0,5,6
 197 245 197 245 188 219 c 128,-1,7
 179 193 179 193 163.5 170 c 128,-1,8
 148 147 148 147 128 128 c 128,-1,9
 108 109 108 109 87 95 c 1,10,-1
 134 30 l 1,11,12
 157 45 157 45 181 54.5 c 128,-1,13
 205 64 205 64 234 64 c 256,14,15
 263 64 263 64 288.5 57.5 c 128,-1,16
 314 51 314 51 339 43 c 0,17,18
 365 36 365 36 389 30 c 128,-1,19
 413 24 413 24 438 24 c 0,20,21
 477 24 477 24 515.5 33.5 c 128,-1,22
 554 43 554 43 584 69 c 1,23,-1
 541 135 l 1,24,25
 523 121 523 121 499.5 109.5 c 128,-1,26
 476 98 476 98 452 98 c 0,27,28
 429 98 429 98 408.5 104 c 128,-1,29
 388 110 388 110 368 116 c 0,30,31
 348 121 348 121 325 126 c 128,-1,32
 302 131 302 131 273 131 c 0,33,34
 243 131 243 131 218.5 122 c 128,-1,35
 194 113 194 113 168 102 c 1,36,-1
 166 104 l 1,37,38
 188 122 188 122 209 141 c 128,-1,39
 230 160 230 160 246 182.5 c 128,-1,40
 262 205 262 205 272 231.5 c 128,-1,41
 282 258 282 258 282 292 c 0,42,43
 282 313 282 313 276 332 c 128,-1,44
 270 351 270 351 262 367 c 1,45,-1
 399 367 l 1,46,-1
 399 412 l 1,47,-1
 240 412 l 1,48,49
 231 430 231 430 222 447 c 128,-1,50
 213 464 213 464 205.5 482 c 128,-1,51
 198 500 198 500 193 520.5 c 128,-1,52
 188 541 188 541 188 565 c 0,53,54
 188 593 188 593 199 617 c 128,-1,55
 210 641 210 641 229.5 658.5 c 128,-1,56
 249 676 249 676 275 686 c 128,-1,57
 301 696 301 696 331 696 c 0,58,59
 403 696 403 696 439 648.5 c 128,-1,60
 475 601 475 601 477 513 c 1,61,-1
 562 513 l 1,62,63
 564 642 564 642 500.5 706.5 c 128,-1,64
 437 771 437 771 326 771 c 0,65,66
 280 771 280 771 239 757 c 128,-1,67
 198 743 198 743 166.5 717 c 128,-1,68
 135 691 135 691 116.5 653.5 c 128,-1,69
 98 616 98 616 98 568 c 256,70,71
 98 520 98 520 111.5 483 c 128,-1,72
 125 446 125 446 145 412 c 1,73,-1
 87 412 l 1,0,-1
EndSplineSet
EndChar

StartChar: section
Encoding: 167 167 138
Width: 596
VWidth: 1040
Flags: W
LayerCount: 2
Fore
SplineSet
420 586 m 1,0,-1
 505 586 l 1,1,2
 503 680 503 680 453 725.5 c 128,-1,3
 403 771 403 771 321 771 c 0,4,5
 287 771 287 771 253.5 760.5 c 128,-1,6
 220 750 220 750 194 729 c 128,-1,7
 168 708 168 708 152 678 c 128,-1,8
 136 648 136 648 136 609 c 0,9,10
 136 577 136 577 148 551.5 c 128,-1,11
 160 526 160 526 182 503 c 1,12,13
 160 497 160 497 140.5 483.5 c 128,-1,14
 121 470 121 470 106.5 451.5 c 128,-1,15
 92 433 92 433 83.5 410.5 c 128,-1,16
 75 388 75 388 75 365 c 0,17,18
 75 324 75 324 90 293 c 128,-1,19
 105 262 105 262 129.5 237 c 128,-1,20
 154 212 154 212 185.5 192.5 c 128,-1,21
 217 173 217 173 249 156 c 0,22,23
 282 138 282 138 313 121 c 128,-1,24
 344 104 344 104 368.5 86 c 128,-1,25
 393 68 393 68 408 47 c 128,-1,26
 423 26 423 26 423 1 c 0,27,28
 423 -20 423 -20 414 -35.5 c 128,-1,29
 405 -51 405 -51 391 -61.5 c 128,-1,30
 377 -72 377 -72 358.5 -77 c 128,-1,31
 340 -82 340 -82 322 -82 c 0,32,33
 271 -82 271 -82 240 -50.5 c 128,-1,34
 209 -19 209 -19 208 32 c 1,35,-1
 123 32 l 1,36,37
 129 -56 129 -56 181.5 -106.5 c 128,-1,38
 234 -157 234 -157 324 -157 c 0,39,40
 365 -157 365 -157 399 -145.5 c 128,-1,41
 433 -134 433 -134 458 -113 c 128,-1,42
 483 -92 483 -92 497 -62.5 c 128,-1,43
 511 -33 511 -33 511 3 c 0,44,45
 511 78 511 78 452 122 c 1,46,47
 497 140 497 140 526.5 179.5 c 128,-1,48
 556 219 556 219 556 269 c 0,49,50
 556 306 556 306 541.5 334.5 c 128,-1,51
 527 363 527 363 504 386 c 128,-1,52
 481 409 481 409 451 427.5 c 128,-1,53
 421 446 421 446 390 463 c 128,-1,54
 359 480 359 480 329 496 c 128,-1,55
 299 512 299 512 275.5 529.5 c 128,-1,56
 252 547 252 547 238 566.5 c 128,-1,57
 224 586 224 586 224 610 c 0,58,59
 224 655 224 655 251.5 675.5 c 128,-1,60
 279 696 279 696 319 696 c 0,61,62
 367 696 367 696 393 664 c 128,-1,63
 419 632 419 632 420 586 c 1,0,-1
230 460 m 1,64,65
 264 437 264 437 298.5 416.5 c 128,-1,66
 333 396 333 396 368 375 c 0,67,68
 384 365 384 365 402.5 353.5 c 128,-1,69
 421 342 421 342 437 327.5 c 128,-1,70
 453 313 453 313 463.5 295.5 c 128,-1,71
 474 278 474 278 474 257 c 0,72,73
 474 223 474 223 452.5 199.5 c 128,-1,74
 431 176 431 176 402 164 c 1,75,76
 368 187 368 187 333 207.5 c 128,-1,77
 298 228 298 228 262 247 c 0,78,79
 244 258 244 258 225 269.5 c 128,-1,80
 206 281 206 281 191 295 c 128,-1,81
 176 309 176 309 166.5 327 c 128,-1,82
 157 345 157 345 157 369 c 0,83,84
 157 401 157 401 179 425.5 c 128,-1,85
 201 450 201 450 230 460 c 1,64,65
EndSplineSet
EndChar

StartChar: bullet
Encoding: 8226 8226 139
Width: 540
VWidth: 1040
Flags: W
LayerCount: 2
Fore
SplineSet
112 397 m 256,0,1
 112 360 112 360 126 327.5 c 128,-1,2
 140 295 140 295 164 270.5 c 128,-1,3
 188 246 188 246 220.5 232 c 128,-1,4
 253 218 253 218 290 218 c 256,5,6
 327 218 327 218 359.5 232 c 128,-1,7
 392 246 392 246 416.5 270.5 c 128,-1,8
 441 295 441 295 455 327.5 c 128,-1,9
 469 360 469 360 469 397 c 256,10,11
 469 434 469 434 455 466.5 c 128,-1,12
 441 499 441 499 416.5 523 c 128,-1,13
 392 547 392 547 359.5 561 c 128,-1,14
 327 575 327 575 290 575 c 256,15,16
 253 575 253 575 220.5 561 c 128,-1,17
 188 547 188 547 164 523 c 128,-1,18
 140 499 140 499 126 466.5 c 128,-1,19
 112 434 112 434 112 397 c 256,0,1
EndSplineSet
EndChar

StartChar: paragraph
Encoding: 182 182 140
Width: 640
VWidth: 1040
Flags: W
LayerCount: 2
Fore
SplineSet
555 -114 m 1,0,-1
 555 754 l 1,1,-1
 316 754 l 2,2,3
 210 754 210 754 149 700.5 c 128,-1,4
 88 647 88 647 88 548 c 0,5,6
 88 509 88 509 103.5 475 c 128,-1,7
 119 441 119 441 146.5 416 c 128,-1,8
 174 391 174 391 212.5 376.5 c 128,-1,9
 251 362 251 362 297 362 c 1,10,-1
 297 -114 l 1,11,-1
 365 -114 l 1,12,-1
 365 699 l 1,13,-1
 487 699 l 1,14,-1
 487 -114 l 1,15,-1
 555 -114 l 1,0,-1
EndSplineSet
EndChar

StartChar: germandbls
Encoding: 223 223 141
Width: 596
VWidth: 1040
Flags: W
LayerCount: 2
Fore
SplineSet
104 571 m 2,0,-1
 104 40 l 1,1,-1
 189 40 l 1,2,-1
 189 556 l 2,3,4
 189 598 189 598 198 625 c 128,-1,5
 207 652 207 652 222.5 667.5 c 128,-1,6
 238 683 238 683 260 689.5 c 128,-1,7
 282 696 282 696 308 696 c 0,8,9
 332 696 332 696 352 687 c 128,-1,10
 372 678 372 678 387 663 c 128,-1,11
 402 648 402 648 410.5 627.5 c 128,-1,12
 419 607 419 607 419 583 c 0,13,14
 419 549 419 549 406.5 525.5 c 128,-1,15
 394 502 394 502 373 488.5 c 128,-1,16
 352 475 352 475 324.5 470 c 128,-1,17
 297 465 297 465 267 467 c 1,18,-1
 267 399 l 1,19,20
 309 399 309 399 343 394 c 128,-1,21
 377 389 377 389 401 373 c 128,-1,22
 425 357 425 357 438 327.5 c 128,-1,23
 451 298 451 298 451 249 c 0,24,25
 451 183 451 183 410.5 143 c 128,-1,26
 370 103 370 103 301 103 c 0,27,28
 293 103 293 103 284 103.5 c 128,-1,29
 275 104 275 104 267 106 c 1,30,-1
 267 33 l 1,31,32
 287 29 287 29 310 29 c 0,33,34
 361 29 361 29 403.5 45.5 c 128,-1,35
 446 62 446 62 476.5 92.5 c 128,-1,36
 507 123 507 123 524 165.5 c 128,-1,37
 541 208 541 208 541 260 c 0,38,39
 541 293 541 293 532.5 323.5 c 128,-1,40
 524 354 524 354 507 378 c 128,-1,41
 490 402 490 402 464.5 418.5 c 128,-1,42
 439 435 439 435 405 439 c 1,43,-1
 405 441 l 1,44,45
 462 459 462 459 485.5 499 c 128,-1,46
 509 539 509 539 509 596 c 0,47,48
 509 640 509 640 490.5 672.5 c 128,-1,49
 472 705 472 705 442.5 727 c 128,-1,50
 413 749 413 749 376 760 c 128,-1,51
 339 771 339 771 302 771 c 0,52,53
 257 771 257 771 220.5 756.5 c 128,-1,54
 184 742 184 742 158 715.5 c 128,-1,55
 132 689 132 689 118 652.5 c 128,-1,56
 104 616 104 616 104 571 c 2,0,-1
EndSplineSet
EndChar

StartChar: registered
Encoding: 174 174 142
Width: 840
VWidth: 1040
Flags: W
LayerCount: 2
Fore
SplineSet
363 422 m 1,0,-1
 363 561 l 1,1,-1
 453 561 l 2,2,3
 470 561 470 561 487.5 558.5 c 128,-1,4
 505 556 505 556 518.5 549 c 128,-1,5
 532 542 532 542 540.5 529 c 128,-1,6
 549 516 549 516 549 494 c 0,7,8
 549 468 549 468 539.5 453.5 c 128,-1,9
 530 439 530 439 514 432 c 128,-1,10
 498 425 498 425 477.5 423.5 c 128,-1,11
 457 422 457 422 434 422 c 2,12,-1
 363 422 l 1,0,-1
295 616 m 1,13,-1
 295 179 l 1,14,-1
 363 179 l 1,15,-1
 363 367 l 1,16,-1
 435 367 l 1,17,-1
 554 179 l 1,18,-1
 627 179 l 1,19,-1
 502 372 l 1,20,21
 551 377 551 377 584 404.5 c 128,-1,22
 617 432 617 432 617 491 c 0,23,24
 617 554 617 554 579.5 585 c 128,-1,25
 542 616 542 616 464 616 c 2,26,-1
 295 616 l 1,13,-1
132 399 m 0,27,28
 132 466 132 466 155.5 524 c 128,-1,29
 179 582 179 582 220.5 624.5 c 128,-1,30
 262 667 262 667 318.5 691.5 c 128,-1,31
 375 716 375 716 441 716 c 0,32,33
 506 716 506 716 562 691.5 c 128,-1,34
 618 667 618 667 659.5 624.5 c 128,-1,35
 701 582 701 582 724.5 524 c 128,-1,36
 748 466 748 466 748 399 c 0,37,38
 748 330 748 330 724.5 271.5 c 128,-1,39
 701 213 701 213 659.5 170 c 128,-1,40
 618 127 618 127 562 102.5 c 128,-1,41
 506 78 506 78 441 78 c 0,42,43
 375 78 375 78 318.5 102.5 c 128,-1,44
 262 127 262 127 220.5 170 c 128,-1,45
 179 213 179 213 155.5 271.5 c 128,-1,46
 132 330 132 330 132 399 c 0,27,28
64 399 m 0,47,48
 64 318 64 318 94 249.5 c 128,-1,49
 124 181 124 181 175.5 130.5 c 128,-1,50
 227 80 227 80 295.5 52 c 128,-1,51
 364 24 364 24 441 24 c 256,52,53
 518 24 518 24 586 52 c 128,-1,54
 654 80 654 80 705 130.5 c 128,-1,55
 756 181 756 181 786 249.5 c 128,-1,56
 816 318 816 318 816 399 c 0,57,58
 816 478 816 478 786 546 c 128,-1,59
 756 614 756 614 705 664 c 128,-1,60
 654 714 654 714 586 742.5 c 128,-1,61
 518 771 518 771 441 771 c 256,62,63
 364 771 364 771 295.5 742.5 c 128,-1,64
 227 714 227 714 175.5 664 c 128,-1,65
 124 614 124 614 94 546 c 128,-1,66
 64 478 64 478 64 399 c 0,47,48
EndSplineSet
EndChar

StartChar: copyright
Encoding: 169 169 143
Width: 840
VWidth: 1040
Flags: W
LayerCount: 2
Fore
SplineSet
639 325 m 1,0,-1
 575 325 l 1,1,2
 568 280 568 280 536 251.5 c 128,-1,3
 504 223 504 223 453 223 c 0,4,5
 417 223 417 223 388.5 237.5 c 128,-1,6
 360 252 360 252 340 276 c 128,-1,7
 320 300 320 300 309.5 332 c 128,-1,8
 299 364 299 364 299 399 c 0,9,10
 299 435 299 435 309 466 c 128,-1,11
 319 497 319 497 338 520.5 c 128,-1,12
 357 544 357 544 385.5 557 c 128,-1,13
 414 570 414 570 451 570 c 0,14,15
 502 570 502 570 534.5 542.5 c 128,-1,16
 567 515 567 515 575 473 c 1,17,-1
 638 473 l 1,18,19
 626 548 626 548 574 586.5 c 128,-1,20
 522 625 522 625 450 625 c 0,21,22
 399 625 399 625 358 608 c 128,-1,23
 317 591 317 591 289 561 c 128,-1,24
 261 531 261 531 246 489 c 128,-1,25
 231 447 231 447 231 397 c 0,26,27
 231 348 231 348 246.5 306 c 128,-1,28
 262 264 262 264 291 233.5 c 128,-1,29
 320 203 320 203 361 185.5 c 128,-1,30
 402 168 402 168 453 168 c 0,31,32
 522 168 522 168 572.5 210 c 128,-1,33
 623 252 623 252 639 325 c 1,0,-1
132 399 m 0,34,35
 132 466 132 466 155.5 524 c 128,-1,36
 179 582 179 582 220.5 624.5 c 128,-1,37
 262 667 262 667 318.5 691.5 c 128,-1,38
 375 716 375 716 441 716 c 0,39,40
 506 716 506 716 562 691.5 c 128,-1,41
 618 667 618 667 659.5 624.5 c 128,-1,42
 701 582 701 582 724.5 524 c 128,-1,43
 748 466 748 466 748 399 c 0,44,45
 748 330 748 330 724.5 271.5 c 128,-1,46
 701 213 701 213 659.5 170 c 128,-1,47
 618 127 618 127 562 102.5 c 128,-1,48
 506 78 506 78 441 78 c 0,49,50
 375 78 375 78 318.5 102.5 c 128,-1,51
 262 127 262 127 220.5 170 c 128,-1,52
 179 213 179 213 155.5 271.5 c 128,-1,53
 132 330 132 330 132 399 c 0,34,35
64 399 m 0,54,55
 64 318 64 318 94 249.5 c 128,-1,56
 124 181 124 181 175.5 130.5 c 128,-1,57
 227 80 227 80 295.5 52 c 128,-1,58
 364 24 364 24 441 24 c 256,59,60
 518 24 518 24 586 52 c 128,-1,61
 654 80 654 80 705 130.5 c 128,-1,62
 756 181 756 181 786 249.5 c 128,-1,63
 816 318 816 318 816 399 c 0,64,65
 816 478 816 478 786 546 c 128,-1,66
 756 614 756 614 705 664 c 128,-1,67
 654 714 654 714 586 742.5 c 128,-1,68
 518 771 518 771 441 771 c 256,69,70
 364 771 364 771 295.5 742.5 c 128,-1,71
 227 714 227 714 175.5 664 c 128,-1,72
 124 614 124 614 94 546 c 128,-1,73
 64 478 64 478 64 399 c 0,54,55
EndSplineSet
EndChar

StartChar: trademark
Encoding: 8482 8482 144
Width: 1030
VWidth: 1040
Flags: W
LayerCount: 2
Fore
SplineSet
967 342 m 1,0,-1
 967 754 l 1,1,-1
 863 754 l 1,2,-1
 742 441 l 1,3,-1
 619 754 l 1,4,-1
 514 754 l 1,5,-1
 514 342 l 1,6,-1
 582 342 l 1,7,-1
 582 686 l 1,8,-1
 584 686 l 1,9,-1
 719 342 l 1,10,-1
 762 342 l 1,11,-1
 897 686 l 1,12,-1
 899 686 l 1,13,-1
 899 342 l 1,14,-1
 967 342 l 1,0,-1
430 699 m 1,15,-1
 430 754 l 1,16,-1
 104 754 l 1,17,-1
 104 699 l 1,18,-1
 233 699 l 1,19,-1
 233 342 l 1,20,-1
 301 342 l 1,21,-1
 301 699 l 1,22,-1
 430 699 l 1,15,-1
EndSplineSet
EndChar

StartChar: acute
Encoding: 180 180 145
Width: 262
VWidth: 1040
Flags: W
LayerCount: 2
Fore
SplineSet
176 771 m 1,0,-1
 90 628 l 1,1,-1
 154 628 l 1,2,-1
 285 771 l 1,3,-1
 176 771 l 1,0,-1
EndSplineSet
EndChar

StartChar: dieresis
Encoding: 168 168 146
Width: 262
VWidth: 1040
Flags: W
LayerCount: 2
Fore
SplineSet
13 736 m 1,0,-1
 13 632 l 1,1,-1
 102 632 l 1,2,-1
 102 736 l 1,3,-1
 13 736 l 1,0,-1
200 736 m 1,4,-1
 200 632 l 1,5,-1
 290 632 l 1,6,-1
 290 736 l 1,7,-1
 200 736 l 1,4,-1
EndSplineSet
EndChar

StartChar: notequal
Encoding: 8800 8800 147
Width: 640
VWidth: 1040
Flags: W
LayerCount: 2
Fore
SplineSet
168 48 m 1,0,-1
 226 158 l 1,1,-1
 88 158 l 1,2,-1
 88 226 l 1,3,-1
 262 226 l 1,4,-1
 332 360 l 1,5,-1
 88 360 l 1,6,-1
 88 428 l 1,7,-1
 368 428 l 1,8,-1
 443 570 l 1,9,-1
 500 541 l 1,10,-1
 440 428 l 1,11,-1
 592 428 l 1,12,-1
 592 360 l 1,13,-1
 405 360 l 1,14,-1
 335 226 l 1,15,-1
 592 226 l 1,16,-1
 592 158 l 1,17,-1
 299 158 l 1,18,-1
 226 18 l 1,19,-1
 168 48 l 1,0,-1
EndSplineSet
EndChar

StartChar: AE
Encoding: 198 198 148
Width: 966
VWidth: 1040
Flags: W
LayerCount: 2
Fore
SplineSet
447 674 m 1,0,-1
 488 674 l 1,1,-1
 488 328 l 1,2,-1
 279 328 l 1,3,-1
 447 674 l 1,0,-1
394 754 m 1,4,-1
 34 40 l 1,5,-1
 140 40 l 1,6,-1
 242 248 l 1,7,-1
 488 248 l 1,8,-1
 488 40 l 1,9,-1
 935 40 l 1,10,-1
 935 120 l 1,11,-1
 578 120 l 1,12,-1
 578 367 l 1,13,-1
 908 367 l 1,14,-1
 908 447 l 1,15,-1
 578 447 l 1,16,-1
 578 674 l 1,17,-1
 929 674 l 1,18,-1
 929 754 l 1,19,-1
 394 754 l 1,4,-1
EndSplineSet
EndChar

StartChar: Oslash
Encoding: 216 216 149
Width: 800
VWidth: 1040
Flags: W
LayerCount: 2
Fore
SplineSet
763 740 m 1,0,-1
 731 770 l 1,1,-1
 652 683 l 1,2,3
 610 725 610 725 552.5 748 c 128,-1,4
 495 771 495 771 420 771 c 0,5,6
 335 771 335 771 271 740 c 128,-1,7
 207 709 207 709 164 657 c 128,-1,8
 121 605 121 605 99.5 537.5 c 128,-1,9
 78 470 78 470 78 397 c 0,10,11
 78 325 78 325 98.5 259 c 128,-1,12
 119 193 119 193 161 142 c 1,13,-1
 77 50 l 1,14,-1
 110 21 l 1,15,-1
 191 109 l 1,16,17
 233 69 233 69 290 46.5 c 128,-1,18
 347 24 347 24 420 24 c 0,19,20
 505 24 505 24 569 54.5 c 128,-1,21
 633 85 633 85 676 137 c 128,-1,22
 719 189 719 189 740.5 256.5 c 128,-1,23
 762 324 762 324 762 397 c 0,24,25
 762 469 762 469 742.5 533.5 c 128,-1,26
 723 598 723 598 681 650 c 1,27,-1
 763 740 l 1,0,-1
250 174 m 1,28,-1
 619 581 l 1,29,30
 644 542 644 542 655.5 494 c 128,-1,31
 667 446 667 446 667 397 c 0,32,33
 667 343 667 343 653 290.5 c 128,-1,34
 639 238 639 238 609 196 c 128,-1,35
 579 154 579 154 532 128.5 c 128,-1,36
 485 103 485 103 420 103 c 0,37,38
 363 103 363 103 321 122 c 128,-1,39
 279 141 279 141 250 174 c 1,28,-1
592 617 m 1,40,-1
 223 210 l 1,41,42
 197 250 197 250 185 298 c 128,-1,43
 173 346 173 346 173 397 c 0,44,45
 173 451 173 451 187 503.5 c 128,-1,46
 201 556 201 556 231 598 c 128,-1,47
 261 640 261 640 308 665.5 c 128,-1,48
 355 691 355 691 420 691 c 0,49,50
 477 691 477 691 520 671 c 128,-1,51
 563 651 563 651 592 617 c 1,40,-1
EndSplineSet
EndChar

StartChar: infinity
Encoding: 8734 8734 150
Width: 784
VWidth: 1040
Flags: W
LayerCount: 2
Fore
SplineSet
221 132 m 0,0,1
 185 132 185 132 156.5 144.5 c 128,-1,2
 128 157 128 157 108 178.5 c 128,-1,3
 88 200 88 200 77 230 c 128,-1,4
 66 260 66 260 66 295 c 0,5,6
 66 329 66 329 76.5 359 c 128,-1,7
 87 389 87 389 106.5 411.5 c 128,-1,8
 126 434 126 434 154 447 c 128,-1,9
 182 460 182 460 218 460 c 0,10,11
 249 460 249 460 276 449.5 c 128,-1,12
 303 439 303 439 327 422.5 c 128,-1,13
 351 406 351 406 372 385.5 c 128,-1,14
 393 365 393 365 413 344 c 1,15,16
 432 365 432 365 452.5 385.5 c 128,-1,17
 473 406 473 406 496.5 422.5 c 128,-1,18
 520 439 520 439 546.5 449.5 c 128,-1,19
 573 460 573 460 603 460 c 0,20,21
 638 460 638 460 666.5 447.5 c 128,-1,22
 695 435 695 435 715.5 413 c 128,-1,23
 736 391 736 391 747 361 c 128,-1,24
 758 331 758 331 758 297 c 0,25,26
 758 262 758 262 747.5 232 c 128,-1,27
 737 202 737 202 717 180 c 128,-1,28
 697 158 697 158 668.5 145 c 128,-1,29
 640 132 640 132 604 132 c 0,30,31
 574 132 574 132 547.5 141.5 c 128,-1,32
 521 151 521 151 498 166.5 c 128,-1,33
 475 182 475 182 453.5 201.5 c 128,-1,34
 432 221 432 221 413 242 c 1,35,36
 393 222 393 222 372.5 202.5 c 128,-1,37
 352 183 352 183 328.5 167 c 128,-1,38
 305 151 305 151 278.5 141.5 c 128,-1,39
 252 132 252 132 221 132 c 0,0,1
221 209 m 0,40,41
 241 209 241 209 261 217 c 128,-1,42
 281 225 281 225 299.5 238 c 128,-1,43
 318 251 318 251 334.5 265.5 c 128,-1,44
 351 280 351 280 364 294 c 1,45,46
 350 307 350 307 333 323 c 128,-1,47
 316 339 316 339 297 352 c 128,-1,48
 278 365 278 365 258 374 c 128,-1,49
 238 383 238 383 218 383 c 0,50,51
 181 383 181 383 160 356 c 128,-1,52
 139 329 139 329 139 295 c 0,53,54
 139 257 139 257 161 233 c 128,-1,55
 183 209 183 209 221 209 c 0,40,41
606 209 m 0,56,57
 644 209 644 209 664.5 233.5 c 128,-1,58
 685 258 685 258 685 294 c 0,59,60
 685 332 685 332 664 357.5 c 128,-1,61
 643 383 643 383 603 383 c 0,62,63
 583 383 583 383 563 374 c 128,-1,64
 543 365 543 365 524.5 351.5 c 128,-1,65
 506 338 506 338 489.5 322 c 128,-1,66
 473 306 473 306 460 293 c 1,67,68
 475 279 475 279 491.5 264 c 128,-1,69
 508 249 508 249 526 237 c 128,-1,70
 544 225 544 225 564 217 c 128,-1,71
 584 209 584 209 606 209 c 0,56,57
EndSplineSet
EndChar

StartChar: plusminus
Encoding: 177 177 151
Width: 640
VWidth: 1040
Flags: W
LayerCount: 2
Fore
SplineSet
88 108 m 1,0,-1
 88 40 l 1,1,-1
 592 40 l 1,2,-1
 592 108 l 1,3,-1
 88 108 l 1,0,-1
88 379 m 1,4,-1
 88 311 l 1,5,-1
 306 311 l 1,6,-1
 306 144 l 1,7,-1
 374 144 l 1,8,-1
 374 311 l 1,9,-1
 592 311 l 1,10,-1
 592 379 l 1,11,-1
 374 379 l 1,12,-1
 374 545 l 1,13,-1
 306 545 l 1,14,-1
 306 379 l 1,15,-1
 88 379 l 1,4,-1
EndSplineSet
EndChar

StartChar: lessequal
Encoding: 8804 8804 152
Width: 640
VWidth: 1040
Flags: W
LayerCount: 2
Fore
SplineSet
88 85 m 1,0,-1
 592 85 l 1,1,-1
 592 17 l 1,2,-1
 88 17 l 1,3,-1
 88 85 l 1,0,-1
88 310 m 1,4,-1
 88 379 l 1,5,-1
 592 567 l 1,6,-1
 592 493 l 1,7,-1
 186 344 l 1,8,-1
 592 198 l 1,9,-1
 592 123 l 1,10,-1
 88 310 l 1,4,-1
EndSplineSet
EndChar

StartChar: greaterequal
Encoding: 8805 8805 153
Width: 640
VWidth: 1040
Flags: W
LayerCount: 2
Fore
SplineSet
88 17 m 1,0,-1
 88 85 l 1,1,-1
 592 85 l 1,2,-1
 592 17 l 1,3,-1
 88 17 l 1,0,-1
88 123 m 1,4,-1
 88 198 l 1,5,-1
 494 344 l 1,6,-1
 88 493 l 1,7,-1
 88 567 l 1,8,-1
 592 379 l 1,9,-1
 592 310 l 1,10,-1
 88 123 l 1,4,-1
EndSplineSet
EndChar

StartChar: yen
Encoding: 165 165 154
Width: 596
VWidth: 1040
Flags: W
LayerCount: 2
Fore
SplineSet
272 214 m 1,0,-1
 272 40 l 1,1,-1
 367 40 l 1,2,-1
 367 214 l 1,3,-1
 511 214 l 1,4,-1
 511 274 l 1,5,-1
 367 274 l 1,6,-1
 367 316 l 1,7,-1
 385 349 l 1,8,-1
 511 349 l 1,9,-1
 511 409 l 1,10,-1
 418 409 l 1,11,-1
 596 754 l 1,12,-1
 492 754 l 1,13,-1
 323 401 l 1,14,-1
 149 754 l 1,15,-1
 40 754 l 1,16,-1
 223 409 l 1,17,-1
 131 409 l 1,18,-1
 131 349 l 1,19,-1
 254 349 l 1,20,-1
 272 316 l 1,21,-1
 272 274 l 1,22,-1
 131 274 l 1,23,-1
 131 214 l 1,24,-1
 272 214 l 1,0,-1
EndSplineSet
EndChar

StartChar: mu
Encoding: 181 181 155
Width: 596
VWidth: 1040
Flags: W
LayerCount: 2
Fore
SplineSet
532 40 m 1,0,-1
 532 557 l 1,1,-1
 447 557 l 1,2,-1
 447 265 l 2,3,4
 447 230 447 230 437.5 200.5 c 128,-1,5
 428 171 428 171 409 149 c 128,-1,6
 390 127 390 127 361.5 115 c 128,-1,7
 333 103 333 103 294 103 c 0,8,9
 245 103 245 103 217 131 c 128,-1,10
 189 159 189 159 189 207 c 2,11,-1
 189 557 l 1,12,-1
 104 557 l 1,13,-1
 104 -157 l 1,14,-1
 189 -157 l 1,15,-1
 189 66 l 1,16,-1
 191 66 l 1,17,18
 204 46 204 46 227 37.5 c 128,-1,19
 250 29 250 29 282 29 c 0,20,21
 339 29 339 29 381 51.5 c 128,-1,22
 423 74 423 74 450 122 c 1,23,-1
 452 122 l 1,24,-1
 452 40 l 1,25,-1
 532 40 l 1,0,-1
EndSplineSet
EndChar

StartChar: partialdiff
Encoding: 8706 8706 156
Width: 574
VWidth: 1040
Flags: W
LayerCount: 2
Fore
SplineSet
285 28 m 0,0,1
 237 28 237 28 198 46 c 128,-1,2
 159 64 159 64 132 95 c 128,-1,3
 105 126 105 126 90 167 c 128,-1,4
 75 208 75 208 75 254 c 0,5,6
 75 299 75 299 89.5 338.5 c 128,-1,7
 104 378 104 378 130.5 407.5 c 128,-1,8
 157 437 157 437 195 453.5 c 128,-1,9
 233 470 233 470 280 470 c 0,10,11
 325 470 325 470 364.5 451.5 c 128,-1,12
 404 433 404 433 435 401 c 1,13,-1
 436 438 l 2,14,15
 437 477 437 477 429 521 c 128,-1,16
 421 565 421 565 401.5 602.5 c 128,-1,17
 382 640 382 640 349.5 665 c 128,-1,18
 317 690 317 690 269 690 c 0,19,20
 235 690 235 690 207.5 676.5 c 128,-1,21
 180 663 180 663 154 643 c 1,22,-1
 106 699 l 1,23,24
 143 728 143 728 180.5 744.5 c 128,-1,25
 218 761 218 761 266 761 c 0,26,27
 341 761 341 761 390.5 728 c 128,-1,28
 440 695 440 695 470 643 c 128,-1,29
 500 591 500 591 512 527 c 128,-1,30
 524 463 524 463 524 401 c 0,31,32
 524 341 524 341 515 275.5 c 128,-1,33
 506 210 506 210 480 155 c 128,-1,34
 454 100 454 100 407.5 64 c 128,-1,35
 361 28 361 28 285 28 c 0,0,1
287 96 m 0,36,37
 329 96 329 96 356.5 119 c 128,-1,38
 384 142 384 142 401 176.5 c 128,-1,39
 418 211 418 211 425 250.5 c 128,-1,40
 432 290 432 290 432 323 c 1,41,42
 405 356 405 356 370.5 378.5 c 128,-1,43
 336 401 336 401 291 401 c 0,44,45
 259 401 259 401 234.5 388.5 c 128,-1,46
 210 376 210 376 193.5 355 c 128,-1,47
 177 334 177 334 169 307 c 128,-1,48
 161 280 161 280 161 250 c 0,49,50
 161 221 161 221 168.5 193.5 c 128,-1,51
 176 166 176 166 192 144.5 c 128,-1,52
 208 123 208 123 231.5 109.5 c 128,-1,53
 255 96 255 96 287 96 c 0,36,37
EndSplineSet
EndChar

StartChar: summation
Encoding: 8721 8721 157
Width: 616
VWidth: 1040
Flags: W
LayerCount: 2
Fore
SplineSet
40 -102 m 1,0,-1
 356 331 l 1,1,-1
 54 754 l 1,2,-1
 54 826 l 1,3,-1
 604 826 l 1,4,-1
 604 746 l 1,5,-1
 172 746 l 1,6,-1
 464 332 l 1,7,-1
 153 -94 l 1,8,-1
 616 -94 l 1,9,-1
 616 -174 l 1,10,-1
 40 -174 l 1,11,-1
 40 -102 l 1,0,-1
EndSplineSet
EndChar

StartChar: product
Encoding: 8719 8719 158
Width: 790
VWidth: 1040
Flags: W
LayerCount: 2
Fore
SplineSet
118 826 m 1,0,-1
 712 826 l 1,1,-1
 712 -174 l 1,2,-1
 617 -174 l 1,3,-1
 617 746 l 1,4,-1
 213 746 l 1,5,-1
 213 -174 l 1,6,-1
 118 -174 l 1,7,-1
 118 826 l 1,0,-1
EndSplineSet
EndChar

StartChar: pi
Encoding: 960 960 159
Width: 662
VWidth: 1040
Flags: W
LayerCount: 2
Fore
SplineSet
549 33 m 0,0,1
 517 33 517 33 499 43 c 128,-1,2
 481 53 481 53 472 70 c 128,-1,3
 463 87 463 87 460.5 109.5 c 128,-1,4
 458 132 458 132 458 158 c 2,5,-1
 458 482 l 1,6,-1
 225 482 l 1,7,-1
 225 40 l 1,8,-1
 140 40 l 1,9,-1
 140 482 l 1,10,-1
 70 482 l 1,11,-1
 70 557 l 1,12,-1
 620 557 l 1,13,-1
 620 482 l 1,14,-1
 543 482 l 1,15,-1
 543 168 l 2,16,17
 543 157 543 157 543.5 146 c 128,-1,18
 544 135 544 135 547.5 126 c 128,-1,19
 551 117 551 117 558.5 111.5 c 128,-1,20
 566 106 566 106 581 106 c 0,21,22
 592 106 592 106 602.5 109 c 128,-1,23
 613 112 613 112 624 117 c 1,24,-1
 624 52 l 1,25,26
 605 43 605 43 587.5 38 c 128,-1,27
 570 33 570 33 549 33 c 0,0,1
EndSplineSet
EndChar

StartChar: integral
Encoding: 8747 8747 160
Width: 383
VWidth: 1040
Flags: W
LayerCount: 2
Fore
SplineSet
120 -173 m 0,0,1
 108 -173 108 -173 94 -169.5 c 128,-1,2
 80 -166 80 -166 68 -159 c 128,-1,3
 56 -152 56 -152 48 -141 c 128,-1,4
 40 -130 40 -130 40 -115 c 0,5,6
 40 -98 40 -98 51 -85.5 c 128,-1,7
 62 -73 62 -73 80 -73 c 0,8,9
 95 -73 95 -73 103.5 -81 c 128,-1,10
 112 -89 112 -89 118 -99 c 128,-1,11
 124 -109 124 -109 128 -117 c 128,-1,12
 132 -125 132 -125 138 -125 c 0,13,14
 149 -125 149 -125 154 -113 c 128,-1,15
 159 -101 159 -101 160.5 -85 c 128,-1,16
 162 -69 162 -69 161.5 -54.5 c 128,-1,17
 161 -40 161 -40 161 -34 c 0,18,19
 161 114 161 114 161 218 c 128,-1,20
 161 322 161 322 161 391.5 c 128,-1,21
 161 461 161 461 160.5 501.5 c 128,-1,22
 160 542 160 542 160 564 c 128,-1,23
 160 586 160 586 160 595 c 128,-1,24
 160 604 160 604 160 611 c 0,25,26
 160 648 160 648 164 686.5 c 128,-1,27
 168 725 168 725 181.5 756 c 128,-1,28
 195 787 195 787 222 806.5 c 128,-1,29
 249 826 249 826 294 826 c 0,30,31
 308 826 308 826 323.5 822.5 c 128,-1,32
 339 819 339 819 352.5 811.5 c 128,-1,33
 366 804 366 804 374.5 792.5 c 128,-1,34
 383 781 383 781 383 764 c 0,35,36
 383 746 383 746 369.5 733.5 c 128,-1,37
 356 721 356 721 338 721 c 0,38,39
 323 721 323 721 313.5 729 c 128,-1,40
 304 737 304 737 298 746 c 128,-1,41
 292 755 292 755 287.5 763 c 128,-1,42
 283 771 283 771 277 771 c 0,43,44
 267 771 267 771 262 758 c 128,-1,45
 257 745 257 745 254.5 728.5 c 128,-1,46
 252 712 252 712 252 696 c 128,-1,47
 252 680 252 680 252 673 c 2,48,-1
 252 33 l 2,49,50
 252 0 252 0 247.5 -36.5 c 128,-1,51
 243 -73 243 -73 229 -103 c 128,-1,52
 215 -133 215 -133 189 -153 c 128,-1,53
 163 -173 163 -173 120 -173 c 0,0,1
EndSplineSet
EndChar

StartChar: ordfeminine
Encoding: 170 170 161
Width: 418
VWidth: 1040
Flags: W
LayerCount: 2
Fore
SplineSet
195 470 m 0,0,1
 170 470 170 470 151.5 477.5 c 128,-1,2
 133 485 133 485 133 511 c 256,3,4
 133 537 133 537 151.5 547.5 c 128,-1,5
 170 558 170 558 197 563 c 0,6,7
 225 568 225 568 253 572 c 128,-1,8
 281 576 281 576 297 586 c 1,9,-1
 297 539 l 2,10,11
 297 528 297 528 291.5 515.5 c 128,-1,12
 286 503 286 503 274 493 c 128,-1,13
 262 483 262 483 242.5 476.5 c 128,-1,14
 223 470 223 470 195 470 c 0,0,1
357 502 m 2,15,-1
 357 662 l 2,16,17
 357 689 357 689 345 706 c 128,-1,18
 333 723 333 723 314.5 732.5 c 128,-1,19
 296 742 296 742 273 745.5 c 128,-1,20
 250 749 250 749 227 749 c 0,21,22
 199 749 199 749 172.5 743.5 c 128,-1,23
 146 738 146 738 126 725 c 128,-1,24
 106 712 106 712 93.5 692 c 128,-1,25
 81 672 81 672 80 643 c 1,26,-1
 140 643 l 1,27,28
 142 675 142 675 164.5 687 c 128,-1,29
 187 699 187 699 223 699 c 0,30,31
 237 699 237 699 251 697.5 c 128,-1,32
 265 696 265 696 276 691 c 128,-1,33
 287 686 287 686 293.5 676.5 c 128,-1,34
 300 667 300 667 300 650 c 0,35,36
 300 640 300 640 295 633.5 c 128,-1,37
 290 627 290 627 277.5 622.5 c 128,-1,38
 265 618 265 618 242.5 615 c 128,-1,39
 220 612 220 612 185 608 c 0,40,41
 163 606 163 606 141.5 600 c 128,-1,42
 120 594 120 594 103 582.5 c 128,-1,43
 86 571 86 571 75.5 553 c 128,-1,44
 65 535 65 535 65 509 c 0,45,46
 65 486 65 486 74.5 469 c 128,-1,47
 84 452 84 452 100 441 c 128,-1,48
 116 430 116 430 137 425 c 128,-1,49
 158 420 158 420 182 420 c 0,50,51
 256 420 256 420 299 466 c 1,52,53
 302 420 302 420 350 420 c 0,54,55
 363 420 363 420 373 422 c 128,-1,56
 383 424 383 424 393 428 c 1,57,-1
 393 472 l 1,58,59
 387 470 387 470 382 470 c 2,60,-1
 371 470 l 2,61,62
 363 470 363 470 360 477 c 128,-1,63
 357 484 357 484 357 502 c 2,15,-1
EndSplineSet
EndChar

StartChar: ordmasculine
Encoding: 186 186 162
Width: 424
VWidth: 1040
Flags: W
LayerCount: 2
Fore
SplineSet
232 699 m 0,0,1
 248 699 248 699 265.5 694.5 c 128,-1,2
 283 690 283 690 297.5 677 c 128,-1,3
 312 664 312 664 321.5 641 c 128,-1,4
 331 618 331 618 331 582 c 0,5,6
 331 560 331 560 325.5 539.5 c 128,-1,7
 320 519 320 519 308.5 503.5 c 128,-1,8
 297 488 297 488 278.5 479 c 128,-1,9
 260 470 260 470 233 470 c 256,10,11
 206 470 206 470 187 479 c 128,-1,12
 168 488 168 488 156 504 c 128,-1,13
 144 520 144 520 138.5 540.5 c 128,-1,14
 133 561 133 561 133 583 c 0,15,16
 133 643 133 643 161.5 671 c 128,-1,17
 190 699 190 699 232 699 c 0,0,1
232 749 m 0,18,19
 192 749 192 749 160.5 736 c 128,-1,20
 129 723 129 723 108 700.5 c 128,-1,21
 87 678 87 678 76 648 c 128,-1,22
 65 618 65 618 65 583 c 0,23,24
 65 547 65 547 76.5 517.5 c 128,-1,25
 88 488 88 488 109.5 466 c 128,-1,26
 131 444 131 444 162 432 c 128,-1,27
 193 420 193 420 233 420 c 0,28,29
 315 420 315 420 357 465.5 c 128,-1,30
 399 511 399 511 399 583 c 0,31,32
 399 618 399 618 388 648.5 c 128,-1,33
 377 679 377 679 356 701.5 c 128,-1,34
 335 724 335 724 304 736.5 c 128,-1,35
 273 749 273 749 232 749 c 0,18,19
EndSplineSet
EndChar

StartChar: Omegagreek
Encoding: 937 937 163
Width: 780
VWidth: 1040
Flags: W
LayerCount: 2
Fore
SplineSet
90 120 m 1,0,-1
 285 120 l 1,1,-1
 285 180 l 1,2,3
 238 193 238 193 201.5 219.5 c 128,-1,4
 165 246 165 246 140.5 282.5 c 128,-1,5
 116 319 116 319 103 363 c 128,-1,6
 90 407 90 407 90 454 c 0,7,8
 90 521 90 521 115.5 577.5 c 128,-1,9
 141 634 141 634 184.5 674.5 c 128,-1,10
 228 715 228 715 286 738 c 128,-1,11
 344 761 344 761 410 761 c 0,12,13
 475 761 475 761 533.5 738.5 c 128,-1,14
 592 716 592 716 635.5 675.5 c 128,-1,15
 679 635 679 635 704.5 579 c 128,-1,16
 730 523 730 523 730 456 c 0,17,18
 730 408 730 408 717 364 c 128,-1,19
 704 320 704 320 679.5 283.5 c 128,-1,20
 655 247 655 247 618.5 220 c 128,-1,21
 582 193 582 193 535 180 c 1,22,-1
 535 120 l 1,23,-1
 730 120 l 1,24,-1
 730 40 l 1,25,-1
 476 40 l 1,26,-1
 476 246 l 1,27,28
 556 263 556 263 596 317 c 128,-1,29
 636 371 636 371 636 453 c 0,30,31
 636 502 636 502 620 543.5 c 128,-1,32
 604 585 604 585 575 615.5 c 128,-1,33
 546 646 546 646 503.5 663.5 c 128,-1,34
 461 681 461 681 409 681 c 256,35,36
 357 681 357 681 315.5 663.5 c 128,-1,37
 274 646 274 646 244.5 615.5 c 128,-1,38
 215 585 215 585 199.5 543 c 128,-1,39
 184 501 184 501 184 453 c 0,40,41
 184 374 184 374 223.5 317.5 c 128,-1,42
 263 261 263 261 344 246 c 1,43,-1
 344 40 l 1,44,-1
 90 40 l 1,45,-1
 90 120 l 1,0,-1
EndSplineSet
EndChar

StartChar: ae
Encoding: 230 230 164
Width: 910
VWidth: 1040
Flags: W
LayerCount: 2
Fore
SplineSet
507 273 m 1,0,-1
 886 273 l 1,1,2
 886 333 886 333 875 387 c 128,-1,3
 864 441 864 441 837 481.5 c 128,-1,4
 810 522 810 522 765.5 545.5 c 128,-1,5
 721 569 721 569 653 569 c 0,6,7
 606 569 606 569 560 551.5 c 128,-1,8
 514 534 514 534 488 494 c 1,9,10
 476 518 476 518 456 533 c 128,-1,11
 436 548 436 548 412 556 c 128,-1,12
 388 564 388 564 363 566.5 c 128,-1,13
 338 569 338 569 315 569 c 0,14,15
 272 569 272 569 233 560 c 128,-1,16
 194 551 194 551 164 530.5 c 128,-1,17
 134 510 134 510 116 477 c 128,-1,18
 98 444 98 444 96 396 c 1,19,-1
 181 396 l 1,20,21
 184 453 184 453 220 473.5 c 128,-1,22
 256 494 256 494 310 494 c 0,23,24
 331 494 331 494 352 491.5 c 128,-1,25
 373 489 373 489 389.5 480.5 c 128,-1,26
 406 472 406 472 416.5 456 c 128,-1,27
 427 440 427 440 427 414 c 0,28,29
 427 391 427 391 417 378.5 c 128,-1,30
 407 366 407 366 386 358.5 c 128,-1,31
 365 351 365 351 331.5 346 c 128,-1,32
 298 341 298 341 251 332 c 0,33,34
 218 326 218 326 186.5 317 c 128,-1,35
 155 308 155 308 130.5 290.5 c 128,-1,36
 106 273 106 273 91 245 c 128,-1,37
 76 217 76 217 76 173 c 0,38,39
 76 134 76 134 89.5 106.5 c 128,-1,40
 103 79 103 79 126.5 61.5 c 128,-1,41
 150 44 150 44 182 36.5 c 128,-1,42
 214 29 214 29 251 29 c 0,43,44
 323 29 323 29 381.5 52.5 c 128,-1,45
 440 76 440 76 469 129 c 1,46,47
 482 100 482 100 501.5 81 c 128,-1,48
 521 62 521 62 545.5 50.5 c 128,-1,49
 570 39 570 39 598 34 c 128,-1,50
 626 29 626 29 656 29 c 0,51,52
 744 29 744 29 802.5 73.5 c 128,-1,53
 861 118 861 118 880 203 c 1,54,-1
 793 203 l 1,55,56
 781 152 781 152 745.5 127.5 c 128,-1,57
 710 103 710 103 662 103 c 0,58,59
 623 103 623 103 593.5 116.5 c 128,-1,60
 564 130 564 130 545 153.5 c 128,-1,61
 526 177 526 177 516.5 208 c 128,-1,62
 507 239 507 239 507 273 c 1,0,-1
166 179 m 0,63,64
 166 203 166 203 174.5 219 c 128,-1,65
 183 235 183 235 197 245.5 c 128,-1,66
 211 256 211 256 230 262 c 128,-1,67
 249 268 249 268 270 272 c 0,68,69
 290 276 290 276 312.5 279 c 128,-1,70
 335 282 335 282 356 285.5 c 128,-1,71
 377 289 377 289 395.5 294 c 128,-1,72
 414 299 414 299 427 307 c 1,73,-1
 427 220 l 2,74,75
 427 202 427 202 417.5 181.5 c 128,-1,76
 408 161 408 161 388.5 143.5 c 128,-1,77
 369 126 369 126 338.5 114.5 c 128,-1,78
 308 103 308 103 266 103 c 0,79,80
 247 103 247 103 228.5 107 c 128,-1,81
 210 111 210 111 196.5 120 c 128,-1,82
 183 129 183 129 174.5 143.5 c 128,-1,83
 166 158 166 158 166 179 c 0,63,64
796 348 m 1,84,-1
 507 348 l 1,85,86
 507 380 507 380 517 406.5 c 128,-1,87
 527 433 527 433 546 452.5 c 128,-1,88
 565 472 565 472 592 483 c 128,-1,89
 619 494 619 494 653 494 c 256,90,91
 687 494 687 494 713.5 482.5 c 128,-1,92
 740 471 740 471 758 451.5 c 128,-1,93
 776 432 776 432 785.5 405 c 128,-1,94
 795 378 795 378 796 348 c 1,84,-1
EndSplineSet
EndChar

StartChar: oslash
Encoding: 248 248 165
Width: 614
VWidth: 1040
Flags: W
LayerCount: 2
Fore
SplineSet
520 483 m 1,0,-1
 580 549 l 1,1,-1
 553 575 l 1,2,-1
 495 510 l 1,3,4
 463 539 463 539 422 554 c 128,-1,5
 381 569 381 569 327 569 c 0,6,7
 266 569 266 569 219 548 c 128,-1,8
 172 527 172 527 140 490.5 c 128,-1,9
 108 454 108 454 92 404.5 c 128,-1,10
 76 355 76 355 76 298 c 0,11,12
 76 243 76 243 91 195.5 c 128,-1,13
 106 148 106 148 136 111 c 1,14,-1
 74 42 l 1,15,-1
 102 19 l 1,16,-1
 162 85 l 1,17,18
 193 58 193 58 234 43.5 c 128,-1,19
 275 29 275 29 327 29 c 0,20,21
 389 29 389 29 435.5 49.5 c 128,-1,22
 482 70 482 70 514 106.5 c 128,-1,23
 546 143 546 143 562 192 c 128,-1,24
 578 241 578 241 578 298 c 0,25,26
 578 353 578 353 563.5 400.5 c 128,-1,27
 549 448 549 448 520 483 c 1,0,-1
218 148 m 1,28,-1
 460 417 l 1,29,30
 473 394 473 394 480.5 364.5 c 128,-1,31
 488 335 488 335 488 298 c 0,32,33
 488 251 488 251 475.5 214.5 c 128,-1,34
 463 178 463 178 441 153.5 c 128,-1,35
 419 129 419 129 389.5 116 c 128,-1,36
 360 103 360 103 327 103 c 0,37,38
 263 103 263 103 218 148 c 1,28,-1
438 447 m 1,39,-1
 196 177 l 1,40,41
 182 202 182 202 174 232 c 128,-1,42
 166 262 166 262 166 298 c 0,43,44
 166 345 166 345 178.5 381.5 c 128,-1,45
 191 418 191 418 213 443 c 128,-1,46
 235 468 235 468 264.5 481 c 128,-1,47
 294 494 294 494 327 494 c 0,48,49
 394 494 394 494 438 447 c 1,39,-1
EndSplineSet
EndChar

StartChar: questiondown
Encoding: 191 191 166
Width: 596
VWidth: 1040
Flags: W
LayerCount: 2
Fore
SplineSet
377 446 m 1,0,-1
 377 557 l 1,1,-1
 266 557 l 1,2,-1
 266 446 l 1,3,-1
 377 446 l 1,0,-1
543 70 m 1,4,-1
 458 70 l 1,5,6
 458 36 458 36 450 6 c 128,-1,7
 442 -24 442 -24 424.5 -46 c 128,-1,8
 407 -68 407 -68 381 -81 c 128,-1,9
 355 -94 355 -94 319 -94 c 0,10,11
 265 -94 265 -94 233.5 -63 c 128,-1,12
 202 -32 202 -32 198 23 c 0,13,14
 196 59 196 59 207 85 c 128,-1,15
 218 111 218 111 236.5 132.5 c 128,-1,16
 255 154 255 154 276.5 173.5 c 128,-1,17
 298 193 298 193 317.5 216 c 128,-1,18
 337 239 337 239 350.5 269 c 128,-1,19
 364 299 364 299 366 340 c 2,20,-1
 366 379 l 1,21,-1
 281 379 l 1,22,-1
 281 348 l 2,23,24
 281 323 281 323 273.5 302 c 128,-1,25
 266 281 266 281 253.5 263.5 c 128,-1,26
 241 246 241 246 225.5 230.5 c 128,-1,27
 210 215 210 215 194 200 c 0,28,29
 177 184 177 184 161.5 167 c 128,-1,30
 146 150 146 150 134 130 c 128,-1,31
 122 110 122 110 115 85.5 c 128,-1,32
 108 61 108 61 108 31 c 0,33,34
 108 -17 108 -17 123.5 -54 c 128,-1,35
 139 -91 139 -91 167 -116.5 c 128,-1,36
 195 -142 195 -142 234 -155.5 c 128,-1,37
 273 -169 273 -169 319 -169 c 0,38,39
 371 -169 371 -169 413 -150.5 c 128,-1,40
 455 -132 455 -132 484.5 -100 c 128,-1,41
 514 -68 514 -68 529 -24.5 c 128,-1,42
 544 19 544 19 543 70 c 1,4,-1
EndSplineSet
EndChar

StartChar: exclamdown
Encoding: 161 161 167
Width: 299
VWidth: 1040
Flags: W
LayerCount: 2
Fore
SplineSet
225 446 m 1,0,-1
 225 557 l 1,1,-1
 114 557 l 1,2,-1
 114 446 l 1,3,-1
 225 446 l 1,0,-1
122 62 m 1,4,-1
 122 -157 l 1,5,-1
 217 -157 l 1,6,-1
 217 62 l 1,7,-1
 192 373 l 1,8,-1
 147 373 l 1,9,-1
 122 62 l 1,4,-1
EndSplineSet
EndChar

StartChar: logicalnot
Encoding: 172 172 168
Width: 640
VWidth: 1040
Flags: W
LayerCount: 2
Fore
SplineSet
592 149 m 1,0,-1
 592 428 l 1,1,-1
 88 428 l 1,2,-1
 88 360 l 1,3,-1
 524 360 l 1,4,-1
 524 149 l 1,5,-1
 592 149 l 1,0,-1
EndSplineSet
EndChar

StartChar: radical
Encoding: 8730 8730 169
Width: 576
VWidth: 1040
Flags: W
LayerCount: 2
Fore
SplineSet
121 154 m 1,0,-1
 72 131 l 1,1,-1
 40 201 l 1,2,-1
 164 259 l 1,3,-1
 308 -43 l 1,4,-1
 486 826 l 1,5,-1
 576 826 l 1,6,-1
 365 -174 l 1,7,-1
 279 -174 l 1,8,-1
 121 154 l 1,0,-1
EndSplineSet
EndChar

StartChar: florin
Encoding: 402 402 170
Width: 596
VWidth: 1040
Flags: W
LayerCount: 2
Fore
SplineSet
518 679 m 1,0,-1
 532 754 l 1,1,-1
 458 754 l 2,2,3
 394 754 394 754 354.5 718 c 128,-1,4
 315 682 315 682 304 625 c 2,5,-1
 278 489 l 1,6,-1
 187 489 l 1,7,-1
 174 421 l 1,8,-1
 266 421 l 1,9,-1
 196 52 l 2,10,11
 190 18 190 18 182 -2 c 128,-1,12
 174 -22 174 -22 159.5 -32.5 c 128,-1,13
 145 -43 145 -43 120.5 -46 c 128,-1,14
 96 -49 96 -49 57 -49 c 1,15,-1
 43 -124 l 1,16,-1
 109 -124 l 2,17,18
 151 -124 151 -124 181 -113 c 128,-1,19
 211 -102 211 -102 233.5 -75 c 128,-1,20
 256 -48 256 -48 271.5 -3 c 128,-1,21
 287 42 287 42 299 110 c 2,22,-1
 354 421 l 1,23,-1
 454 421 l 1,24,-1
 468 489 l 1,25,-1
 366 489 l 1,26,-1
 397 627 l 2,27,28
 403 653 403 653 417.5 666 c 128,-1,29
 432 679 432 679 459 679 c 2,30,-1
 518 679 l 1,0,-1
EndSplineSet
EndChar

StartChar: approxequal
Encoding: 8776 8776 171
Width: 640
VWidth: 1040
Flags: W
LayerCount: 2
Fore
SplineSet
76 125 m 1,0,1
 80 152 80 152 88.5 178.5 c 128,-1,2
 97 205 97 205 112.5 226 c 128,-1,3
 128 247 128 247 150.5 260 c 128,-1,4
 173 273 173 273 205 273 c 0,5,6
 238 273 238 273 273.5 262 c 128,-1,7
 309 251 309 251 345 237.5 c 128,-1,8
 381 224 381 224 415 213 c 128,-1,9
 449 202 449 202 479 202 c 0,10,11
 513 202 513 202 530.5 224 c 128,-1,12
 548 246 548 246 554 276 c 1,13,-1
 604 276 l 1,14,15
 601 248 601 248 592.5 222 c 128,-1,16
 584 196 584 196 568.5 175.5 c 128,-1,17
 553 155 553 155 530 143 c 128,-1,18
 507 131 507 131 475 131 c 256,19,20
 443 131 443 131 406 142 c 128,-1,21
 369 153 369 153 332 166.5 c 128,-1,22
 295 180 295 180 261.5 191.5 c 128,-1,23
 228 203 228 203 203 203 c 0,24,25
 171 203 171 203 151.5 178.5 c 128,-1,26
 132 154 132 154 128 125 c 1,27,-1
 76 125 l 1,28,-1
 76 125 l 1,0,1
76 305 m 1,29,30
 80 332 80 332 88.5 358.5 c 128,-1,31
 97 385 97 385 112.5 406 c 128,-1,32
 128 427 128 427 150.5 440 c 128,-1,33
 173 453 173 453 205 453 c 0,34,35
 238 453 238 453 273.5 442 c 128,-1,36
 309 431 309 431 345 417.5 c 128,-1,37
 381 404 381 404 415 393 c 128,-1,38
 449 382 449 382 479 382 c 0,39,40
 513 382 513 382 530.5 404 c 128,-1,41
 548 426 548 426 554 456 c 1,42,-1
 604 456 l 1,43,44
 601 428 601 428 592.5 402 c 128,-1,45
 584 376 584 376 568.5 355.5 c 128,-1,46
 553 335 553 335 530 323 c 128,-1,47
 507 311 507 311 475 311 c 256,48,49
 443 311 443 311 406 322 c 128,-1,50
 369 333 369 333 332 346.5 c 128,-1,51
 295 360 295 360 261.5 371.5 c 128,-1,52
 228 383 228 383 203 383 c 0,53,54
 171 383 171 383 151.5 358.5 c 128,-1,55
 132 334 132 334 128 305 c 1,56,-1
 76 305 l 1,57,-1
 76 305 l 1,29,30
EndSplineSet
EndChar

StartChar: Delta
Encoding: 8710 8710 172
Width: 688
VWidth: 1040
Flags: W
LayerCount: 2
Fore
SplineSet
311 754 m 1,0,-1
 416 754 l 1,1,-1
 695 40 l 1,2,-1
 33 40 l 1,3,-1
 311 754 l 1,0,-1
559 120 m 1,4,-1
 363 668 l 1,5,-1
 361 668 l 1,6,-1
 160 120 l 1,7,-1
 559 120 l 1,4,-1
EndSplineSet
EndChar

StartChar: guillemotleft
Encoding: 171 171 173
Width: 503
VWidth: 1040
Flags: W
LayerCount: 2
Fore
SplineSet
90 274 m 1,0,-1
 242 154 l 1,1,-1
 242 240 l 1,2,-1
 142 318 l 1,3,-1
 242 396 l 1,4,-1
 242 482 l 1,5,-1
 90 362 l 1,6,-1
 90 274 l 1,0,-1
286 274 m 1,7,-1
 438 154 l 1,8,-1
 438 240 l 1,9,-1
 338 318 l 1,10,-1
 438 396 l 1,11,-1
 438 482 l 1,12,-1
 286 362 l 1,13,-1
 286 274 l 1,7,-1
EndSplineSet
EndChar

StartChar: guillemotright
Encoding: 187 187 174
Width: 503
VWidth: 1040
Flags: W
LayerCount: 2
Fore
SplineSet
453 362 m 1,0,-1
 301 482 l 1,1,-1
 301 396 l 1,2,-1
 401 318 l 1,3,-1
 301 240 l 1,4,-1
 301 154 l 1,5,-1
 453 274 l 1,6,-1
 453 362 l 1,0,-1
257 362 m 1,7,-1
 105 482 l 1,8,-1
 105 396 l 1,9,-1
 205 318 l 1,10,-1
 105 240 l 1,11,-1
 105 154 l 1,12,-1
 257 274 l 1,13,-1
 257 362 l 1,7,-1
EndSplineSet
EndChar

StartChar: ellipsis
Encoding: 8230 8230 175
Width: 1040
VWidth: 1040
Flags: W
LayerCount: 2
Fore
SplineSet
817 151 m 1,0,-1
 817 40 l 1,1,-1
 928 40 l 1,2,-1
 928 151 l 1,3,-1
 817 151 l 1,0,-1
484 151 m 1,4,-1
 484 40 l 1,5,-1
 595 40 l 1,6,-1
 595 151 l 1,7,-1
 484 151 l 1,4,-1
151 151 m 1,8,-1
 151 40 l 1,9,-1
 262 40 l 1,10,-1
 262 151 l 1,11,-1
 151 151 l 1,8,-1
EndSplineSet
EndChar

StartChar: Agrave
Encoding: 192 192 177
Width: 688
VWidth: 1040
Flags: W
LayerCount: 2
Fore
SplineSet
230 948 m 1,0,-1
 361 805 l 1,1,-1
 425 805 l 1,2,-1
 339 948 l 1,3,-1
 230 948 l 1,0,-1
241 335 m 1,4,-1
 362 668 l 1,5,-1
 364 668 l 1,6,-1
 483 335 l 1,7,-1
 241 335 l 1,4,-1
312 754 m 1,8,-1
 34 40 l 1,9,-1
 131 40 l 1,10,-1
 211 255 l 1,11,-1
 513 255 l 1,12,-1
 591 40 l 1,13,-1
 696 40 l 1,14,-1
 417 754 l 1,15,-1
 312 754 l 1,8,-1
EndSplineSet
Ligature2: "<27,0> Canonical Decomposition lookup 0 subtable" A gravecmb
EndChar

StartChar: Atilde
Encoding: 195 195 178
Width: 688
VWidth: 1040
Flags: W
LayerCount: 2
Fore
SplineSet
538 928 m 1,0,-1
 486 928 l 1,1,2
 481 913 481 913 470.5 898.5 c 128,-1,3
 460 884 460 884 440 884 c 0,4,5
 424 884 424 884 407.5 890.5 c 128,-1,6
 391 897 391 897 374 904.5 c 128,-1,7
 357 912 357 912 338.5 918 c 128,-1,8
 320 924 320 924 300 924 c 0,9,10
 276 924 276 924 259 915 c 128,-1,11
 242 906 242 906 230 891 c 128,-1,12
 218 876 218 876 209.5 856 c 128,-1,13
 201 836 201 836 195 814 c 1,14,-1
 247 814 l 1,15,16
 245 833 245 833 262 844.5 c 128,-1,17
 279 856 279 856 295 856 c 0,18,19
 309 856 309 856 326.5 850 c 128,-1,20
 344 844 344 844 362 837 c 0,21,22
 380 829 380 829 397.5 823 c 128,-1,23
 415 817 415 817 428 817 c 0,24,25
 457 817 457 817 475.5 825.5 c 128,-1,26
 494 834 494 834 507 848 c 0,27,28
 532 883 532 883 538 928 c 1,0,-1
241 335 m 1,29,-1
 362 668 l 1,30,-1
 364 668 l 1,31,-1
 483 335 l 1,32,-1
 241 335 l 1,29,-1
312 754 m 1,33,-1
 34 40 l 1,34,-1
 131 40 l 1,35,-1
 211 255 l 1,36,-1
 513 255 l 1,37,-1
 591 40 l 1,38,-1
 696 40 l 1,39,-1
 417 754 l 1,40,-1
 312 754 l 1,33,-1
EndSplineSet
Ligature2: "<27,0> Canonical Decomposition lookup 0 subtable" A tildecmb
EndChar

StartChar: Otilde
Encoding: 213 213 179
Width: 800
VWidth: 1040
Flags: W
LayerCount: 2
Fore
SplineSet
594 928 m 1,0,-1
 542 928 l 1,1,2
 537 913 537 913 526.5 898.5 c 128,-1,3
 516 884 516 884 496 884 c 0,4,5
 480 884 480 884 463.5 890.5 c 128,-1,6
 447 897 447 897 430 904.5 c 128,-1,7
 413 912 413 912 394.5 918 c 128,-1,8
 376 924 376 924 356 924 c 0,9,10
 332 924 332 924 315 915 c 128,-1,11
 298 906 298 906 286 891 c 128,-1,12
 274 876 274 876 265.5 856 c 128,-1,13
 257 836 257 836 251 814 c 1,14,-1
 303 814 l 1,15,16
 301 833 301 833 318 844.5 c 128,-1,17
 335 856 335 856 351 856 c 0,18,19
 365 856 365 856 382.5 850 c 128,-1,20
 400 844 400 844 418 837 c 0,21,22
 436 829 436 829 453.5 823 c 128,-1,23
 471 817 471 817 484 817 c 0,24,25
 513 817 513 817 531.5 825.5 c 128,-1,26
 550 834 550 834 563 848 c 0,27,28
 588 883 588 883 594 928 c 1,0,-1
173 397 m 256,29,30
 173 451 173 451 187 503.5 c 128,-1,31
 201 556 201 556 231 598 c 128,-1,32
 261 640 261 640 308 665.5 c 128,-1,33
 355 691 355 691 420 691 c 256,34,35
 485 691 485 691 532 665.5 c 128,-1,36
 579 640 579 640 609 598 c 128,-1,37
 639 556 639 556 653 503.5 c 128,-1,38
 667 451 667 451 667 397 c 256,39,40
 667 343 667 343 653 290.5 c 128,-1,41
 639 238 639 238 609 196 c 128,-1,42
 579 154 579 154 532 128.5 c 128,-1,43
 485 103 485 103 420 103 c 256,44,45
 355 103 355 103 308 128.5 c 128,-1,46
 261 154 261 154 231 196 c 128,-1,47
 201 238 201 238 187 290.5 c 128,-1,48
 173 343 173 343 173 397 c 256,29,30
78 397 m 256,49,50
 78 324 78 324 99.5 256.5 c 128,-1,51
 121 189 121 189 164 137 c 128,-1,52
 207 85 207 85 271 54.5 c 128,-1,53
 335 24 335 24 420 24 c 256,54,55
 505 24 505 24 569 54.5 c 128,-1,56
 633 85 633 85 676 137 c 128,-1,57
 719 189 719 189 740.5 256.5 c 128,-1,58
 762 324 762 324 762 397 c 256,59,60
 762 470 762 470 740.5 537.5 c 128,-1,61
 719 605 719 605 676 657 c 128,-1,62
 633 709 633 709 569 740 c 128,-1,63
 505 771 505 771 420 771 c 256,64,65
 335 771 335 771 271 740 c 128,-1,66
 207 709 207 709 164 657 c 128,-1,67
 121 605 121 605 99.5 537.5 c 128,-1,68
 78 470 78 470 78 397 c 256,49,50
EndSplineSet
Ligature2: "<27,0> Canonical Decomposition lookup 0 subtable" O tildecmb
EndChar

StartChar: OE
Encoding: 338 338 180
Width: 1114
VWidth: 1040
Flags: W
LayerCount: 2
Fore
SplineSet
591 109 m 1,0,-1
 591 40 l 1,1,-1
 1074 40 l 1,2,-1
 1074 120 l 1,3,-1
 686 120 l 1,4,-1
 686 367 l 1,5,-1
 1036 367 l 1,6,-1
 1036 447 l 1,7,-1
 686 447 l 1,8,-1
 686 674 l 1,9,-1
 1068 674 l 1,10,-1
 1068 754 l 1,11,-1
 591 754 l 1,12,-1
 591 695 l 1,13,-1
 589 695 l 1,14,15
 578 715 578 715 558.5 729 c 128,-1,16
 539 743 539 743 515 752.5 c 128,-1,17
 491 762 491 762 464.5 766.5 c 128,-1,18
 438 771 438 771 413 771 c 0,19,20
 334 771 334 771 271.5 742.5 c 128,-1,21
 209 714 209 714 166 663.5 c 128,-1,22
 123 613 123 613 100.5 544.5 c 128,-1,23
 78 476 78 476 78 395 c 0,24,25
 78 316 78 316 99.5 248.5 c 128,-1,26
 121 181 121 181 162.5 131 c 128,-1,27
 204 81 204 81 265 52.5 c 128,-1,28
 326 24 326 24 405 24 c 0,29,30
 432 24 432 24 459.5 29.5 c 128,-1,31
 487 35 487 35 511.5 45.5 c 128,-1,32
 536 56 536 56 556 72 c 128,-1,33
 576 88 576 88 589 109 c 1,34,-1
 591 109 l 1,0,-1
412 103 m 0,35,36
 354 103 354 103 309 125.5 c 128,-1,37
 264 148 264 148 234 187 c 128,-1,38
 204 226 204 226 188.5 278.5 c 128,-1,39
 173 331 173 331 173 391 c 256,40,41
 173 451 173 451 188 505.5 c 128,-1,42
 203 560 203 560 233 601.5 c 128,-1,43
 263 643 263 643 308 667 c 128,-1,44
 353 691 353 691 414 691 c 0,45,46
 471 691 471 691 513.5 668 c 128,-1,47
 556 645 556 645 576 614 c 0,48,49
 587 597 587 597 589 579 c 128,-1,50
 591 561 591 561 591 545 c 2,51,-1
 591 244 l 2,52,53
 591 213 591 213 577 187 c 128,-1,54
 563 161 563 161 539 142.5 c 128,-1,55
 515 124 515 124 482.5 113.5 c 128,-1,56
 450 103 450 103 412 103 c 0,35,36
EndSplineSet
EndChar

StartChar: oe
Encoding: 339 339 181
Width: 931
VWidth: 1040
Flags: W
LayerCount: 2
Fore
SplineSet
455 300 m 0,0,1
 455 265 455 265 448.5 230 c 128,-1,2
 442 195 442 195 425.5 166.5 c 128,-1,3
 409 138 409 138 381.5 120.5 c 128,-1,4
 354 103 354 103 311 103 c 0,5,6
 272 103 272 103 244 119.5 c 128,-1,7
 216 136 216 136 199 162.5 c 128,-1,8
 182 189 182 189 174 222 c 128,-1,9
 166 255 166 255 166 288 c 0,10,11
 166 326 166 326 173.5 363 c 128,-1,12
 181 400 181 400 198 429 c 128,-1,13
 215 458 215 458 243 476 c 128,-1,14
 271 494 271 494 311 494 c 0,15,16
 355 494 355 494 383 477 c 128,-1,17
 411 460 411 460 427 432.5 c 128,-1,18
 443 405 443 405 449 370.5 c 128,-1,19
 455 336 455 336 455 300 c 0,0,1
814 348 m 1,20,-1
 529 348 l 1,21,22
 528 412 528 412 567 453 c 128,-1,23
 606 494 606 494 673 494 c 256,24,25
 740 494 740 494 777 454 c 128,-1,26
 814 414 814 414 814 348 c 1,20,-1
529 273 m 1,27,-1
 904 273 l 1,28,29
 907 334 907 334 895.5 388 c 128,-1,30
 884 442 884 442 856 482 c 128,-1,31
 828 522 828 522 783 545.5 c 128,-1,32
 738 569 738 569 673 569 c 0,33,34
 618 569 618 569 567.5 546.5 c 128,-1,35
 517 524 517 524 490 478 c 1,36,37
 464 532 464 532 417.5 550.5 c 128,-1,38
 371 569 371 569 311 569 c 256,39,40
 251 569 251 569 207 548 c 128,-1,41
 163 527 163 527 133.5 490.5 c 128,-1,42
 104 454 104 454 90 405 c 128,-1,43
 76 356 76 356 76 299 c 0,44,45
 76 243 76 243 90 194 c 128,-1,46
 104 145 104 145 132.5 108 c 128,-1,47
 161 71 161 71 205.5 50 c 128,-1,48
 250 29 250 29 311 29 c 0,49,50
 369 29 369 29 417.5 51.5 c 128,-1,51
 466 74 466 74 490 130 c 1,52,53
 514 74 514 74 563.5 51.5 c 128,-1,54
 613 29 613 29 678 29 c 0,55,56
 848 29 848 29 899 204 c 1,57,-1
 818 204 l 1,58,59
 803 156 803 156 766 129.5 c 128,-1,60
 729 103 729 103 678 103 c 0,61,62
 640 103 640 103 611.5 117 c 128,-1,63
 583 131 583 131 564.5 154.5 c 128,-1,64
 546 178 546 178 537 208.5 c 128,-1,65
 528 239 528 239 529 273 c 1,27,-1
EndSplineSet
EndChar

StartChar: endash
Encoding: 8211 8211 182
Width: 540
VWidth: 1040
Flags: W
LayerCount: 2
Fore
SplineSet
40 358 m 1,0,-1
 40 278 l 1,1,-1
 540 278 l 1,2,-1
 540 358 l 1,3,-1
 40 358 l 1,0,-1
EndSplineSet
EndChar

StartChar: emdash
Encoding: 8212 8212 183
Width: 1040
VWidth: 1040
Flags: W
LayerCount: 2
Fore
SplineSet
170 358 m 1,0,-1
 170 278 l 1,1,-1
 910 278 l 1,2,-1
 910 358 l 1,3,-1
 170 358 l 1,0,-1
EndSplineSet
EndChar

StartChar: quotedblleft
Encoding: 8220 8220 184
Width: 466
VWidth: 1040
Flags: W
LayerCount: 2
Fore
SplineSet
217 496 m 1,0,-1
 217 607 l 1,1,-1
 158 607 l 1,2,3
 158 624 158 624 160.5 641.5 c 128,-1,4
 163 659 163 659 170 673 c 128,-1,5
 177 687 177 687 188 695.5 c 128,-1,6
 199 704 199 704 216 704 c 1,7,-1
 216 754 l 1,8,9
 188 754 188 754 167 742 c 128,-1,10
 146 730 146 730 132.5 710 c 128,-1,11
 119 690 119 690 112.5 663.5 c 128,-1,12
 106 637 106 637 106 607 c 2,13,-1
 106 496 l 1,14,-1
 217 496 l 1,0,-1
400 496 m 1,15,-1
 400 607 l 1,16,-1
 341 607 l 1,17,18
 341 624 341 624 343.5 641.5 c 128,-1,19
 346 659 346 659 353 673 c 128,-1,20
 360 687 360 687 371 695.5 c 128,-1,21
 382 704 382 704 399 704 c 1,22,-1
 399 754 l 1,23,24
 371 754 371 754 350 742 c 128,-1,25
 329 730 329 730 315.5 710 c 128,-1,26
 302 690 302 690 295.5 663.5 c 128,-1,27
 289 637 289 637 289 607 c 2,28,-1
 289 496 l 1,29,-1
 400 496 l 1,15,-1
EndSplineSet
EndChar

StartChar: quotedblright
Encoding: 8221 8221 185
Width: 466
VWidth: 1040
Flags: W
LayerCount: 2
Fore
SplineSet
106 754 m 1,0,-1
 106 643 l 1,1,-1
 165 643 l 1,2,3
 165 626 165 626 162.5 608.5 c 128,-1,4
 160 591 160 591 153 577 c 128,-1,5
 146 563 146 563 135 554.5 c 128,-1,6
 124 546 124 546 107 546 c 1,7,-1
 107 496 l 1,8,9
 136 496 136 496 156.5 508 c 128,-1,10
 177 520 177 520 190.5 540 c 128,-1,11
 204 560 204 560 210.5 586.5 c 128,-1,12
 217 613 217 613 217 643 c 2,13,-1
 217 754 l 1,14,-1
 106 754 l 1,0,-1
289 754 m 1,15,-1
 289 643 l 1,16,-1
 348 643 l 1,17,18
 348 626 348 626 345.5 608.5 c 128,-1,19
 343 591 343 591 336 577 c 128,-1,20
 329 563 329 563 318 554.5 c 128,-1,21
 307 546 307 546 290 546 c 1,22,-1
 290 496 l 1,23,24
 319 496 319 496 339.5 508 c 128,-1,25
 360 520 360 520 373.5 540 c 128,-1,26
 387 560 387 560 393.5 586.5 c 128,-1,27
 400 613 400 613 400 643 c 2,28,-1
 400 754 l 1,29,-1
 289 754 l 1,15,-1
EndSplineSet
EndChar

StartChar: quoteleft
Encoding: 8216 8216 186
Width: 318
VWidth: 1040
Flags: W
LayerCount: 2
Fore
SplineSet
235 496 m 1,0,-1
 235 607 l 1,1,-1
 176 607 l 1,2,3
 176 624 176 624 178.5 641.5 c 128,-1,4
 181 659 181 659 188 673 c 128,-1,5
 195 687 195 687 206 695.5 c 128,-1,6
 217 704 217 704 234 704 c 1,7,-1
 234 754 l 1,8,9
 206 754 206 754 185 742 c 128,-1,10
 164 730 164 730 150.5 710 c 128,-1,11
 137 690 137 690 130.5 663.5 c 128,-1,12
 124 637 124 637 124 607 c 2,13,-1
 124 496 l 1,14,-1
 235 496 l 1,0,-1
EndSplineSet
EndChar

StartChar: quoteright
Encoding: 8217 8217 187
Width: 318
VWidth: 1040
Flags: W
LayerCount: 2
Fore
SplineSet
123 754 m 1,0,-1
 123 643 l 1,1,-1
 182 643 l 1,2,3
 182 626 182 626 179.5 608.5 c 128,-1,4
 177 591 177 591 170 577 c 128,-1,5
 163 563 163 563 152 554.5 c 128,-1,6
 141 546 141 546 124 546 c 1,7,-1
 124 496 l 1,8,9
 153 496 153 496 173.5 508 c 128,-1,10
 194 520 194 520 207.5 540 c 128,-1,11
 221 560 221 560 227.5 586.5 c 128,-1,12
 234 613 234 613 234 643 c 2,13,-1
 234 754 l 1,14,-1
 123 754 l 1,0,-1
EndSplineSet
EndChar

StartChar: divide
Encoding: 247 247 188
Width: 640
VWidth: 1040
Flags: W
LayerCount: 2
Fore
SplineSet
276 87 m 256,0,1
 276 61 276 61 295.5 42.5 c 128,-1,2
 315 24 315 24 341 24 c 0,3,4
 366 24 366 24 385 43.5 c 128,-1,5
 404 63 404 63 404 87 c 0,6,7
 404 113 404 113 385 132 c 128,-1,8
 366 151 366 151 340 151 c 256,9,10
 314 151 314 151 295 132 c 128,-1,11
 276 113 276 113 276 87 c 256,0,1
276 499 m 256,12,13
 276 473 276 473 295.5 454 c 128,-1,14
 315 435 315 435 341 435 c 0,15,16
 366 435 366 435 385 455 c 128,-1,17
 404 475 404 475 404 499 c 0,18,19
 404 525 404 525 385 544 c 128,-1,20
 366 563 366 563 340 563 c 256,21,22
 314 563 314 563 295 544 c 128,-1,23
 276 525 276 525 276 499 c 256,12,13
88 327 m 1,24,-1
 88 259 l 1,25,-1
 592 259 l 1,26,-1
 592 327 l 1,27,-1
 88 327 l 1,24,-1
EndSplineSet
EndChar

StartChar: lozenge
Encoding: 9674 9674 189
Width: 640
VWidth: 1040
Flags: W
LayerCount: 2
Fore
SplineSet
126 389 m 1,0,-1
 299 773 l 1,1,-1
 380 773 l 1,2,-1
 554 389 l 1,3,-1
 380 5 l 1,4,-1
 299 5 l 1,5,-1
 126 389 l 1,0,-1
467 389 m 1,6,-1
 339 687 l 1,7,-1
 213 389 l 1,8,-1
 339 90 l 1,9,-1
 467 389 l 1,6,-1
EndSplineSet
EndChar

StartChar: ydieresis
Encoding: 255 255 190
Width: 540
VWidth: 1040
Flags: W
LayerCount: 2
Fore
SplineSet
151 736 m 1,0,-1
 151 632 l 1,1,-1
 241 632 l 1,2,-1
 241 736 l 1,3,-1
 151 736 l 1,0,-1
339 736 m 1,4,-1
 339 632 l 1,5,-1
 429 632 l 1,6,-1
 429 736 l 1,7,-1
 339 736 l 1,4,-1
307 -28 m 2,8,-1
 532 557 l 1,9,-1
 442 557 l 1,10,-1
 297 134 l 1,11,-1
 295 134 l 1,12,-1
 144 557 l 1,13,-1
 48 557 l 1,14,-1
 253 43 l 1,15,-1
 218 -44 l 2,16,17
 206 -67 206 -67 190 -79 c 128,-1,18
 174 -91 174 -91 148 -91 c 0,19,20
 135 -91 135 -91 122.5 -87 c 128,-1,21
 110 -83 110 -83 98 -79 c 1,22,-1
 98 -157 l 1,23,24
 112 -162 112 -162 127 -164 c 128,-1,25
 142 -166 142 -166 157 -166 c 0,26,27
 186 -166 186 -166 207 -158.5 c 128,-1,28
 228 -151 228 -151 245.5 -134.5 c 128,-1,29
 263 -118 263 -118 277.5 -92 c 128,-1,30
 292 -66 292 -66 307 -28 c 2,8,-1
EndSplineSet
Ligature2: "<27,0> Canonical Decomposition lookup 0 subtable" y dieresiscmb
EndChar

StartChar: Ydieresis
Encoding: 376 376 191
Width: 688
VWidth: 1040
Flags: W
LayerCount: 2
Fore
SplineSet
225 913 m 1,0,-1
 225 809 l 1,1,-1
 315 809 l 1,2,-1
 315 913 l 1,3,-1
 225 913 l 1,0,-1
413 913 m 1,4,-1
 413 809 l 1,5,-1
 503 809 l 1,6,-1
 503 913 l 1,7,-1
 413 913 l 1,4,-1
413 332 m 1,8,-1
 686 754 l 1,9,-1
 578 754 l 1,10,-1
 369 414 l 1,11,-1
 155 754 l 1,12,-1
 42 754 l 1,13,-1
 318 332 l 1,14,-1
 318 40 l 1,15,-1
 413 40 l 1,16,-1
 413 332 l 1,8,-1
EndSplineSet
Ligature2: "<27,0> Canonical Decomposition lookup 0 subtable" Y dieresiscmb
EndChar

StartChar: fraction
Encoding: 8260 8260 192
Width: 207
VWidth: 1040
Flags: W
LayerCount: 2
Fore
SplineSet
309 765 m 1,0,-1
 -125 13 l 1,1,-1
 -61 13 l 1,2,-1
 373 765 l 1,3,-1
 309 765 l 1,0,-1
EndSplineSet
EndChar

StartChar: Euro
Encoding: 8364 8364 193
Width: 596
VWidth: 1040
Flags: W
LayerCount: 2
Fore
SplineSet
598 702 m 1,0,1
 508 765 508 765 417 765 c 0,2,3
 299 765 299 765 224 684 c 0,4,5
 157 613 157 613 133 490 c 1,6,-1
 79 490 l 1,7,-1
 53 429 l 1,8,-1
 126 429 l 1,9,10
 125 422 125 422 125 414 c 256,11,12
 125 406 125 406 125 397 c 0,13,14
 125 392 125 392 125 387 c 256,15,16
 125 382 125 382 126 377 c 1,17,-1
 80 377 l 1,18,-1
 53 316 l 1,19,-1
 130 316 l 1,20,21
 172 25 172 25 417 25 c 0,22,23
 504 25 504 25 571 68 c 1,24,-1
 571 173 l 1,25,26
 529 134 529 134 502 120 c 0,27,28
 465 101 465 101 417 101 c 0,29,30
 260 101 260 101 227 316 c 1,31,-1
 445 316 l 1,32,-1
 471 377 l 1,33,-1
 222 377 l 1,34,35
 221 382 221 382 221 387 c 256,36,37
 221 392 221 392 221 398 c 0,38,39
 221 405 221 405 221 413 c 256,40,41
 221 421 221 421 222 429 c 1,42,-1
 485 429 l 1,43,-1
 512 490 l 1,44,-1
 229 490 l 1,45,46
 246 573 246 573 285 624 c 0,47,48
 334 688 334 688 409 688 c 0,49,50
 482 688 482 688 552 619 c 1,51,-1
 598 702 l 1,0,1
EndSplineSet
EndChar

StartChar: guilsinglleft
Encoding: 8249 8249 194
Width: 299
VWidth: 1040
Flags: W
LayerCount: 2
Fore
SplineSet
90 274 m 1,0,-1
 242 154 l 1,1,-1
 242 240 l 1,2,-1
 142 318 l 1,3,-1
 242 396 l 1,4,-1
 242 482 l 1,5,-1
 90 362 l 1,6,-1
 90 274 l 1,0,-1
EndSplineSet
EndChar

StartChar: guilsinglright
Encoding: 8250 8250 195
Width: 299
VWidth: 1040
Flags: W
LayerCount: 2
Fore
SplineSet
249 362 m 1,0,-1
 97 482 l 1,1,-1
 97 396 l 1,2,-1
 197 318 l 1,3,-1
 97 240 l 1,4,-1
 97 154 l 1,5,-1
 249 274 l 1,6,-1
 249 362 l 1,0,-1
EndSplineSet
EndChar

StartChar: fi
Encoding: 64257 64257 196
Width: 558
VWidth: 1040
Flags: W
LayerCount: 2
Fore
SplineSet
405 40 m 1,0,-1
 490 40 l 1,1,-1
 490 557 l 1,2,-1
 405 557 l 1,3,-1
 405 40 l 1,0,-1
405 650 m 1,4,-1
 490 650 l 1,5,-1
 490 754 l 1,6,-1
 405 754 l 1,7,-1
 405 650 l 1,4,-1
139 482 m 1,8,-1
 139 40 l 1,9,-1
 224 40 l 1,10,-1
 224 482 l 1,11,-1
 324 482 l 1,12,-1
 324 557 l 1,13,-1
 224 557 l 1,14,-1
 224 629 l 2,15,16
 224 663 224 663 241 675 c 128,-1,17
 258 687 258 687 289 687 c 0,18,19
 300 687 300 687 313 685.5 c 128,-1,20
 326 684 326 684 337 680 c 1,21,-1
 337 754 l 1,22,23
 325 758 325 758 309.5 760 c 128,-1,24
 294 762 294 762 282 762 c 0,25,26
 212 762 212 762 175.5 729.5 c 128,-1,27
 139 697 139 697 139 634 c 2,28,-1
 139 557 l 1,29,-1
 52 557 l 1,30,-1
 52 482 l 1,31,-1
 139 482 l 1,8,-1
EndSplineSet
Ligature2: "<1,2> Common Ligatures in Latin lookup 1 subtable" f i
EndChar

StartChar: fl
Encoding: 64258 64258 197
Width: 558
VWidth: 1040
Flags: W
LayerCount: 2
Fore
SplineSet
405 754 m 1,0,-1
 405 40 l 1,1,-1
 490 40 l 1,2,-1
 490 754 l 1,3,-1
 405 754 l 1,0,-1
139 482 m 1,4,-1
 139 40 l 1,5,-1
 224 40 l 1,6,-1
 224 482 l 1,7,-1
 324 482 l 1,8,-1
 324 557 l 1,9,-1
 224 557 l 1,10,-1
 224 629 l 2,11,12
 224 663 224 663 241 675 c 128,-1,13
 258 687 258 687 289 687 c 0,14,15
 300 687 300 687 313 685.5 c 128,-1,16
 326 684 326 684 337 680 c 1,17,-1
 337 754 l 1,18,19
 325 758 325 758 309.5 760 c 128,-1,20
 294 762 294 762 282 762 c 0,21,22
 212 762 212 762 175.5 729.5 c 128,-1,23
 139 697 139 697 139 634 c 2,24,-1
 139 557 l 1,25,-1
 52 557 l 1,26,-1
 52 482 l 1,27,-1
 139 482 l 1,4,-1
EndSplineSet
Ligature2: "<1,2> Common Ligatures in Latin lookup 1 subtable" f l
EndChar

StartChar: daggerdbl
Encoding: 8225 8225 198
Width: 596
VWidth: 1040
Flags: W
LayerCount: 2
Fore
SplineSet
276 82 m 1,0,-1
 276 -114 l 1,1,-1
 356 -114 l 1,2,-1
 356 82 l 1,3,-1
 554 82 l 1,4,-1
 554 157 l 1,5,-1
 356 157 l 1,6,-1
 356 482 l 1,7,-1
 554 482 l 1,8,-1
 554 557 l 1,9,-1
 356 557 l 1,10,-1
 356 754 l 1,11,-1
 276 754 l 1,12,-1
 276 557 l 1,13,-1
 82 557 l 1,14,-1
 82 482 l 1,15,-1
 276 482 l 1,16,-1
 276 157 l 1,17,-1
 82 157 l 1,18,-1
 82 82 l 1,19,-1
 276 82 l 1,0,-1
EndSplineSet
EndChar

StartChar: periodcentered
Encoding: 183 183 199
Width: 318
VWidth: 1040
Flags: W
LayerCount: 2
Fore
SplineSet
115 351 m 256,0,1
 115 325 115 325 134.5 306 c 128,-1,2
 154 287 154 287 180 287 c 0,3,4
 205 287 205 287 224 307 c 128,-1,5
 243 327 243 327 243 351 c 0,6,7
 243 377 243 377 224 396 c 128,-1,8
 205 415 205 415 179 415 c 256,9,10
 153 415 153 415 134 396 c 128,-1,11
 115 377 115 377 115 351 c 256,0,1
EndSplineSet
EndChar

StartChar: quotesinglbase
Encoding: 8218 8218 200
Width: 318
VWidth: 1040
Flags: W
LayerCount: 2
Fore
SplineSet
123 151 m 1,0,-1
 123 40 l 1,1,-1
 182 40 l 1,2,3
 182 23 182 23 179.5 6 c 128,-1,4
 177 -11 177 -11 170 -25 c 128,-1,5
 163 -39 163 -39 152 -47.5 c 128,-1,6
 141 -56 141 -56 124 -56 c 1,7,-1
 124 -106 l 1,8,9
 153 -106 153 -106 173.5 -94 c 128,-1,10
 194 -82 194 -82 207.5 -62 c 128,-1,11
 221 -42 221 -42 227.5 -15.5 c 128,-1,12
 234 11 234 11 234 40 c 2,13,-1
 234 151 l 1,14,-1
 123 151 l 1,0,-1
EndSplineSet
EndChar

StartChar: quotedblbase
Encoding: 8222 8222 201
Width: 466
VWidth: 1040
Flags: W
LayerCount: 2
Fore
SplineSet
289 151 m 1,0,-1
 289 40 l 1,1,-1
 348 40 l 1,2,3
 348 23 348 23 345.5 6 c 128,-1,4
 343 -11 343 -11 336 -25 c 128,-1,5
 329 -39 329 -39 318 -47.5 c 128,-1,6
 307 -56 307 -56 290 -56 c 1,7,-1
 290 -106 l 1,8,9
 319 -106 319 -106 339.5 -94 c 128,-1,10
 360 -82 360 -82 373.5 -62 c 128,-1,11
 387 -42 387 -42 393.5 -15.5 c 128,-1,12
 400 11 400 11 400 40 c 2,13,-1
 400 151 l 1,14,-1
 289 151 l 1,0,-1
106 151 m 1,15,-1
 106 40 l 1,16,-1
 165 40 l 1,17,18
 165 23 165 23 162.5 6 c 128,-1,19
 160 -11 160 -11 153 -25 c 128,-1,20
 146 -39 146 -39 135 -47.5 c 128,-1,21
 124 -56 124 -56 107 -56 c 1,22,-1
 107 -106 l 1,23,24
 136 -106 136 -106 156.5 -94 c 128,-1,25
 177 -82 177 -82 190.5 -62 c 128,-1,26
 204 -42 204 -42 210.5 -15.5 c 128,-1,27
 217 11 217 11 217 40 c 2,28,-1
 217 151 l 1,29,-1
 106 151 l 1,15,-1
EndSplineSet
EndChar

StartChar: perthousand
Encoding: 8240 8240 202
Width: 1188
VWidth: 1040
Flags: W
LayerCount: 2
Fore
SplineSet
897 198 m 256,0,1
 897 217 897 217 900.5 237.5 c 128,-1,2
 904 258 904 258 912.5 275 c 128,-1,3
 921 292 921 292 936 303 c 128,-1,4
 951 314 951 314 973 314 c 0,5,6
 994 314 994 314 1007.5 302 c 128,-1,7
 1021 290 1021 290 1028.5 272 c 128,-1,8
 1036 254 1036 254 1038.5 234 c 128,-1,9
 1041 214 1041 214 1041 197 c 0,10,11
 1041 179 1041 179 1038 158.5 c 128,-1,12
 1035 138 1035 138 1027 121.5 c 128,-1,13
 1019 105 1019 105 1005 94 c 128,-1,14
 991 83 991 83 969 83 c 0,15,16
 946 83 946 83 931.5 93.5 c 128,-1,17
 917 104 917 104 909.5 121 c 128,-1,18
 902 138 902 138 899.5 158.5 c 128,-1,19
 897 179 897 179 897 198 c 256,0,1
822 195 m 256,20,21
 822 159 822 159 830 128.5 c 128,-1,22
 838 98 838 98 856 76 c 128,-1,23
 874 54 874 54 901.5 41.5 c 128,-1,24
 929 29 929 29 968 29 c 0,25,26
 999 29 999 29 1027.5 38.5 c 128,-1,27
 1056 48 1056 48 1076 73 c 0,28,29
 1098 100 1098 100 1107 133 c 128,-1,30
 1116 166 1116 166 1116 200 c 0,31,32
 1116 236 1116 236 1108 267 c 128,-1,33
 1100 298 1100 298 1082.5 320.5 c 128,-1,34
 1065 343 1065 343 1037.5 356 c 128,-1,35
 1010 369 1010 369 970 369 c 256,36,37
 930 369 930 369 901.5 355.5 c 128,-1,38
 873 342 873 342 855.5 318.5 c 128,-1,39
 838 295 838 295 830 263 c 128,-1,40
 822 231 822 231 822 195 c 256,20,21
552 198 m 256,41,42
 552 217 552 217 555.5 237.5 c 128,-1,43
 559 258 559 258 567.5 275 c 128,-1,44
 576 292 576 292 591 303 c 128,-1,45
 606 314 606 314 628 314 c 0,46,47
 649 314 649 314 662.5 302 c 128,-1,48
 676 290 676 290 683.5 272 c 128,-1,49
 691 254 691 254 693.5 234 c 128,-1,50
 696 214 696 214 696 197 c 0,51,52
 696 179 696 179 693 158.5 c 128,-1,53
 690 138 690 138 682 121.5 c 128,-1,54
 674 105 674 105 660 94 c 128,-1,55
 646 83 646 83 624 83 c 0,56,57
 601 83 601 83 586.5 93.5 c 128,-1,58
 572 104 572 104 564.5 121 c 128,-1,59
 557 138 557 138 554.5 158.5 c 128,-1,60
 552 179 552 179 552 198 c 256,41,42
477 195 m 256,61,62
 477 159 477 159 485 128.5 c 128,-1,63
 493 98 493 98 511 76 c 128,-1,64
 529 54 529 54 556.5 41.5 c 128,-1,65
 584 29 584 29 623 29 c 0,66,67
 654 29 654 29 682.5 38.5 c 128,-1,68
 711 48 711 48 731 73 c 0,69,70
 753 100 753 100 762 133 c 128,-1,71
 771 166 771 166 771 200 c 0,72,73
 771 236 771 236 763 267 c 128,-1,74
 755 298 755 298 737.5 320.5 c 128,-1,75
 720 343 720 343 692.5 356 c 128,-1,76
 665 369 665 369 625 369 c 256,77,78
 585 369 585 369 556.5 355.5 c 128,-1,79
 528 342 528 342 510.5 318.5 c 128,-1,80
 493 295 493 295 485 263 c 128,-1,81
 477 231 477 231 477 195 c 256,61,62
668 762 m 1,82,-1
 130 19 l 1,83,-1
 216 19 l 1,84,-1
 753 762 l 1,85,-1
 668 762 l 1,82,-1
187 578 m 256,86,87
 187 597 187 597 190.5 617.5 c 128,-1,88
 194 638 194 638 202.5 655 c 128,-1,89
 211 672 211 672 226 683 c 128,-1,90
 241 694 241 694 263 694 c 0,91,92
 284 694 284 694 297.5 682 c 128,-1,93
 311 670 311 670 318.5 652 c 128,-1,94
 326 634 326 634 328.5 614 c 128,-1,95
 331 594 331 594 331 577 c 0,96,97
 331 559 331 559 328 538.5 c 128,-1,98
 325 518 325 518 317 501.5 c 128,-1,99
 309 485 309 485 295 474 c 128,-1,100
 281 463 281 463 259 463 c 0,101,102
 236 463 236 463 221.5 473.5 c 128,-1,103
 207 484 207 484 199.5 501 c 128,-1,104
 192 518 192 518 189.5 538.5 c 128,-1,105
 187 559 187 559 187 578 c 256,86,87
112 575 m 256,106,107
 112 539 112 539 120 508.5 c 128,-1,108
 128 478 128 478 146 455.5 c 128,-1,109
 164 433 164 433 191.5 420.5 c 128,-1,110
 219 408 219 408 258 408 c 0,111,112
 289 408 289 408 317.5 418 c 128,-1,113
 346 428 346 428 366 453 c 0,114,115
 388 480 388 480 397 513 c 128,-1,116
 406 546 406 546 406 580 c 0,117,118
 406 616 406 616 398 647 c 128,-1,119
 390 678 390 678 372.5 700.5 c 128,-1,120
 355 723 355 723 327.5 736 c 128,-1,121
 300 749 300 749 260 749 c 256,122,123
 220 749 220 749 191.5 735.5 c 128,-1,124
 163 722 163 722 145.5 698.5 c 128,-1,125
 128 675 128 675 120 643 c 128,-1,126
 112 611 112 611 112 575 c 256,106,107
EndSplineSet
EndChar

StartChar: Acircumflex
Encoding: 194 194 203
Width: 688
VWidth: 1040
Flags: W
LayerCount: 2
Fore
SplineSet
317 948 m 1,0,-1
 214 805 l 1,1,-1
 291 805 l 1,2,-1
 361 901 l 1,3,-1
 430 805 l 1,4,-1
 514 805 l 1,5,-1
 410 948 l 1,6,-1
 317 948 l 1,0,-1
241 335 m 1,7,-1
 362 668 l 1,8,-1
 364 668 l 1,9,-1
 483 335 l 1,10,-1
 241 335 l 1,7,-1
312 754 m 1,11,-1
 34 40 l 1,12,-1
 131 40 l 1,13,-1
 211 255 l 1,14,-1
 513 255 l 1,15,-1
 591 40 l 1,16,-1
 696 40 l 1,17,-1
 417 754 l 1,18,-1
 312 754 l 1,11,-1
EndSplineSet
Ligature2: "<27,0> Canonical Decomposition lookup 0 subtable" A circumflexcmb
EndChar

StartChar: Ecircumflex
Encoding: 202 202 204
Width: 651
VWidth: 1040
Flags: W
LayerCount: 2
Fore
SplineSet
299 948 m 1,0,-1
 196 805 l 1,1,-1
 273 805 l 1,2,-1
 343 901 l 1,3,-1
 412 805 l 1,4,-1
 496 805 l 1,5,-1
 392 948 l 1,6,-1
 299 948 l 1,0,-1
118 754 m 1,7,-1
 118 40 l 1,8,-1
 614 40 l 1,9,-1
 614 120 l 1,10,-1
 213 120 l 1,11,-1
 213 367 l 1,12,-1
 584 367 l 1,13,-1
 584 447 l 1,14,-1
 213 447 l 1,15,-1
 213 674 l 1,16,-1
 611 674 l 1,17,-1
 611 754 l 1,18,-1
 118 754 l 1,7,-1
EndSplineSet
Ligature2: "<27,0> Canonical Decomposition lookup 0 subtable" E circumflexcmb
EndChar

StartChar: Aacute
Encoding: 193 193 205
Width: 688
VWidth: 1040
Flags: W
LayerCount: 2
Fore
SplineSet
389 948 m 1,0,-1
 303 805 l 1,1,-1
 367 805 l 1,2,-1
 498 948 l 1,3,-1
 389 948 l 1,0,-1
241 335 m 1,4,-1
 362 668 l 1,5,-1
 364 668 l 1,6,-1
 483 335 l 1,7,-1
 241 335 l 1,4,-1
312 754 m 1,8,-1
 34 40 l 1,9,-1
 131 40 l 1,10,-1
 211 255 l 1,11,-1
 513 255 l 1,12,-1
 591 40 l 1,13,-1
 696 40 l 1,14,-1
 417 754 l 1,15,-1
 312 754 l 1,8,-1
EndSplineSet
Ligature2: "<27,0> Canonical Decomposition lookup 0 subtable" A acutecmb
EndChar

StartChar: Edieresis
Encoding: 203 203 206
Width: 651
VWidth: 1040
Flags: W
LayerCount: 2
Fore
SplineSet
207 913 m 1,0,-1
 207 809 l 1,1,-1
 297 809 l 1,2,-1
 297 913 l 1,3,-1
 207 913 l 1,0,-1
395 913 m 1,4,-1
 395 809 l 1,5,-1
 485 809 l 1,6,-1
 485 913 l 1,7,-1
 395 913 l 1,4,-1
118 754 m 1,8,-1
 118 40 l 1,9,-1
 614 40 l 1,10,-1
 614 120 l 1,11,-1
 213 120 l 1,12,-1
 213 367 l 1,13,-1
 584 367 l 1,14,-1
 584 447 l 1,15,-1
 213 447 l 1,16,-1
 213 674 l 1,17,-1
 611 674 l 1,18,-1
 611 754 l 1,19,-1
 118 754 l 1,8,-1
EndSplineSet
Ligature2: "<27,0> Canonical Decomposition lookup 0 subtable" E dieresiscmb
EndChar

StartChar: Egrave
Encoding: 200 200 207
Width: 651
VWidth: 1040
Flags: W
LayerCount: 2
Fore
SplineSet
212 948 m 1,0,-1
 343 805 l 1,1,-1
 407 805 l 1,2,-1
 321 948 l 1,3,-1
 212 948 l 1,0,-1
118 754 m 1,4,-1
 118 40 l 1,5,-1
 614 40 l 1,6,-1
 614 120 l 1,7,-1
 213 120 l 1,8,-1
 213 367 l 1,9,-1
 584 367 l 1,10,-1
 584 447 l 1,11,-1
 213 447 l 1,12,-1
 213 674 l 1,13,-1
 611 674 l 1,14,-1
 611 754 l 1,15,-1
 118 754 l 1,4,-1
EndSplineSet
Ligature2: "<27,0> Canonical Decomposition lookup 0 subtable" E gravecmb
EndChar

StartChar: Iacute
Encoding: 205 205 208
Width: 299
VWidth: 1040
Flags: W
LayerCount: 2
Fore
SplineSet
195 948 m 1,0,-1
 109 805 l 1,1,-1
 173 805 l 1,2,-1
 304 948 l 1,3,-1
 195 948 l 1,0,-1
122 754 m 1,4,-1
 122 40 l 1,5,-1
 217 40 l 1,6,-1
 217 754 l 1,7,-1
 122 754 l 1,4,-1
EndSplineSet
Ligature2: "<27,0> Canonical Decomposition lookup 0 subtable" I acutecmb
EndChar

StartChar: Icircumflex
Encoding: 206 206 209
Width: 299
VWidth: 1040
Flags: W
LayerCount: 2
Fore
SplineSet
123 948 m 1,0,-1
 21 805 l 1,1,-1
 97 805 l 1,2,-1
 167 901 l 1,3,-1
 236 805 l 1,4,-1
 320 805 l 1,5,-1
 216 948 l 1,6,-1
 123 948 l 1,0,-1
122 754 m 1,7,-1
 122 40 l 1,8,-1
 217 40 l 1,9,-1
 217 754 l 1,10,-1
 122 754 l 1,7,-1
EndSplineSet
Ligature2: "<27,0> Canonical Decomposition lookup 0 subtable" I circumflexcmb
EndChar

StartChar: Idieresis
Encoding: 207 207 210
Width: 299
VWidth: 1040
Flags: W
LayerCount: 2
Fore
SplineSet
32 913 m 1,0,-1
 32 809 l 1,1,-1
 121 809 l 1,2,-1
 121 913 l 1,3,-1
 32 913 l 1,0,-1
219 913 m 1,4,-1
 219 809 l 1,5,-1
 309 809 l 1,6,-1
 309 913 l 1,7,-1
 219 913 l 1,4,-1
122 754 m 1,8,-1
 122 40 l 1,9,-1
 217 40 l 1,10,-1
 217 754 l 1,11,-1
 122 754 l 1,8,-1
EndSplineSet
Ligature2: "<27,0> Canonical Decomposition lookup 0 subtable" I dieresiscmb
EndChar

StartChar: Igrave
Encoding: 204 204 211
Width: 299
VWidth: 1040
Flags: W
LayerCount: 2
Fore
SplineSet
37 948 m 1,0,-1
 167 805 l 1,1,-1
 231 805 l 1,2,-1
 145 948 l 1,3,-1
 37 948 l 1,0,-1
122 754 m 1,4,-1
 122 40 l 1,5,-1
 217 40 l 1,6,-1
 217 754 l 1,7,-1
 122 754 l 1,4,-1
EndSplineSet
Ligature2: "<27,0> Canonical Decomposition lookup 0 subtable" I gravecmb
EndChar

StartChar: Oacute
Encoding: 211 211 212
Width: 800
VWidth: 1040
Flags: W
LayerCount: 2
Fore
SplineSet
445 948 m 1,0,-1
 359 805 l 1,1,-1
 423 805 l 1,2,-1
 554 948 l 1,3,-1
 445 948 l 1,0,-1
173 397 m 256,4,5
 173 451 173 451 187 503.5 c 128,-1,6
 201 556 201 556 231 598 c 128,-1,7
 261 640 261 640 308 665.5 c 128,-1,8
 355 691 355 691 420 691 c 256,9,10
 485 691 485 691 532 665.5 c 128,-1,11
 579 640 579 640 609 598 c 128,-1,12
 639 556 639 556 653 503.5 c 128,-1,13
 667 451 667 451 667 397 c 256,14,15
 667 343 667 343 653 290.5 c 128,-1,16
 639 238 639 238 609 196 c 128,-1,17
 579 154 579 154 532 128.5 c 128,-1,18
 485 103 485 103 420 103 c 256,19,20
 355 103 355 103 308 128.5 c 128,-1,21
 261 154 261 154 231 196 c 128,-1,22
 201 238 201 238 187 290.5 c 128,-1,23
 173 343 173 343 173 397 c 256,4,5
78 397 m 256,24,25
 78 324 78 324 99.5 256.5 c 128,-1,26
 121 189 121 189 164 137 c 128,-1,27
 207 85 207 85 271 54.5 c 128,-1,28
 335 24 335 24 420 24 c 256,29,30
 505 24 505 24 569 54.5 c 128,-1,31
 633 85 633 85 676 137 c 128,-1,32
 719 189 719 189 740.5 256.5 c 128,-1,33
 762 324 762 324 762 397 c 256,34,35
 762 470 762 470 740.5 537.5 c 128,-1,36
 719 605 719 605 676 657 c 128,-1,37
 633 709 633 709 569 740 c 128,-1,38
 505 771 505 771 420 771 c 256,39,40
 335 771 335 771 271 740 c 128,-1,41
 207 709 207 709 164 657 c 128,-1,42
 121 605 121 605 99.5 537.5 c 128,-1,43
 78 470 78 470 78 397 c 256,24,25
EndSplineSet
Ligature2: "<27,0> Canonical Decomposition lookup 0 subtable" O acutecmb
EndChar

